<svg id="e7OM2qAJmyr1" xmlns="http://www.w3.org/2000/svg" xmlns:xlink="http://www.w3.org/1999/xlink" viewBox="0 0 432 238" shape-rendering="geometricPrecision" text-rendering="geometricPrecision">
<style><![CDATA[
#e7OM2qAJmyr9_tr {animation: e7OM2qAJmyr9_tr__tr 5000ms linear infinite normal forwards}@keyframes e7OM2qAJmyr9_tr__tr { 0% {transform: translate(90.8457px,117.267498px) rotate(0deg)} 100% {transform: translate(90.8457px,117.267498px) rotate(359deg)}} #e7OM2qAJmyr22_tr {animation: e7OM2qAJmyr22_tr__tr 5000ms linear infinite normal forwards}@keyframes e7OM2qAJmyr22_tr__tr { 0% {transform: translate(338.641159px,57.713804px) rotate(0deg)} 100% {transform: translate(338.641159px,57.713804px) rotate(359deg)}}
]]></style>
<path d="M423.291,198.458v.111c-.175,3.376-.619,6.562-1.285,9.541-3.523,15.85-12.694,25.963-14.978,28.419-.318.333-.508.524-.524.571-9.933,0-74.161.016-147.338,0-19.738,0-40.111-.016-60.246-.032-9.155,0-18.246,0-27.211-.015-6.537,0-12.995,0-19.357-.016-24.118-.016-46.791-.048-66.2118-.08-10.4086-.015-19.8968-.031-28.1792-.063-22.0706-.063-35.6683-.143-35.7-.238l-.0318-.079c0,0-.0158-.016-.0158-.048c0-.015-.0318-.047-.0318-.047-.0476-.143-12.77264-17.705-16.54891-41.797-.87267-5.579-1.26933-11.522-.92027-17.672v-.095C6.04522,154.22,17.5486,128.654,52.6932,106.94C86.2988,86.1764,50.583,72.4661,77.2866,49.341c30.7024-26.5329,64.2284,2.8371,98.3734-9.2089c6.013-2.1397,12.09-5.5475,18.151-10.7938c3.412-2.9481,7.14-5.5475,11.139-7.7507.619-.3645,1.222-.6974,1.856-1.0144c2.396-1.2521,4.887-2.3775,7.458-3.3919c1.697-.6657,3.458-1.2997,5.236-1.8703c2.84-.9351,5.759-1.7276,8.71-2.3775c4.221-.9668,8.568-1.6642,12.995-2.1397c1.925-.2219,3.877-.391,5.855-.5072c36.128-2.28241,76.572,9.7477,99.563,27.8326c1.28.9933,2.502,2.0129,3.665,3.059.492.428,1.159,1.0461,1.936,1.8545c5.363,5.5316,16.295,19.5906,11.789,38.6106-.381,1.6167-.888,3.281-1.507,4.9769-.889,2.4092-2.031,4.9135-3.475,7.4653-2.237,3.9625-1.904,7.8615.111,11.7925l.032.032c.106.211.222.422.349.634.423.739.899,1.484,1.428,2.234.307.423.634.851.984,1.284.074.106.158.212.253.317.17.212.344.423.524.634c0,0,0,.006,0,.016.148.169.296.338.444.507.159.169.312.339.46.508.159.169.318.343.476.523.159.169.323.338.492.507.159.169.323.343.492.523.169.169.344.338.524.507c2.903,2.885,3.697,6.514,4.458,10.746.286,1.665.571,3.408.968,5.247.021.074.042.153.064.237.333,1.538.777,3.139,1.364,4.803.021.074.048.153.079.238.524,1.442,1.159,2.916,1.968,4.438.074.137.153.28.238.428.053.105.116.216.19.333.043.084.085.163.127.237.085.148.17.291.254.428.032.053.069.111.111.175.571.961,1.227,1.939,1.968,2.932.317.433.65.872.999,1.315c1.904,2.346,4.284,4.755,7.299,7.244c3.951,3.265,9.012,6.641,15.502,10.096c1.026.55,2.02,1.105,2.983,1.665c9.012,5.325,14.66,11.237,16.675,17.894.286.951.762,2.79,1.238,4.993.698,3.392,1.38,7.656,1.206,10.905Z" fill="#ebf3fa"/><path d="M423.275,198.458c.01.031.016.068.016.111-.175,3.376-.619,6.562-1.285,9.541l-17.835,2.806-3.681.57-2.094.333-14.518,2.267-1.301.206-2.92.46-.745.126h-.016c0,0-.619.064-1.698.175-.095,0-.19.005-.286.016-.729.079-1.618.142-2.649.221-.381.032-.783.064-1.206.096-.085,0-.164.005-.238.015-.592.043-1.211.08-1.857.111-1.316.064-2.76.127-4.252.175-.571.01-1.158.021-1.761.031-.307,0-.614,0-.92,0-.381,0-.762,0-1.143,0-.56,0-1.121-.01-1.682-.031-.412-.011-.825-.021-1.237-.032-.571-.021-1.143-.048-1.714-.079-.095-.011-.185-.016-.269-.016-.265-.021-.529-.042-.794-.063-1.301-.096-2.586-.238-3.792-.413-.201-.031-.402-.063-.603-.095-4.569-.745-8.139-2.171-8.949-4.707-.745-2.33.857-5.659,6.172-10.271.889-.761,1.815-1.495,2.777-2.203c6.172-4.533,13.772-7.735,21.722-10.017.338-.095.671-.185.999-.27.053-.01.106-.026.159-.047.084-.021.174-.043.27-.064.179-.052.354-.1.523-.142.318-.085.635-.169.952-.254c1.587-.401,3.184-.771,4.792-1.109.402-.085.804-.169,1.206-.254.19-.032.381-.069.571-.111.127-.021.254-.048.381-.079.201-.032.402-.069.603-.111c6.664-1.252,13.264-1.981,19.198-2.378c6.68-.443,12.519-.475,16.676-.412.476,1.157.889,2.932,1.238,4.993.539,3.265.92,7.275,1.19,10.905Z" fill="#a8d29f"/><path d="M223.038,48.6436c0,0,5.14-10.6036,17.405-9.4307c0,0,17.819-17.6728,36.811-2.3617c0,0,20.182-3.7881,35.145,3.2968c9.964,4.7075,13.264,9.6685,13.264,9.6685L223.038,48.6436Z" fill="#f8fcff"/><path d="M205.077,142.951c0,0,6.933-11.998,23.498-10.667c0,0,24.038-20.003,49.695-2.663c0,0,27.259-4.295,47.441,3.709c13.471,5.342,17.913,10.953,17.913,10.953l-138.547-1.332Z" fill="#f8fcff"/><path d="M319.222,90.0122c0,0-5.236-8.9711-17.739-6.7521-12.519,2.219-9.187,16.6584-16.105,23.4579-6.934,6.784-12.963,12.823-9.996,22.412s-12.804,11.65-12.773,26.121c.048,14.487,3.428,23.014,22.833,24.139c19.404,1.126,50.44-3.994,54.644-9.827c4.205-5.848,3.507-18.671-7.06-35.028-10.552-16.357-.905-17.831-7.965-27.31-7.045-9.478-2.079-13.3137-5.839-17.2128Z" fill="#79b27f"/><path d="M83.3318,75.034c0,0,4.5696-7.8933,15.4541-7.0057c0,0,15.8191-13.1555,32.6851-1.7594c0,0,17.914-2.8213,31.194,2.4409c8.854,3.5187,11.773,7.1959,11.773,7.1959L83.3318,75.034Z" fill="#f8fcff"/><path d="M93.0033,222.741h-3.681l.7933-104.293h1.8723l1.0154,104.293Z" fill="#739af0"/><g id="e7OM2qAJmyr9_tr" transform="translate(90.8457,117.267498) rotate(0)"><g transform="translate(-90.8457,-117.267498)"><path d="M90.8298,119.003l-26.783,22.903-10.4085,8.892-.7933-.792l9.2185-10.208l15.1051-16.721l11.9158-6.245l1.7454,2.171Z" fill="#7faaf7"/><path d="M64.0468,141.906l-10.4085,8.892-.7933-.792l9.2185-10.208l1.9833,2.108Z" fill="#f99746"/><path d="M92.6386,117.45l-2.6021.935L76.8989,84.9416L72.1548,72.8481l1.0154-.4755l6.3626,11.5705L90.6553,104.152l1.9833,13.298Z" fill="#7faaf7"/><path d="M79.5328,83.9431l-2.6339.9985-4.7441-12.0935l1.0154-.4755l6.3626,11.5705Z" fill="#f99746"/><path d="M139.985,119.257l-17.469,1.22-18.739,1.284-12.9313-3.788.2539-2.758l30.6224,1.839l18.247,1.093.016,1.11Z" fill="#7faaf7"/><path d="M139.985,119.257l-18.088,1.252-.175-3.455l18.247,1.093.016,1.11Z" fill="#f99746"/></g></g><path d="M90.9883,114.866c-1.3169-.079-2.4593.936-2.5386,2.251-.0794,1.331.9361,2.473,2.253,2.552c1.3328.079,2.4594-.935,2.5387-2.267.0793-1.315-.9203-2.456-2.2531-2.536Z" fill="#2b478b"/><path d="M103.768,236.45h91.106l37.969-.016h68.687c0,0,.037-.068.111-.206.053-.105.127-.237.222-.396l.048-.063c0,0,0,0,0-.016c0,0,.032-.032.032-.048.158-.206.269-.428.412-.713.079-.127.159-.269.27-.428c0-.016,0-.016,0-.047.032-.032.032-.032.032-.032.523-.888,1.174-2.061,1.919-3.471.064-.127.133-.259.207-.396.365-1.062.777-2.267,1.206-3.583c1.031-3.185,2.221-7.1,3.379-11.507.46-1.727.905-3.55,1.333-5.436.254-1.094.508-2.219.746-3.376.074-.328.148-.661.222-.999.444-2.155.857-4.359,1.237-6.625.746-4.422,1.333-9.035,1.651-13.71-29.497,1.521-86.363,5.515-129.123,15.057-60.357,13.473-75.272,15.644-100.8489,18.069-14.2959,1.347,2.0309,10.318,19.1829,17.942Z" fill="#d4dfff"/><path d="M142.134,221.868c0,0,97.754-29.734,122.363-31.89s1.032,2.885,1.032,2.885-66.894,17.387-82.444,24.789c-32.891,15.676-40.951,4.216-40.951,4.216Z" fill="#d4dfff"/><path d="M171.661,235.61c0,0,81.46-37.39,103.499-43.46c22.054-6.071,1.428,2.425,1.428,2.425s-64.324,33.506-77.795,41.955c-1.951,1.236-27.132-.92-27.132-.92Z" fill="#d4dfff"/><path d="M192.986,116.656l-13.09,1.68-13.09,1.712-8.06-1.855c-.19.365-.54.619-.92.761l.587,74.448c-.841.412-1.666.967-2.412,1.68l.46-75.684-17.612,16.991-7.172,6.895-.603-.523l6.252-7.814l10.234-12.791l7.933-4.787c-.016-.016-.016-.016-.016-.047c0-.381.143-.714.334-1.015L145.704,94.466l-3.967-8.559.698-.4121l5.125,8.131l8.949,14.1861l1.697,8.02h34.733l.047.824Z" opacity="0.5" fill="#aec3ff"/><path d="M341.101,206.446h-4.696L337.42,60.3252h2.38l1.301,146.1208Z" fill="#739af0"/><g id="e7OM2qAJmyr22_tr" transform="translate(338.641159,57.713804) rotate(0)"><g transform="scale(0.9,0.9) translate(-338.641159,-57.713804)"><g><path d="M337.817,55.6652l20.119-40.0846L365.758,0l1.317.55475L361.3,17.0705l-9.457,27.0718-10.932,13.2188-3.094-1.6959Z" fill="#83affc"/><path d="M336.437,58.3755l2.618-2.3775l31.923,32.7937l11.535,11.8553-.952,1.062-13.185-10.4447-23.022-18.2434-8.917-14.6454Z" fill="#83affc"/><path d="M279.967,79.5829l19.913-10.033l21.356-10.7463l17.057-1.9179l1.047,3.3602-36.826,12.9336-21.991,7.7031-.556-1.2997Z" fill="#83affc"/><path d="M279.967,79.5829l20.627-10.3817l1.92,3.9783-21.991,7.7031-.556-1.2997Z" fill="#f99746"/></g><path d="M357.936,15.5806L365.758,0l1.317.55475L361.3,17.0705l-3.364-1.4899Z" fill="#f99746"/><path d="M368.376,91.2644l2.603-2.4727l11.535,11.8563-.952,1.061-13.186-10.4446Z" fill="#f99746"/></g></g><path d="M339.658,60.5945c1.586-.5547,2.427-2.2982,1.872-3.8832-.556-1.6009-2.317-2.4409-3.903-1.8862-1.603.5706-2.428,2.3141-1.873,3.8991.556,1.6009,2.301,2.4409,3.904,1.8703Z" fill="#2b478b"/><path d="M269.591,214.466c0,0-19.675-5.832-31.194,1.316-11.52,7.164-4.697,15.406-18.326,14.693-13.63-.729-20.437-1.411-21.166,6.641h60.245l10.441-22.65Z" fill="#a8d29f"/><path d="M352.795,144.362v92.611h-66.132v-92.611h66.132Z" fill="#f9ddbf"/><path d="M404.172,146.819v90.139h-51.377v-92.612h49.14c.761.808,1.507,1.632,2.237,2.473Z" fill="#fff3e9"/><path d="M365.6,114.104l-5.236,10.746-2.301,4.74-.079.19-.095.158-.064.143-.127.254-.047.11-2.285,4.692-.127.238-.286.634-4.062,8.337-.936,1.949-1.333,2.695-.698,1.442h-65.815l4.554-5.896.143-.19l29.607-38.278.016-.016h2.602l40.143-.142c1.412,2.71,3.649,5.452,6.426,8.194Z" fill="#ed9f4a"/><path d="M352.795,149.988v7.704l-66.132,2.789v-10.049h-1.952l34.32-44.396l33.764,43.952Z" fill="#f9ddbf"/><path d="M319.618,128.163h-1.38c-4.697,0-8.505,3.804-8.505,8.496v21.572h18.12v-21.858c0-4.533-3.697-8.21-8.235-8.21Z" fill="#efcdaf"/><path d="M410.201,152.905h-58.627l-2.952-3.915-3.49-4.644-27.465-36.566-1.27-1.712-.143-.19h58.612l.143.19l1.285,1.712l27.449,36.566l3.491,4.644l2.967,3.915Z" fill="#f99746"/><path d="M311.859,162.875l-15.438,31.731h-46.854l24.435-31.605l37.857-.126Z" fill="#ed9f4a"/><path d="M313.256,162.875l-15.423,31.731h-46.854l24.419-31.605l37.858-.126Z" fill="#f9ddbf"/><path d="M297.738,194.606v42.272l-46.759.095v-42.367h46.759Z" fill="#f9ddbf"/><path d="M337.326,194.606v42.272h-39.588v-42.272h39.588Z" fill="#fff3e9"/><path d="M341.673,196.476h-42.539l-25.133-33.475h12.662h29.131l25.879,33.475Z" fill="#f99746"/><path d="M271.796,180.611c0-1.221.984-2.219,2.205-2.219c1.222,0,2.206.998,2.206,2.219c0,1.22-.984,2.203-2.206,2.203-1.221,0-2.205-.983-2.205-2.203Z" fill="#efcdaf"/><path d="M341.673,196.476h-8.076l-46.934-33.475h29.131l25.879,33.475Z" fill="#e88338"/><path d="M362.823,145.661h32.178L378.023,124.85h-32.177l16.977,20.811Z" fill="#2b478b"/><path d="M350.225,130.334h32.178l-.191-.237h-32.177l.19.237Z" fill="#aec3ff"/><path d="M370.471,124.85l16.961,20.811h.254L370.709,124.85h-.238Z" fill="#aec3ff"/><path d="M361.935,124.85l16.977,20.811h.238L362.188,124.85h-.253Z" fill="#aec3ff"/><path d="M353.731,124.85l16.978,20.811h.238L353.969,124.85h-.238Z" fill="#aec3ff"/><path d="M354.43,135.375h32.193l-.206-.238h-32.178l.191.238Z" fill="#aec3ff"/><path d="M358.873,140.811h32.177l-.19-.238h-32.178l.191.238Z" fill="#aec3ff"/><path d="M375.818,131.238l.191-1.015-1.825-.998-.19.998l1.824,1.015Z" fill="#aec3ff"/><path d="M367.377,131.238l.191-1.015-1.825-.998-.175.998l1.809,1.015Z" fill="#aec3ff"/><path d="M359.063,131.238l.174-1.015-1.808-.998-.191.998l1.825,1.015Z" fill="#aec3ff"/><path d="M379.928,136.262l.174-1.014-1.809-.998-.19.998l1.825,1.014Z" fill="#aec3ff"/><path d="M371.486,136.262l.191-1.014-1.825-.998-.19.998l1.824,1.014Z" fill="#aec3ff"/><path d="M363.156,136.262l.191-1.014-1.825-.998-.174.998l1.808,1.014Z" fill="#aec3ff"/><path d="M384.37,141.699l.175-.999-1.825-1.014-.175,1.014l1.825.999Z" fill="#aec3ff"/><path d="M375.929,141.699l.191-.999-1.825-1.014-.191,1.014l1.825.999Z" fill="#aec3ff"/><path d="M367.599,141.699l.19-.999-1.824-1.014-.191,1.014l1.825.999Z" fill="#aec3ff"/><path d="M302.085,190.026h29.148L315.858,171.18h-29.163l15.39,18.846Z" fill="#2b478b"/><path d="M290.661,176.141h29.163l-.174-.222h-29.163l.174.222Z" fill="#aec3ff"/><path d="M309.003,171.18l15.375,18.846h.222L309.226,171.18h-.223Z" fill="#aec3ff"/><path d="M301.276,171.18l15.375,18.846h.222L301.499,171.18h-.223Z" fill="#aec3ff"/><path d="M293.834,171.18l15.391,18.846h.222l-15.39-18.846h-.223Z" fill="#aec3ff"/><path d="M294.485,180.722h29.147l-.174-.222h-29.163l.19.222Z" fill="#aec3ff"/><path d="M298.5,185.651h29.163l-.175-.222h-29.163l.175.222Z" fill="#aec3ff"/><path d="M313.859,176.965l.158-.919-1.65-.904-.159.904l1.651.919Z" fill="#aec3ff"/><path d="M306.211,176.965l.174-.919-1.65-.904-.174.904l1.65.919Z" fill="#aec3ff"/><path d="M298.674,176.965l.159-.919-1.65-.904-.159.904l1.65.919Z" fill="#aec3ff"/><path d="M317.572,181.514l.174-.903-1.65-.904-.175.904l1.651.903Z" fill="#aec3ff"/><path d="M309.924,181.514l.174-.903-1.65-.904-.175.904l1.651.903Z" fill="#aec3ff"/><path d="M302.387,181.514l.159-.903-1.651-.904-.158.904l1.65.903Z" fill="#aec3ff"/><path d="M321.601,186.443l.159-.903-1.65-.904-.159.904l1.65.903Z" fill="#aec3ff"/><path d="M313.953,186.443l.175-.903-1.65-.904-.175.904l1.65.903Z" fill="#aec3ff"/><path d="M306.401,186.443l.174-.903-1.65-.904-.158.904l1.634.903Z" fill="#aec3ff"/><path d="M132.598,236.45c-.011.032-.022.058-.032.08h-110.3528c0-.016-.0317-.048-.0317-.048-.0476-.143-12.77267-17.704-16.54893-41.796c2.7608-1.062,12.51883-4.343,26.24343-3.995.5501.011,1.1054.032,1.666.064c5.0615.237,10.6307.982,16.549,2.504.2115.053.4231.106.6346.159.0529.021.1111.037.1746.047.4231.116.8409.233,1.2534.349.476.137.952.28,1.428.428.1693.053.3385.105.5078.158.6346.19,1.2746.396,1.9198.618c7.4415,2.505,12.0746,5.199,15.2955,7.814.0635.053.1269.106.1904.159c1.5549,1.268,2.7608,2.536,3.8239,3.725.2856.327.5606.65.825.967.3279.391.6453.776.952,1.157c1.0472,1.268,2.0151,2.44,3.1416,3.471c3.1099,2.837,7.505,4.549,18.2943,4.121c1.9361-.085,3.7921-.106,5.5691-.064c23.229.476,32.051,10.43,28.497,20.082Z" fill="#a8d29f"/><path d="M423.291,198.458c0,0-.006,0-.016,0-4.221-.856-10.885-1.87-19.104-2.108-5.109-.159-10.821-.016-16.929.65-.212.021-.429.047-.651.079-.635.074-1.28.153-1.936.238-1.406.179-2.834.391-4.284.634-.433.074-.867.148-1.301.222-.465.084-.931.174-1.396.269-1.005.19-2.015.396-3.03.618-.455.106-.905.211-1.349.317-.455.106-.91.211-1.365.317-.55.138-1.1.28-1.65.428-.169.042-.338.085-.508.127h-.015c-.498.137-1.005.28-1.524.428-2.046.586-4.125,1.236-6.219,1.965-3.443,1.173-6.49,2.346-9.219,3.487-3.475,1.443-6.41,2.837-8.949,4.153-2.522,1.3-4.649,2.52-6.521,3.677-10.139,6.229-12.646,10.065-26.481,8.987-1.227-.095-2.407-.132-3.539-.111-3.712.048-6.87.65-9.567,1.569-5.411,1.839-8.933,4.993-11.075,7.624-1.761,2.156-2.586,3.963-2.777,4.406-.021.064-.032.096-.032.096h2.809h11.075h39.587h15.47h3.951h2.761h34.065h2.777h7.822h2.856c2.285-2.457,11.456-12.57,14.979-28.42.666-2.979,1.11-6.165,1.285-9.541v-.111Z" fill="#a8d29f"/><path d="M61.8008,132.728c0,0,2.6656-4.977,9.0122-4.422c0,0,9.2344-8.29,19.0876-1.11c0,0,10.4564-1.775,18.2154,1.538c5.156,2.219,6.87,4.533,6.87,4.533l-53.1852-.539Z" fill="#f8fcff"/><path d="M161.031,89.9011c0,0,2.205-4.7233,7.473-4.2003c0,0,7.648-7.8774,15.803-1.0461c0,0,8.663-1.6959,15.073,1.4582c4.284,2.1081,5.697,4.3112,5.697,4.3112l-44.046-.523Z" fill="#f8fcff"/><path d="M68.3376,235.769l6.2833-.08l14.6766-61.101-6.2832.079-14.6767,61.102Z" fill="#1d3f77"/><path d="M57.9609,237.132h28.1792c0-1.649-1.3328-2.996-2.9829-2.996h-22.2133c-1.6502,0-2.983,1.347-2.983,2.996Z" fill="#1d3f77"/><path d="M123.062,208.84l-2.713-13.568v-.016l-9.013-45.125-87.5518.016l11.7096,58.708l16.6282-.015h.1587h18.6116.0635h18.5322.127h18.485.174h14.788Z" fill="#1d3f77"/><path d="M124.553,207.682h-87.5519L25.2756,150.147l87.5684-.016l11.709,57.551Z" fill="#2a4e96"/><path d="M53.8038,207.682h-.1745L41.9355,150.29h.1746l11.6937,57.392Z" fill="#c0d8fb"/><path d="M72.463,207.682h-.1745L60.5947,150.29h.1746L72.463,207.682Z" fill="#c0d8fb"/><path d="M91.1222,207.682h-.1746L79.2539,150.29h.1745l11.6938,57.392Z" fill="#c0d8fb"/><path d="M109.781,207.682h-.174L97.9131,150.29h.1745l11.6934,57.392Z" fill="#c0d8fb"/><path d="M115.62,163.794h-87.5678l-.0317-.143l87.5685-.016.031.159Z" fill="#c0d8fb"/><path d="M118.73,179.089l-87.552.016-.0318-.159l87.5528-.016.031.159Z" fill="#c0d8fb"/><path d="M121.856,194.384l-87.5682.016-.0317-.158l87.5679-.016.032.158Z" fill="#c0d8fb"/><path d="M45.109,165.41l-2.1578-1.695l1.4597-1.681l2.142,1.681-1.4439,1.695Z" fill="#c0d8fb"/><path d="M48.2348,180.785l-2.142-1.68l1.4597-1.696l2.142,1.68-1.4597,1.696Z" fill="#c0d8fb"/><path d="M63.8476,165.41l-2.142-1.695l1.4438-1.696l2.1579,1.696-1.4597,1.695Z" fill="#c0d8fb"/><path d="M66.9733,180.785l-2.142-1.696l1.4597-1.68l2.142,1.68-1.4597,1.696Z" fill="#c0d8fb"/><path d="M82.5067,165.41l-2.142-1.695l1.4439-1.696l2.1579,1.696-1.4598,1.695Z" fill="#c0d8fb"/><path d="M100.991,165.41l-2.1416-1.695l1.4596-1.696l2.142,1.696-1.46,1.695Z" fill="#c0d8fb"/><path d="M51.3288,196.001l-2.142-1.68l1.4597-1.696l2.142,1.696-1.4597,1.68Z" fill="#c0d8fb"/><path d="M70.0832,196.001l-2.1579-1.68l1.4597-1.696l2.1579,1.696-1.4597,1.68Z" fill="#c0d8fb"/><path d="M88.7423,196.001l-2.1578-1.696l1.4597-1.68l2.1579,1.68-1.4598,1.696Z" fill="#c0d8fb"/><path d="M107.227,196.001l-2.142-1.696l1.46-1.68l2.142,1.68-1.46,1.696Z" fill="#c0d8fb"/><path d="M104.133,180.785l-2.158-1.696l1.46-1.696l2.158,1.696-1.46,1.696Z" fill="#c0d8fb"/><path d="M85.6325,180.785l-2.142-1.696l1.4597-1.696l2.142,1.696-1.4597,1.696Z" fill="#c0d8fb"/><path d="M159.492,236.197l4.3-.064l10.091-41.939-4.316.048-10.075,41.955Z" fill="#1d3f77"/><path d="M152.352,237.132h19.357c0-1.141-.92-2.061-2.047-2.061h-15.263c-1.127,0-2.047.92-2.047,2.061Z" fill="#1d3f77"/><path d="M197.048,217.7l-1.856-9.304v-.016l-6.188-30.987-60.119.016l8.06,40.306h11.408.111l12.773-.015h.048h12.725.079h12.693.127h10.139Z" fill="#1d3f77"/><path d="M198.079,216.907h-60.118l-8.045-39.498l60.119-.016l8.044,39.514Z" fill="#2a4e96"/><path d="M149.496,216.907h-.111l-8.029-39.403h.127l8.013,39.403Z" fill="#c0d8fb"/><path d="M162.316,216.907h-.111l-8.028-39.403h.111l8.028,39.403Z" fill="#c0d8fb"/><path d="M175.121,216.907h-.112l-8.028-39.403h.111l8.029,39.403Z" fill="#c0d8fb"/><path d="M187.941,216.907h-.127l-8.029-39.403h.127l8.029,39.403Z" fill="#c0d8fb"/><path d="M191.955,186.776h-60.119l-.032-.095l60.119-.016.032.111Z" fill="#c0d8fb"/><path d="M194.081,197.285h-60.119l-.015-.111h60.118l.016.111Z" fill="#c0d8fb"/><path d="M196.223,207.777l-60.119.016-.016-.111l60.119-.015.016.11Z" fill="#c0d8fb"/><path d="M143.53,187.886l-1.476-1.157l1-1.157l1.475,1.157-.999,1.157Z" fill="#c0d8fb"/><path d="M145.688,198.442l-1.476-1.157l1-1.157l1.475,1.157-.999,1.157Z" fill="#c0d8fb"/><path d="M156.398,187.886l-1.476-1.157l1-1.173l1.475,1.173-.999,1.157Z" fill="#c0d8fb"/><path d="M158.555,198.442l-1.475-1.157.999-1.157l1.476,1.157-1,1.157Z" fill="#c0d8fb"/><path d="M169.218,187.886l-1.476-1.157l1-1.173l1.476,1.173-1,1.157Z" fill="#c0d8fb"/><path d="M181.911,187.886l-1.475-1.157.999-1.173l1.476,1.173-1,1.157Z" fill="#c0d8fb"/><path d="M147.814,208.903l-1.476-1.173l1-1.157l1.475,1.157-.999,1.173Z" fill="#c0d8fb"/><path d="M160.682,208.887l-1.476-1.157l1-1.157l1.475,1.157-.999,1.157Z" fill="#c0d8fb"/><path d="M173.486,208.887l-1.476-1.157l1-1.157l1.476,1.157-1,1.157Z" fill="#c0d8fb"/><path d="M186.179,208.887l-1.459-1.157.999-1.157l1.476,1.157-1.016,1.157Z" fill="#c0d8fb"/><path d="M184.053,198.442l-1.475-1.157.999-1.173l1.476,1.173-1,1.157Z" fill="#c0d8fb"/><path d="M171.36,198.442l-1.476-1.157l1-1.173l1.475,1.173-.999,1.157Z" fill="#c0d8fb"/><path d="M251.074,222.09l1.428-.269c0,0-3.427-13.52-2.951-14.63.381-.919,4.316-1.601,6.251-3.217.413-.333.73-.713.905-1.157c1.031-2.505-.651-4.375-.651-4.375s-3.506.808-6.68,2.172c-2.269.966-4.363,2.234-4.95,3.693-1.396,3.534,6.648,17.783,6.648,17.783Z" fill="#e8945b"/><path d="M247.171,224.183c.032-.143.127-.27.254-.349.349-.19,1.047-.46,1.571-1.157.286-.381,1.507-1.538,1.507-1.538.032-.016.191-.016.952.301.397.159.81-.586.81-.586s.126.048.253.174c.096.095.175.254.191.444.016.301.317.761.539,1.062.127.19.238.317.238.317s.08.174-.587.428l-.809.206c-.286.032-.508.016-.793.048-.429.063-.587.269-.619.317l-3.443.887c-.111-.079-.095-.348-.064-.554Z" fill="#415da5"/><path d="M240.444,224.721c.349,0,.634-.285.634-.649c0-7.91-6.442-14.345-14.359-14.345-1.825,0-3.602.349-5.284,1.015-.333.126-.491.491-.365.824.127.317.508.491.826.349c1.539-.603,3.157-.904,4.823-.904c7.219,0,13.09,5.865,13.09,13.061c0,.364.286.649.635.649Z" fill="#2c3a64"/><path d="M228.893,224.072c0-1.173-.952-2.124-2.126-2.124s-2.126.951-2.126,2.124.952,2.124,2.126,2.124s2.126-.951,2.126-2.124Z" fill="#415da5"/><path d="M226.989,223.977l3.602-10.034-.27-.095-3.602,10.033.27.096Z" fill="#415da5"/><path d="M236.938,228.605l.111-.27-10.187-4.374-6.711-9.574-.238.175l6.759,9.637.032.015l10.234,4.391Z" fill="#415da5"/><path d="M230.813,235.135l.27-.079c-.08-.222-4.015-10.588-4.189-11.032l-.095-.269-6.363,10.033.254.158l6.045-9.542c1.444,3.789,4.014,10.572,4.078,10.731Z" fill="#415da5"/><path d="M226.782,223.501l11.313-1.949-.047-.286-11.313,1.95.047.285Z" fill="#415da5"/><path d="M225.91,223.327l.27-.095-3.317-9.938-.269.095l3.316,9.938Z" fill="#415da5"/><path d="M226.783,224.23l.047-.032l10.377-5.246-.127-.254-10.345,5.231-11.122-1.87-.048.285l11.218,1.886Z" fill="#415da5"/><path d="M222.578,234.786c.064-.19,2.713-6.736,4.205-10.397l5.775,9.05.238-.143-6.061-9.525-.111.253c-.174.428-4.252,10.445-4.332,10.667l.286.095Z" fill="#415da5"/><path d="M237.921,225.879l.032-.286-11.171-1.664-.047.285l11.186,1.665Z" fill="#415da5"/><path d="M227.449,222.582l6.204-7.117-.222-.19-6.204,7.117.222.19Z" fill="#415da5"/><path d="M227.116,235.325l.302-.031-.873-10.43-.286.016.857,10.445Z" fill="#415da5"/><path d="M217.469,230.459l9.885-6.847-.175-.222-9.869,6.831.159.238Z" fill="#415da5"/><path d="M234.954,231.807l.206-.191-8.25-8.321v-10.81h-.286v10.937l8.33,8.385Z" fill="#415da5"/><path d="M239.238,224.072c0,6.34-4.744,11.57-10.869,12.363h-.016c-.518.063-1.047.095-1.586.095-.524,0-1.063-.032-1.571-.095-.011,0-.016,0-.016,0-1.666-.206-3.284-.761-4.728-1.617-1.857-1.078-3.396-2.631-4.475-4.486-.021-.021-.037-.047-.047-.079-.508-.887-.905-1.838-1.174-2.821-.302-1.078-.461-2.219-.461-3.36c0-3.757,1.682-7.149,4.332-9.431c1.872-1.617,4.236-2.679,6.823-2.948.433-.053.872-.079,1.317-.079c1.428,0,2.808.253,4.077.697.635.211,1.238.475,1.809.792c1.333.714,2.507,1.665,3.491,2.79.264.296.513.602.746.919c1.475,2.045,2.348,4.549,2.348,7.26Zm-1.872,1.727c.01-.095.026-.19.047-.285.064-.476.095-.956.095-1.442c0-.809-.095-1.601-.269-2.362-.022-.095-.043-.19-.064-.285-.19-.729-.444-1.411-.777-2.077-.032-.084-.074-.169-.127-.253-.222-.423-.471-.824-.746-1.205-.286-.412-.603-.798-.952-1.157-.349-.38-.725-.729-1.127-1.046-.074-.063-.148-.122-.222-.174-.412-.317-.846-.597-1.301-.84-.433-.243-.888-.455-1.364-.634-.085-.032-.175-.064-.27-.096-.021-.01-.048-.021-.079-.031-1.032-.349-2.142-.555-3.301-.571-.052,0-.1,0-.142,0-.053,0-.101,0-.143,0-1.238.016-2.428.254-3.538.65-.085.032-.175.063-.27.095-.746.301-1.444.682-2.095,1.125-.074.053-.153.106-.238.159-2.205,1.601-3.792,4.01-4.299,6.784-.011.095-.027.19-.048.285-.074.539-.111,1.083-.111,1.633c0,.856.095,1.696.285,2.504.254,1.014.635,1.997,1.159,2.885.084.158.18.311.285.459.053.074.106.153.159.238.042.074.09.143.143.206.777,1.062,1.745,1.981,2.84,2.71.085.053.169.101.254.143.053.042.111.079.174.111.413.243.836.454,1.27.634.084.042.169.079.254.111c1.237.491,2.57.729,3.919.729.105,0,.211,0,.317,0c.095,0,.19-.005.286-.016c1.063-.047,2.094-.269,3.062-.618.095-.042.185-.079.27-.111.592-.232,1.158-.518,1.697-.856.085-.042.164-.09.238-.142.714-.476,1.365-1.015,1.936-1.617.063-.074.127-.148.19-.222.746-.824,1.349-1.759,1.809-2.774.043-.084.08-.174.111-.269.318-.745.556-1.554.683-2.378Z" clip-rule="evenodd" fill="#202e51" fill-rule="evenodd"/><path d="M250.852,226.005l7.331-22.903-1.238-.396-7.33,22.903l1.237.396Z" fill="#739cf3"/><path d="M251.471,226.069l17.295-1.506-32.083-21.667l1.841,3.756l26.481,16.944-13.645,1.173.111,1.3Z" fill="#739cf3"/><path d="M249.138,225.054l1.095-.697-13.312-21.303-1.555,1.601l13.772,20.399Z" fill="#739cf3"/><path d="M227.798,223.501l7.41-15.85-1-.396c-.634-.254-1.364.063-1.634.713l-5.982,15.042l1.206.491Z" fill="#415da5"/><path d="M235.208,207.651c1.079-2.774,2.856-7.148,2.84-7.101l-1.079-.713c-.063.079-.095.127-2.904,7.418l1.143.396Z" fill="#415da5"/><path d="M241.428,202.072c.428-.587.285-1.411-.302-1.839s-1.412-.285-1.825.301c-.428.587-.301,1.411.286,1.839.603.428,1.412.285,1.841-.301Z" fill="#415da5"/><path d="M236.445,198.632c.429-.586.286-1.41-.301-1.838s-1.412-.286-1.841.301c-.412.586-.285,1.411.302,1.839.603.412,1.412.285,1.84-.302Z" fill="#415da5"/><path d="M235.16,199.092l5.03,3.202.698-1.379-5.03-3.186-.698,1.363Z" fill="#415da5"/><path d="M243.442,229.112h2.809c.333,0,.603-.27.603-.587c0-.332-.27-.602-.603-.602h-2.809c-.333,0-.603.27-.603.602c0,.317.27.587.603.587Z" fill="#415da5"/><path d="M244.823,228.383l5.68-2.584-.206-.459-5.696,2.583.222.46Z" fill="#415da5"/><path d="M269.02,224.072c0-1.173-.952-2.124-2.126-2.124s-2.126.951-2.126,2.124.952,2.124,2.126,2.124s2.126-.951,2.126-2.124Z" fill="#415da5"/><path d="M267.116,223.977l3.618-10.034-.27-.095-3.618,10.033.27.096Z" fill="#415da5"/><path d="M277.064,228.605l.127-.27-10.202-4.374-6.711-9.574-.238.175l6.759,9.637.031.015l10.234,4.391Z" fill="#415da5"/><path d="M270.94,235.135l.27-.079c-.08-.222-4.015-10.588-4.189-11.032l-.095-.269-6.363,10.033.254.158l6.045-9.542c1.444,3.789,4.014,10.572,4.078,10.731Z" fill="#415da5"/><path d="M266.909,223.501l11.329-1.949-.047-.286-11.329,1.95.047.285Z" fill="#415da5"/><path d="M266.037,223.327l.27-.095-3.317-9.938-.269.095l3.316,9.938Z" fill="#415da5"/><path d="M266.91,224.23l.047-.032l10.377-5.246-.127-.254-10.345,5.231-11.123-1.87-.047.285l11.218,1.886Z" fill="#415da5"/><path d="M262.705,234.786c.063-.19,2.729-6.736,4.22-10.397l5.76,9.05.238-.143-6.061-9.525-.111.253c-.175.428-4.252,10.445-4.316,10.667l.27.095Z" fill="#415da5"/><path d="M278.048,225.879l.032-.286-11.171-1.664-.047.285l11.186,1.665Z" fill="#415da5"/><path d="M267.576,222.582l6.204-7.117-.222-.19-6.204,7.117.222.19Z" fill="#415da5"/><path d="M267.259,235.325l.285-.031-.872-10.43-.286.016.873,10.445Z" fill="#415da5"/><path d="M257.596,230.459l9.885-6.847-.175-.222-9.869,6.831.159.238Z" fill="#415da5"/><path d="M275.081,231.807l.206-.191-8.25-8.321v-10.81h-.286v10.937l8.33,8.385Z" fill="#415da5"/><path d="M279.365,224.072c0,6.324-4.744,11.57-10.853,12.363-.529.063-1.068.095-1.618.095s-1.09-.032-1.619-.095c-1.65-.222-3.253-.761-4.696-1.617-.096-.053-.191-.111-.286-.174-1.729-1.062-3.173-2.552-4.189-4.312-.809-1.394-1.348-2.932-1.571-4.533-.052-.422-.089-.85-.111-1.284c0-.148,0-.295,0-.443c0-2.251.603-4.375,1.651-6.198.264-.454.555-.887.872-1.299c1.206-1.601,2.777-2.885,4.602-3.757c1.618-.761,3.443-1.204,5.347-1.204c6.87,0,12.471,5.595,12.471,12.458Zm-1.872,1.727c.021-.095.037-.19.047-.285.064-.476.095-.956.095-1.442c0-.809-.095-1.601-.269-2.362-.022-.095-.043-.19-.064-.285-.19-.729-.444-1.411-.761-2.077-.043-.084-.09-.169-.143-.253-.698-1.316-1.65-2.489-2.825-3.408-.074-.063-.148-.122-.222-.174-.809-.619-1.697-1.11-2.649-1.474-.096-.032-.191-.064-.286-.096-1.063-.364-2.19-.586-3.38-.602-.053,0-.1,0-.142,0-.053,0-.101,0-.143,0-.487.011-.963.053-1.428.127-.73.106-1.428.28-2.095.523-.095.032-.19.063-.285.095-.73.301-1.444.682-2.095,1.125-.074.053-.153.106-.238.159-.841.618-1.602,1.347-2.237,2.171-.307.402-.587.825-.841,1.268-.571,1.031-.999,2.156-1.206,3.345-.021.095-.037.19-.047.285-.085.539-.127,1.083-.127,1.633c0,.095,0,.19,0,.285.01.433.047.866.111,1.3.206,1.331.65,2.631,1.333,3.804.095.158.19.311.285.459.053.074.106.153.159.238.793,1.157,1.809,2.14,2.983,2.901c0,.01,0,.015,0,.015.085.053.169.101.254.143.063.042.121.079.174.111.413.243.836.454,1.27.634.084.042.174.079.269.111c1.238.491,2.555.729,3.904.729.105,0,.211,0,.317,0c.095,0,.19-.005.286-.016c1.078-.047,2.11-.269,3.078-.618.084-.042.174-.079.269-.111.593-.232,1.153-.518,1.682-.856.085-.042.169-.09.254-.142.698-.476,1.349-1.015,1.92-1.617.074-.074.143-.148.206-.222.73-.824,1.333-1.759,1.793-2.774.042-.084.079-.174.111-.269.318-.745.556-1.554.683-2.378Z" clip-rule="evenodd" fill="#202e51" fill-rule="evenodd"/><path d="M256.723,211.297c.19.063.397.047.555-.064c5.839-3.519,13.915-2.187,16.248-1.712.127.032.254-.063.254-.19v-.46c0-.348-.254-.649-.603-.697-1.27-.19-4.221-.586-5.871-.602-.042,0-.085,0-.127,0-3.697,0-6.886.665-9.504,1.965-.54.27-1.158.301-1.73.111l-.714-.253c-.412-.143-.856.079-.999.475-.095.269.047.571.301.65l2.19.777Z" fill="#f99746"/><path d="M262.149,202.42c0,0,.238-1.061-.428-1.141-.667-.063-3.11.46-3.745.381-.65-.064-4.046-.634-4.633-.048-.603.571-.349,1.078.841,1.189s2.777.301,3.221.681c.46.381,3.713,1.49,4.744-1.062Z" fill="#f99746"/><path d="M253.486,225.799c0-1.791-1.46-3.233-3.253-3.233s-3.236,1.442-3.236,3.233s1.443,3.25,3.236,3.25s3.253-1.459,3.253-3.25Z" fill="#2c3a64"/><path d="M238.937,198.331c0,0-1.064-1.347-1.651-1.173-.999.285-1.079,1.205-1.063,1.395.032.19.016.919.46,1.078.445.158.905-.032,1.111-.206.206-.175,1.143-1.094,1.143-1.094Z" fill="#e8945b"/><path d="M237.127,197.253c0,0,.159.84,1.175,1.11c1.015.269,7.298-2.378,8.79-3.107.809-.396,1.967-2.631,2.856-4.581.206-.475.412-.935.587-1.347.444-1.046.746-1.791.746-1.791c0-1.03-1.143-.618-2.158-.158-.318.142-1.952-.539-2.396.285-.191.396-.46.349-.667.792-.793,1.744-1.523,3.725-1.666,4.185-.285.84-7.267,4.612-7.267,4.612Z" fill="#e8945b"/><path d="M239.714,199.124c0,0-1.047-1.332-1.634-1.189-1.381.348-1.206,1.347-1.175,1.537.032.19.127.777.572.935.444.159.904-.031,1.11-.206.207-.174,1.127-1.077,1.127-1.077Z" fill="#ffb27d"/><path d="M251.868,185.857l-3.586,1.316c-.46-.444-.92-1.157-1.285-1.791-.46-.809-.778-1.522-.778-1.522l2.507-1.743.794-.555c.047,1.601,2.348,4.295,2.348,4.295Z" fill="#ffb27d"/><path d="M249.694,182.418c0,0-.698,2.219-2.697,2.964-.46-.809-.778-1.522-.778-1.522l2.507-1.744.968.302Z" fill="#e8945b"/><path d="M245.093,183.812c0,0,4.426.698,4.823-2.076.381-2.758,1.222-4.533-1.602-5.088-2.809-.57-3.507.412-3.856,1.3-.365.888-.508,5.611.635,5.864Z" fill="#ffb27d"/><path d="M250.9,176.141c0,0-.191.032-.365.206c0-.602-.587-1.204-.587-1.204.27.348.19,1.014.19,1.014-.841-1.427-4.903-.301-5.283-.206-.381.079-.651-.491-.651-.491-.603.523-.841,1.806-.333,2.631.492.84,2.11,2.06,2.586,1.822.46-.221.46.254.429.936-.016.665,1.158,1.806,1.983,1.981.666.127.714-.333.904-.618.043-.074.096-.138.159-.191.904-.824,1.412-2.456,1.206-4.073-.079-.634-.349-1.173-.492-1.442.048-.095.175-.286.254-.365Z" fill="#2c3a64"/><path d="M249.376,200.614c.032.206.524,1.854,1.809,2.266.825.285,2.825.967,4.617,1.094.413-.333.73-.713.905-1.157c1.031-2.505-.651-4.375-.651-4.375s-3.506.808-6.68,2.172Z" fill="#2c3a64"/><path d="M259.436,194.797c0,0,3.602,4.121.302,8.781-3.301,4.644-8.68,8.384-8.965,10.048-.571,3.202-3.999,9.827-5.617,13.108l-1.396-.539c0,0,2.618-15.533,3.538-17.387.936-1.854,5.76-10.556,5.76-10.556l6.378-3.455Z" fill="#ffb27d"/><path d="M246.029,188.251c.333.11,1.174.412,1.396.792.238.38,2.697-.682,2.983-1.664-.698-.777-1.904-1.427-2.618-1.205-.413.111-1.079.999-1.761,2.077Z" fill="#5885d6"/><path d="M260.166,196.065c0,0-4.665,3.312-7.775,3.138c0,0-2.047,3.471-2.507,4.628c0,0,5.3,2.647,8.061,2.156c0,0,3.585-3.487,3.379-5.912-.206-2.441-1.158-4.01-1.158-4.01Z" fill="#35488b"/><path d="M247.377,189.82l1.111,1.585.095.206l2.317,5.294l1.19,2.71c.793.19,2.253.047,2.919-.19c3.602-1.221,5.157-3.36,5.157-3.36-2.094-5.453-4.982-9.178-5.569-9.843-1.032-1.11-3.713-2.029-3.713-2.029-.746.761-3.38,2.092-3.38,2.092-.571.46-.127,3.535-.127,3.535Z" fill="#739af0"/><path d="M248.583,191.611l2.317,5.294c1.761-3.551.651-8.718.651-8.718s-2.841,2.457-2.936,2.647c-.016.032-.032.317-.032.777Z" fill="#5885d6"/><path d="M237.921,198.03c0,0,.143.84,1.158,1.125c1.016.27,7.299-2.377,8.79-3.122.809-.396,1.968-2.631,2.856-4.581.222-.475.429-.935.603-1.347.444-1.03.73-1.775.73-1.775c0-1.03-2.412-2.425-3.443-1.966-.317.159-.73.793-1.158,1.617-.207.396-.413.824-.603,1.252-.794,1.76-1.523,3.725-1.682,4.201-.286.84-7.251,4.596-7.251,4.596Z" fill="#ffb27d"/><path d="M246.854,189.233c.936.428,2.618,1.252,3.871,2.219.223-.475.429-.935.603-1.347.445-1.03.73-1.775.73-1.775c0-1.03-2.411-2.425-3.443-1.966-.317.159-.73.793-1.158,1.617-.206.396-.413.824-.603,1.252Z" fill="#739af0"/><path d="M245.696,228.002h-.826c-.285-.047-.491-.111-.777-.142-.444-.048-.635.111-.682.142h-3.554c-.08-.111,0-.364.079-.554.063-.143.19-.238.333-.27.381-.095,1.127-.19,1.793-.729.397-.301,1.856-1.125,1.856-1.125.032,0,.191.047.857.539.333.253.921-.365.921-.365s.111.079.206.238c.063.111.111.285.063.475-.047.286.127.809.254,1.157.095.222.159.381.159.381s.032.174-.682.253Z" fill="#739cf3"/><path d="M245.902,225.736c-.206.127-.635.364-.905.396-.38.048-1.079-.808-1.079-.808.032,0,.191.047.857.539.333.253.921-.365.921-.365s.111.079.206.238Z" fill="#415da5"/><path d="M245.696,228.002h-.826c-.285-.047-.491-.111-.777-.142-.444-.048-.635.111-.682.142h-3.554c-.08-.111,0-.364.079-.554.111-.095.143.364.206.428.048.079,2.888.031,3.047-.08.174-.095.666-.285,1.348-.142.587.126,1.476-.19,1.682-.286.095.222.159.381.159.381s.032.174-.682.253Z" fill="#415da5"/><path d="M370.455,225.625c.302,0,.556-.254.556-.555c0-6.863-5.586-12.442-12.456-12.442-1.586,0-3.125.285-4.585.871-.286.111-.429.428-.318.714.112.285.429.428.714.317c1.333-.523,2.745-.793,4.189-.793c6.252,0,11.345,5.088,11.345,11.333c0,.301.254.555.555.555Z" fill="#2c3a64"/><path d="M380.451,198.791c0,0-.857,1.759-1.92,4.184-1.19,2.726-2.666,6.308-3.554,9.209-.46,1.537-.762,2.901-.762,3.836c0,.317,1.238,1.632,1.603,2.124c2.269,3.154,5.363,7.37,5.363,7.37l.841-.222c0,0-1.174-5.262-2.904-7.893-.333-.508-1.301-1.142-1.253-1.189c0-.011,0-.016,0-.016.158-.174.523-.65,1.031-1.315c1.396-1.839,3.824-5.183,5.458-8.306.095-.19.191-.38.286-.57.857-1.744,1.428-3.377,1.38-4.581l-5.569-2.631Z" fill="#e8945b"/><path d="M382.783,225.498l-.587.364c-.206.096-.396.127-.603.238-.333.143-.396.365-.412.412l-2.46,1.569c-.126-.047-.19-.301-.238-.475-.015-.143.016-.27.096-.365.222-.237.698-.634.904-1.363.111-.412.714-1.696.714-1.696h.016c.016-.016.143-.047.857.048.365.047.46-.698.46-.698s.127.016.254.096c.111.063.222.174.285.348.111.238.492.587.762.809.174.126.286.222.286.222s.126.11-.334.491Z" fill="#b84c42"/><path d="M381.784,223.628c-.079.19-.254.57-.428.713-.238.206-1.159-.159-1.159-.159h.016c.016-.016.143-.047.857.048.365.047.46-.698.46-.698s.127.016.254.096Z" fill="#aa3e39"/><path d="M382.783,225.498l-.587.364c-.206.096-.396.127-.603.238-.333.143-.396.365-.412.412l-2.46,1.569c-.127-.047-.19-.301-.238-.475.032-.127.286.222.365.254.08.031,2.031-1.253,2.095-1.411.047-.159.301-.523.857-.697.476-.175.92-.809,1.031-.967.174.126.285.222.285.222s.127.111-.333.491Z" fill="#aa3e39"/><path d="M379.737,227.051l6.632-20.732-1.126-.364-6.633,20.747l1.127.349Z" fill="#f99746"/><path d="M380.292,227.115l15.661-1.364-29.052-19.622l1.666,3.408l23.99,15.327-12.376,1.078.111,1.173Z" fill="#f99746"/><path d="M378.182,226.195l.984-.634-12.059-19.289-1.396,1.442l12.471,18.481Z" fill="#f99746"/><path d="M376.532,223.437l-2.205,1.284c-.254.143-.35.476-.207.745.159.254.492.349.746.19l2.205-1.268c.27-.158.35-.491.207-.745-.159-.253-.492-.348-.746-.206Z" fill="#415da5"/><path d="M376.088,224.262l2.792,3.075.254-.222-2.776-3.075-.27.222Z" fill="#415da5"/><path d="M385.052,213.737c.159.064.349.032.492-.047c5.284-3.202,12.598-1.997,14.709-1.554h.015c.112.032.223-.063.223-.174v-.428c0-.301-.238-.571-.54-.618-1.158-.174-3.824-.539-5.315-.539-.043,0-.085,0-.127,0-3.348,0-6.236.586-8.6,1.775-.492.238-1.047.27-1.555.095l-.65-.237c-.381-.127-.794.079-.921.443-.079.238.048.508.286.587l1.983.697Z" fill="#35488b"/><path d="M389.955,205.701c0,0,.222-.966-.38-1.03-.603-.063-2.809.412-3.396.349-.587-.064-3.665-.571-4.205-.048-.539.507-.301.967.778,1.062c1.079.111,2.507.286,2.919.634.413.333,3.364,1.347,4.284-.967Z" fill="#415da5"/><path d="M382.117,226.877c0-1.617-1.317-2.932-2.951-2.932-1.619,0-2.936,1.315-2.936,2.932s1.317,2.932,2.936,2.932c1.634,0,2.951-1.315,2.951-2.932Z" fill="#415da5"/><path d="M395.159,225.244l3.269-9.082-.254-.095-3.253,9.098.238.079Z" fill="#415da5"/><path d="M404.172,229.429l.095-.238-9.234-3.963-6.061-8.67-.222.159l6.108,8.717.048.016l9.266,3.979Z" fill="#415da5"/><path d="M398.619,235.356l.238-.079c-.064-.206-3.634-9.589-3.792-9.985l-.08-.254-5.759,9.098.222.143l5.474-8.654c1.301,3.439,3.633,9.573,3.697,9.731Z" fill="#415da5"/><path d="M394.969,224.816l10.25-1.759-.048-.269-10.25,1.759.048.269Z" fill="#415da5"/><path d="M394.176,224.658l.238-.08-2.999-9.002-.238.079l2.999,9.003Z" fill="#415da5"/><path d="M394.969,225.466l.048-.016l9.393-4.755-.111-.237-9.377,4.739-10.076-1.68-.032.253l10.155,1.696Z" fill="#415da5"/><path d="M391.161,235.024c.048-.159,2.459-6.087,3.808-9.399l5.22,8.194.222-.143-5.49-8.622-.095.238c-.158.38-3.855,9.462-3.919,9.652l.254.08Z" fill="#415da5"/><path d="M405.045,226.956l.047-.253-10.123-1.49-.031.253l10.107,1.49Z" fill="#415da5"/><path d="M395.572,223.992l5.617-6.467-.206-.174-5.617,6.467.206.174Z" fill="#415da5"/><path d="M395.271,235.515l.269-.016-.793-9.462-.254.032.778,9.446Z" fill="#415da5"/><path d="M386.544,231.109l8.933-6.182-.143-.222-8.949,6.198.159.206Z" fill="#415da5"/><path d="M402.363,232.345l.19-.19-7.473-7.529v-9.795h-.254v9.906l7.537,7.608Z" fill="#415da5"/><path d="M396.873,225.339c0-1.061-.857-1.933-1.92-1.933s-1.935.872-1.935,1.933c0,1.062.872,1.918,1.935,1.918s1.92-.856,1.92-1.918Z" fill="#2c3a64"/><path d="M406.25,225.339c0,2.425-.777,4.66-2.078,6.515-1.793,2.52-4.601,4.279-7.822,4.675-.022,0-.037,0-.048,0-.444.053-.894.08-1.349.08-.454,0-.904-.027-1.348-.08-.011,0-.022,0-.032,0-1.523-.19-3.015-.681-4.332-1.458-1.682-.982-3.078-2.393-4.062-4.073-.745-1.284-1.237-2.711-1.428-4.185-.052-.391-.084-.781-.095-1.172c0-.106,0-.207,0-.302c0-1.917.476-3.724,1.333-5.309.222-.412.465-.809.73-1.189c2.047-2.901,5.426-4.787,9.234-4.787c3.792,0,7.172,1.886,9.219,4.771c1.301,1.839,2.078,4.089,2.078,6.514Zm-1.666,1.284c.064-.422.096-.85.096-1.284c0-.745-.08-1.458-.238-2.155-.022-.085-.043-.169-.064-.254-.063-.243-.132-.475-.206-.697-.138-.402-.302-.793-.492-1.173-.032-.085-.069-.164-.111-.238-.635-1.189-1.507-2.251-2.57-3.091-.064-.052-.133-.105-.207-.158-.73-.555-1.523-.999-2.396-1.332-.084-.031-.169-.058-.253-.079-.952-.333-1.984-.523-3.063-.539-.042,0-.084,0-.127,0-.042,0-.084,0-.127,0-1.126.016-2.205.222-3.205.571-.084.032-.164.063-.238.095-.682.269-1.317.618-1.904,1.014-.074.053-.142.101-.206.143-.873.634-1.634,1.395-2.253,2.267-.264.369-.502.76-.714,1.173-.428.84-.746,1.743-.92,2.71-.021.084-.037.169-.048.253-.074.487-.111.983-.111,1.49c0,.053,0,.111,0,.175c0,.391.032.776.095,1.157.175,1.252.587,2.457,1.222,3.55.074.138.159.27.254.396.042.074.09.148.143.222.714,1.046,1.634,1.95,2.697,2.631.074.053.148.101.222.143.053.042.111.079.175.111.359.211.74.402,1.142.571.074.031.153.063.238.095c1.127.428,2.317.665,3.538.665.096,0,.191-.005.286-.015.085,0,.169,0,.254,0c.984-.064,1.904-.254,2.792-.571.074-.032.154-.063.238-.095.54-.211,1.053-.47,1.539-.777.074-.042.143-.09.207-.142.65-.412,1.237-.904,1.761-1.459.053-.063.111-.126.174-.19.667-.745,1.222-1.601,1.635-2.52.031-.074.063-.153.095-.238.084-.2.164-.401.238-.602.169-.507.296-1.025.381-1.553.01-.085.021-.175.031-.27Z" clip-rule="evenodd" fill="#202e51" fill-rule="evenodd"/><path d="M404.806,225.403c0,.422-.026.84-.079,1.252-.01.084-.021.169-.032.254-.105.697-.28,1.368-.523,2.012-.032.064-.058.127-.08.191-.031.084-.068.163-.111.237-.412.951-.967,1.823-1.634,2.6-.063.063-.122.127-.174.19-.524.571-1.127,1.078-1.777,1.522-.075.042-.149.089-.223.142-.486.307-1.005.576-1.555.809-.084.031-.169.063-.253.095-.889.333-1.841.539-2.841.602-.084.011-.174.016-.269.016-.127.01-.259.016-.397.016-1.253,0-2.459-.238-3.554-.666-.085-.032-.169-.063-.254-.095-.476-.201-.931-.433-1.364-.697-.075-.043-.149-.09-.223-.143-1.094-.713-2.046-1.633-2.792-2.71-.053-.074-.101-.148-.143-.222-.793-1.205-1.333-2.6-1.523-4.106-.053-.38-.085-.771-.095-1.172c0-.043,0-.085,0-.127c0-.55.042-1.083.127-1.601.021-.085.037-.169.047-.254.191-.998.54-1.949,1-2.821.211-.401.455-.787.73-1.157.634-.888,1.428-1.664,2.332-2.298.074-.053.143-.101.206-.143.619-.412,1.27-.745,1.968-1.014.084-.032.169-.064.254-.095c1.015-.349,2.11-.555,3.252-.555h.032c.074,0,.148,0,.222,0c2.174.047,4.173.792,5.792,2.029.074.052.142.105.206.158c1.063.84,1.951,1.918,2.586,3.123.042.074.085.153.127.237.138.275.264.566.381.872.127.328.232.671.317,1.03.021.085.042.169.064.254.174.713.253,1.458.253,2.235Zm-.476,1.189c.053-.391.08-.788.08-1.189c0-.745-.08-1.458-.238-2.156-.011-.01-.016-.016-.016-.016-.021-.084-.042-.169-.064-.253-.158-.618-.38-1.221-.666-1.791-.042-.074-.079-.154-.111-.238-.619-1.157-1.476-2.187-2.491-2.996-.074-.053-.143-.105-.206-.158-.714-.539-1.492-.967-2.317-1.284-.085-.042-.164-.074-.238-.095-.936-.333-1.936-.523-2.983-.555-.074,0-.148,0-.222,0h-.032c-1.094.016-2.158.206-3.125.539-.085.032-.17.063-.254.095-.651.254-1.285.571-1.857.967-.074.042-.148.09-.222.143-.857.602-1.602,1.347-2.221,2.203-.275.359-.518.739-.73,1.141-.428.824-.746,1.728-.936,2.663-.011.084-.027.174-.048.269-.074.497-.111,1.004-.111,1.522c0,.031,0,.063,0,.095c0,.401.027.792.08,1.173.19,1.426.698,2.758,1.443,3.915.053.074.106.142.159.206.714,1.046,1.618,1.933,2.682,2.615.074.042.148.09.222.143.412.253.846.475,1.301.665.074.032.153.064.238.095c1.063.397,2.205.634,3.411.634.127,0,.249-.005.365-.015.095,0,.185-.006.27-.016.952-.064,1.872-.27,2.729-.587.084-.031.169-.063.254-.095.518-.211,1.015-.47,1.491-.776.074-.043.148-.09.222-.143.619-.412,1.19-.904,1.698-1.458.063-.064.122-.127.175-.19.634-.73,1.174-1.57,1.554-2.473.043-.074.08-.153.112-.238.179-.454.327-.919.444-1.395.053-.232.095-.47.127-.713.01-.084.021-.169.031-.253Z" clip-rule="evenodd" fill="#b84c42" fill-rule="evenodd"/><path d="M358.333,225.244l3.253-9.082-.238-.095-3.269,9.098.254.079Z" fill="#415da5"/><path d="M367.345,229.429l.095-.238-9.234-3.963-6.077-8.67-.206.159l6.109,8.717.031.016l9.282,3.979Z" fill="#415da5"/><path d="M361.776,235.356l.254-.079c-.063-.206-3.633-9.589-3.792-9.985l-.095-.254-5.744,9.098.222.143l5.474-8.654c1.301,3.439,3.634,9.573,3.681,9.731Z" fill="#415da5"/><path d="M358.143,224.816l10.25-1.759-.048-.269-10.25,1.759.048.269Z" fill="#415da5"/><path d="M357.35,224.658l.238-.08-2.999-9.002-.254.079l3.015,9.003Z" fill="#415da5"/><path d="M358.143,225.466l.031-.016l9.409-4.755-.127-.237-9.361,4.739-10.075-1.68-.048.253l10.171,1.696Z" fill="#415da5"/><path d="M354.319,235.024c.064-.159,2.475-6.087,3.824-9.399l5.22,8.194.222-.143-5.49-8.622-.095.238c-.159.38-3.855,9.462-3.919,9.652l.238.08Z" fill="#415da5"/><path d="M368.218,226.956l.032-.253-10.107-1.49-.048.253l10.123,1.49Z" fill="#415da5"/><path d="M358.746,223.992l5.601-6.467-.191-.174-5.616,6.467.206.174Z" fill="#415da5"/><path d="M358.444,235.515l.27-.016-.794-9.462-.253.032.777,9.446Z" fill="#415da5"/><path d="M349.701,231.109l8.949-6.182-.143-.222-8.948,6.198.142.206Z" fill="#415da5"/><path d="M365.536,232.345l.191-.19-7.473-7.529v-9.795h-.27v9.906l7.552,7.608Z" fill="#415da5"/><path d="M360.047,225.339c0-1.061-.857-1.933-1.92-1.933-1.079,0-1.936.872-1.936,1.933c0,1.062.857,1.918,1.936,1.918c1.063,0,1.92-.856,1.92-1.918Z" fill="#2c3a64"/><path d="M369.408,225.339c0,5.738-4.316,10.509-9.901,11.19-.011,0-.021,0-.032,0-.444.053-.894.08-1.348.08-.455,0-.905-.027-1.349-.08-.011,0-.021,0-.032,0-1.38-.174-2.729-.586-3.951-1.252-.137-.063-.269-.132-.396-.206-1.666-.982-3.063-2.393-4.046-4.073-1-1.712-1.523-3.662-1.523-5.659c0-4.295,2.411-8.051,5.965-9.953.201-.106.402-.206.603-.302c1.444-.665,3.031-1.03,4.729-1.03c1.221,0,2.396.19,3.506.555.508.169,1,.37,1.476.602.317.159.624.328.92.507c3.221,1.982,5.379,5.548,5.379,9.621Zm-1.65,1.284c.053-.422.084-.85.095-1.284c0-.745-.095-1.458-.254-2.155-.011-.085-.026-.169-.048-.254-.169-.655-.402-1.278-.698-1.87-.042-.085-.084-.164-.127-.238-.618-1.189-1.491-2.251-2.554-3.091-.064-.052-.132-.105-.206-.158-.466-.349-.963-.655-1.492-.919-.296-.159-.598-.296-.904-.413-.085-.031-.17-.058-.254-.079-.085-.031-.175-.063-.27-.095-.873-.285-1.825-.428-2.792-.444-.043,0-.085,0-.127,0-.053,0-.101,0-.143,0-1.111.016-2.19.222-3.189.571-.085.032-.164.063-.238.095-.624.254-1.212.56-1.762.919-.052.032-.1.064-.142.095-.074.053-.148.101-.222.143-2,1.442-3.428,3.63-3.888,6.15-.01.084-.021.169-.032.253-.084.487-.126.983-.126,1.49c0,1.712.46,3.408,1.316,4.882.085.138.17.27.254.396.043.074.09.148.143.222.714,1.046,1.634,1.934,2.697,2.631c0,0,.006,0,.016,0c.074.053.148.101.222.143.053.042.106.079.159.111.37.211.751.402,1.143.571.084.031.169.063.253.095c1.111.428,2.317.665,3.539.665.095,0,.19-.005.285-.015.085,0,.169,0,.254,0c.968-.064,1.904-.254,2.777-.571.084-.032.169-.063.254-.095.529-.211,1.036-.47,1.523-.777.074-.042.148-.09.222-.142.635-.412,1.222-.904,1.745-1.459.064-.063.122-.126.175-.19.682-.745,1.222-1.601,1.634-2.52.042-.074.079-.153.111-.238.286-.681.492-1.41.619-2.155.011-.085.021-.175.032-.27Z" clip-rule="evenodd" fill="#1d2a4c" fill-rule="evenodd"/><path d="M367.98,225.403c0,.422-.027.84-.08,1.252-.01.084-.021.169-.031.254-.127.776-.333,1.505-.603,2.203-.032.084-.069.163-.111.237-.413.951-.968,1.823-1.65,2.6-.053.063-.111.127-.175.19-.524.571-1.111,1.078-1.761,1.522-.074.042-.148.089-.222.142-.497.307-1.021.576-1.571.809-.074.031-.153.063-.238.095-.889.333-1.856.539-2.84.602-.095.011-.185.016-.27.016-.127.01-.259.016-.397.016-1.253,0-2.459-.238-3.57-.666-.084-.032-.164-.063-.238-.095-.476-.201-.93-.433-1.364-.697-.021-.011-.042-.022-.064-.032-.052-.032-.105-.069-.158-.111-1.095-.713-2.063-1.633-2.809-2.71-.042-.074-.09-.148-.142-.222-1.016-1.554-1.603-3.408-1.603-5.405c0-.55.042-1.083.127-1.601.011-.085.026-.169.048-.254.491-2.583,1.983-4.818,4.061-6.276.064-.053.133-.101.207-.143.084-.063.174-.121.269-.174.529-.328,1.095-.608,1.698-.84.085-.032.164-.064.238-.095.778-.27,1.603-.444,2.459-.523.265-.022.529-.032.794-.032h.047c.074,0,.149,0,.223,0c.581.01,1.153.074,1.713.19.392.074.767.169,1.127.285h.016c.486.169.957.37,1.412.603.539.264,1.047.581,1.523.951.063.052.132.105.206.158c1.063.84,1.936,1.918,2.586,3.123.043.074.08.153.111.237.307.603.545,1.237.714,1.902.022.085.043.169.064.254.174.713.254,1.458.254,2.235Zm-.476,1.189c.053-.391.079-.788.079-1.189c0-.745-.095-1.474-.254-2.172-.021-.084-.042-.169-.063-.253-.159-.618-.397-1.221-.667-1.791-.042-.074-.084-.154-.127-.238-.618-1.157-1.459-2.187-2.491-2.996-.063-.053-.132-.105-.206-.158-.444-.338-.915-.634-1.412-.888-.296-.148-.592-.28-.889-.396-.084-.042-.169-.074-.253-.095-.085-.032-.175-.064-.27-.095-.857-.27-1.761-.428-2.697-.46-.074,0-.149,0-.223,0h-.047c-1.095.016-2.142.206-3.126.539-.074.032-.153.063-.238.095-.645.254-1.253.565-1.825.935-.01.011-.021.021-.031.032-.074.042-.148.09-.222.143-1.984,1.394-3.412,3.534-3.888,6.007-.021.084-.037.174-.047.269-.085.497-.127,1.004-.127,1.522c0,1.902.571,3.677,1.539,5.183.053.074.1.142.143.206.698,1.014,1.602,1.902,2.633,2.567.022.022.043.037.064.048.074.042.148.09.222.143.413.253.841.475,1.285.665.085.032.169.064.254.095c1.063.397,2.206.634,3.411.634.127,0,.249-.005.365-.015.085,0,.175-.006.27-.016.952-.064,1.872-.27,2.729-.587.085-.031.164-.063.238-.095.529-.211,1.031-.47,1.507-.776.064-.043.133-.09.207-.143.634-.412,1.206-.904,1.713-1.458.053-.064.111-.127.175-.19.635-.73,1.158-1.57,1.555-2.473.032-.074.063-.153.095-.238.27-.666.476-1.363.587-2.108.011-.084.021-.169.032-.253Z" clip-rule="evenodd" fill="#b84c42" fill-rule="evenodd"/><path d="M387.353,198.823c0,0,2.396,3.788-.555,5.864-2.952,2.092-12.9,3.075-12.408,3.487c1.491,1.236,2.84,3.122,2.777,14.503l-.746.38c0,0-7.077-15.406-6.601-17.245.302-1.22,10.647-7.798,17.533-6.989Z" fill="#ffb27d"/><path d="M381.625,206.7c0,0,6.029-.999,6.648-3.123.46-1.585.603-2.235-2.126-7.354c0,0-1.142,2.156-7.092,1.664c0,0,.031.27.031.65-.015.634-.111,1.537-.602,1.791-.016,0-.032,0-.032.016-.794.349-1.999,1.078-2.19,1.141c0,0,3.665.697,5.363,5.215Z" fill="#35488b"/><path d="M378.483,200.328c2.65-.776,5.236-.697,6.775-2.124-2.253-.586-4.966.333-6.172.333-.016.634-.111,1.538-.603,1.791Z" fill="#2c3a64"/><path d="M378.166,223.215l-.618.302c-.238.063-.413.079-.635.158-.349.111-.428.317-.444.365l-2.65,1.268c-.111-.064-.143-.317-.159-.508-.016-.126.032-.253.127-.332.254-.222.762-.555,1.047-1.253.159-.396.921-1.6.921-1.6.031-.016.158-.032.856.142.365.095.54-.634.54-.634s.111.032.238.127c.095.079.206.19.254.38.079.254.412.634.65.872.159.159.27.27.27.27s.095.126-.397.443Z" fill="#b84c42"/><path d="M377.389,221.25c-.095.174-.317.523-.508.65-.253.174-1.126-.285-1.126-.285.032-.016.159-.032.857.142.365.095.539-.634.539-.634s.111.032.238.127Z" fill="#aa3e39"/><path d="M378.166,223.215l-.619.302c-.238.063-.412.079-.634.158-.349.111-.429.317-.444.365l-2.65,1.268c-.111-.064-.143-.317-.159-.508.048-.111.254.27.317.302.08.047,2.158-.999,2.238-1.157.079-.143.38-.476.936-.603.508-.095,1.015-.681,1.142-.84.159.159.27.27.27.27s.095.126-.397.443Z" fill="#aa3e39"/><path d="M363.188,210.726c.159-.428.555-.698.984-.713c4.871-11.19,4.919-11.286,4.998-11.397l.698,1.395c.048-.063-11.027,24.79-11.027,24.79l-1.079-.444l5.426-13.631Z" fill="#35488b"/><path d="M374.802,200.281c.238-.777-.206-1.601-.983-1.839-.778-.222-1.603.222-1.841.999-.222.776.222,1.601,1,1.822.777.238,1.602-.206,1.824-.982Z" fill="#415da5"/><path d="M365.695,197.697c.238-.777-.206-1.585-.984-1.823-.777-.222-1.602.222-1.84.999-.222.776.222,1.585.999,1.823.778.237,1.603-.206,1.825-.999Z" fill="#415da5"/><path d="M364.6,198.696l8.568,2.139.143-1.727-8.568-2.14-.143,1.728Z" fill="#415da5"/><path d="M372.962,196.984c0,0-.793.539-1.365.507-.571-.016-1.301.206-1.301.206s-.761.238-.825,1.141c0,0,0,.254,1.19-.111.27-.079.889.064,1.111,0c.206-.079.857-.776,1.428-.76l-.238-.983Z" fill="#ffb27d"/><path d="M368.662,195.969c0,0-.809.524-1.38.508-.571-.032-1.301.206-1.301.206s-.762.222-.825,1.125c0,0,.016.38,1.19-.111.333-.127.888.079,1.11,0c.207-.063,1-.666,1.539-.808l-.333-.92Z" fill="#e8945b"/><path d="M378.817,174.334c1.174.206,1.729.84,2.475,2.663.777,1.886-.175,3.63-.92,3.392-.476-.143-.651.681-.651.681l-4.585-3.994c0,0,.666-2.932,3.681-2.742Z" fill="#2c3a64"/><path d="M376.135,185.239c0,0,1.603.887,1.412,3.17-.19,2.266-2.284,5.849-3.871,6.736-1.253.713-4.887,1.807-4.887,1.807l-.127-.983c0,0,2.951-1.933,3.586-2.599c1.38-1.411,2.681-8.686,3.887-8.131Z" fill="#e8945b"/><path d="M376.294,190.343c.063.523.206.951.381,1.379.127.348.285.681.46,1.03.476,1.03,1.618,1.537,1.666,3.503.016.681,5.743-2.187,5.791-4.565c0,0,0-.005,0-.016c0-.111.016-.428.032-.824.047-.999.111-2.599.127-3.392c0-.021,0-.042,0-.063.016-.333.016-.587.031-.65-.761-3.265-2.538-3.281-3.141-3.281-.074.01-.154.016-.238.016-.333.016-.651-.143-.841-.412-.333-.476-.714-1.316-.952-2.441l-.127.063-2.317.983c0,0,.207.745.365,1.474.064.301.111.602.143.824.016.238-.111.444-.333.523-.032.095-1.412,3.249-1.047,5.849Z" fill="#ffb27d"/><path d="M376.675,191.722c.127.348.285.681.46,1.03.476,1.03,1.618,1.537,1.666,3.503.032,0,.069.005.111.016c4.236.317,5.68-4.597,5.68-4.597c0-.111.016-.428.032-.824h-7.648c0,0-.158.349-.301.872Z" fill="#e8945b"/><path d="M375.596,189.392c.021.063.042.126.063.19.746,1.743,2.364,10.746,2.364,10.746.016-.016,6.633.428,9.251-3.186.127.396-.492-1.807-1.46-4.771-.73-2.219-1.095-3.788-1.063-4.913c0-.021,0-.042,0-.064-.169-.126-.333-.253-.492-.38-.476-.38-.841-.697-.857-1.109c0-.159.011-.317.032-.476.011-.074.026-.148.048-.222.142-.792.507-1.506.507-1.506-.825-.38-2.348-.237-2.348-.237s-.571,1.268-1.777,2.028c-.333.207-1.539.745-2.142.191-.397-.365-.397-1.11-.381-1.189-1.364.475-1.872.903-1.872.903.793.555-.444,2.299.127,3.995Z" fill="#739af0"/><path d="M377.167,181.673c0,0,.206.745.364,1.474c1.349-.333,1.793-1.712,1.952-2.457l-2.316.983Z" fill="#e8945b"/><path d="M376.85,182.449c0,0,3.22-.618,2.792-2.615-.412-1.981-.27-3.408-2.348-3.091-2.063.302-2.301,1.142-2.317,1.839-.031.697,1.032,3.978,1.873,3.867Z" fill="#ffb27d"/><path d="M374.834,177.457c.365-.698.762-.65,1.016-.508c1.555-1.331,2.967-.142,2.967-.142.524,1.379,1.729,1.981,1.729,1.981s-.507.491-1.935.428c-.429-.032-.857-.238-1.238-.523.73.792,1.603,1.3,1.603,1.3-1.762-.412-2.872-2.505-2.983-2.727-.159.207-.46.666-.508,1.062-.048.555.095,1.601-.206,1.633c0,0-1-1.442-.445-2.504Z" fill="#2c3a64"/><path d="M372.962,196.984l.238.982c0,0,5.395-.729,7.156-1.759c1.761-1.014,4.427-7.037,4.633-9.589.01-.127.016-.254.016-.381.063-2.203-1.016-2.536-1.016-2.536-.428-.206-.968.539-1.539,1.696-1.206,2.441-2.538,6.705-3.332,7.973-.619.983-6.156,3.614-6.156,3.614Z" fill="#ffb27d"/><path d="M382.45,185.397c1.476-.348,2.555.84,2.555.84.063-2.203-1.016-2.536-1.016-2.536-.428-.206-.968.539-1.539,1.696Z" fill="#739af0"/><path d="M375.469,185.397c0,0-.54.508-.746,1.633c0,0,.809.016,1.174.793c0,0,.302-2.299-.428-2.426Z" fill="#739af0"/><path d="M378.595,175.047c0,0,1.777-2.203,4.014-1.585c2.237.619,3.507,3.202,4.554,2.774c1.745-.713,2.237,1.633,1.539,3.329-.619,1.49-3.253,2.06-4.839.428-1.159-1.189-2.761-6.261-4.729-4.565-1.967,1.696-.539-.381-.539-.381Z" fill="#2c3a64"/><path d="M431.605,237.021v.174c0,.27-.222.492-.492.492h-430.621132C0.222134,237.687,0,237.465,0,237.195v-.174c0-.27.222134-.491.491868-.491h430.621132c.27,0,.492.221.492.491Z" fill="#233862"/><path d="M132.566,208.84l1.507-1.157-2.713-.016l1.206,1.173Z" fill="#1d3f77"/><path d="M206.568,217.7l1.032-.793h-3.428l2.396.793Z" fill="#1d3f77"/></svg>
