<svg width="432" height="239" viewBox="0 0 432 239" fill="none" xmlns="http://www.w3.org/2000/svg">
<path d="M423.291 199.342V199.453C423.116 202.829 422.672 206.015 422.006 208.995C418.483 224.845 409.312 234.957 407.028 237.414C406.71 237.747 406.52 237.937 406.504 237.984C396.571 237.984 332.343 238 259.166 237.984C239.428 237.984 219.055 237.969 198.92 237.953C189.765 237.953 180.674 237.953 171.709 237.937C165.172 237.937 158.714 237.937 152.352 237.921C128.234 237.905 105.561 237.873 86.1402 237.842C75.7316 237.826 66.2434 237.81 57.961 237.778C35.8904 237.715 22.2927 237.636 22.261 237.541L22.2292 237.461C22.2292 237.461 22.2134 237.445 22.2134 237.414C22.2134 237.398 22.1816 237.366 22.1816 237.366C22.134 237.224 9.40896 219.662 5.63269 195.57C4.76002 189.991 4.36336 184.047 4.71242 177.897V177.802C6.04522 155.105 17.5486 129.539 52.6932 107.824C86.2988 87.0607 50.583 73.3504 77.2866 50.2253C107.989 23.6924 141.515 53.0624 175.66 41.0164C181.673 38.8767 187.75 35.4689 193.811 30.2226C197.223 27.2745 200.951 24.6751 204.95 22.4719C205.569 22.1074 206.172 21.7745 206.806 21.4575C209.202 20.2054 211.693 19.08 214.264 18.0656C215.961 17.3999 217.722 16.7659 219.5 16.1953C222.34 15.2602 225.259 14.4677 228.21 13.8178C232.431 12.851 236.778 12.1536 241.205 11.6781C243.13 11.4562 245.082 11.2871 247.06 11.1709C283.188 8.88847 323.632 20.9186 346.623 39.0035C347.903 39.9967 349.125 41.0164 350.288 42.0625C350.78 42.4905 351.447 43.1086 352.224 43.917C357.587 49.4486 368.519 63.5076 364.013 82.5276C363.632 84.1443 363.125 85.8085 362.506 87.5045C361.617 89.9137 360.475 92.418 359.031 94.9698C356.794 98.9323 357.127 102.831 359.142 106.762L359.174 106.794C359.28 107.005 359.396 107.217 359.523 107.428C359.946 108.168 360.422 108.913 360.951 109.663C361.258 110.085 361.585 110.513 361.935 110.947C362.009 111.052 362.093 111.158 362.188 111.264C362.358 111.475 362.532 111.686 362.712 111.898C362.712 111.898 362.712 111.903 362.712 111.913C362.86 112.083 363.008 112.252 363.156 112.421C363.315 112.59 363.468 112.759 363.616 112.928C363.775 113.097 363.934 113.271 364.092 113.451C364.251 113.62 364.415 113.789 364.584 113.958C364.743 114.127 364.907 114.302 365.076 114.481C365.245 114.65 365.42 114.819 365.6 114.988C368.503 117.873 369.297 121.503 370.058 125.735C370.344 127.399 370.629 129.142 371.026 130.981C371.047 131.055 371.068 131.134 371.09 131.219C371.423 132.756 371.867 134.357 372.454 136.021C372.475 136.095 372.502 136.175 372.533 136.259C373.057 137.701 373.692 139.175 374.501 140.697C374.575 140.834 374.654 140.977 374.739 141.125C374.792 141.231 374.855 141.342 374.929 141.458C374.972 141.542 375.014 141.622 375.056 141.696C375.141 141.844 375.226 141.986 375.31 142.124C375.342 142.176 375.379 142.235 375.421 142.298C375.992 143.259 376.648 144.237 377.389 145.23C377.706 145.663 378.039 146.102 378.388 146.546C380.292 148.892 382.672 151.301 385.687 153.789C389.638 157.054 394.699 160.43 401.189 163.886C402.215 164.435 403.209 164.99 404.172 165.55C413.184 170.875 418.832 176.788 420.848 183.445C421.133 184.396 421.609 186.234 422.085 188.437C422.783 191.829 423.465 196.093 423.291 199.342Z" fill="#EBF3FA"/>
<path d="M423.275 199.342C423.286 199.374 423.291 199.411 423.291 199.453C423.116 202.829 422.672 206.015 422.006 208.995L404.172 211.8L400.491 212.371L398.396 212.704L383.878 214.97L382.577 215.176L379.658 215.636L378.912 215.763H378.896C378.896 215.763 378.277 215.826 377.198 215.937C377.103 215.937 377.008 215.942 376.913 215.953C376.183 216.032 375.294 216.096 374.263 216.175C373.882 216.206 373.48 216.238 373.057 216.27C372.972 216.27 372.893 216.275 372.819 216.286C372.227 216.328 371.608 216.365 370.963 216.397C369.646 216.46 368.202 216.523 366.71 216.571C366.139 216.582 365.552 216.592 364.949 216.603C364.642 216.603 364.336 216.603 364.029 216.603C363.648 216.603 363.267 216.603 362.887 216.603C362.326 216.603 361.765 216.592 361.205 216.571C360.792 216.56 360.38 216.55 359.967 216.539C359.396 216.518 358.825 216.492 358.254 216.46C358.158 216.45 358.068 216.444 357.984 216.444C357.719 216.423 357.455 216.402 357.19 216.381C355.889 216.286 354.604 216.143 353.398 215.969C353.197 215.937 352.996 215.905 352.795 215.874C348.226 215.129 344.656 213.702 343.847 211.166C343.101 208.836 344.703 205.508 350.019 200.895C350.907 200.135 351.833 199.4 352.795 198.692C358.967 194.159 366.568 190.957 374.517 188.675C374.855 188.58 375.189 188.49 375.516 188.406C375.569 188.395 375.622 188.379 375.675 188.358C375.76 188.337 375.85 188.316 375.945 188.295C376.125 188.242 376.299 188.194 376.468 188.152C376.786 188.067 377.103 187.983 377.42 187.898C379.007 187.497 380.604 187.127 382.212 186.789C382.614 186.704 383.016 186.62 383.418 186.535C383.608 186.504 383.799 186.467 383.989 186.424C384.116 186.403 384.243 186.377 384.37 186.345C384.571 186.313 384.772 186.276 384.973 186.234C391.637 184.982 398.237 184.253 404.172 183.857C410.851 183.413 416.69 183.381 420.848 183.445C421.324 184.602 421.736 186.377 422.085 188.437C422.625 191.702 423.005 195.712 423.275 199.342Z" fill="#A8D29F"/>
<path d="M223.038 49.5279C223.038 49.5279 228.178 38.9243 240.443 40.0972C240.443 40.0972 258.262 22.4244 277.254 37.7355C277.254 37.7355 297.436 33.9474 312.399 41.0323C322.363 45.7398 325.663 50.7008 325.663 50.7008L223.038 49.5279Z" fill="#F8FCFF"/>
<path d="M205.077 143.836C205.077 143.836 212.01 131.837 228.575 133.168C228.575 133.168 252.613 113.166 278.27 130.506C278.27 130.506 305.529 126.21 325.711 134.215C339.182 139.556 343.624 145.167 343.624 145.167L205.077 143.836Z" fill="#F8FCFF"/>
<path d="M319.221 90.8965C319.221 90.8965 313.985 81.9254 301.483 84.1444C288.964 86.3634 292.296 100.803 285.378 107.602C278.444 114.386 272.415 120.425 275.382 130.014C278.349 139.604 262.577 141.664 262.609 156.135C262.657 170.622 266.036 179.149 285.441 180.275C304.846 181.4 335.881 176.28 340.086 170.448C344.291 164.599 343.593 151.776 333.025 135.419C322.474 119.062 332.121 117.588 325.06 108.11C318.016 98.6313 322.982 94.7956 319.221 90.8965Z" fill="#79B27F"/>
<path d="M83.3318 75.9183C83.3318 75.9183 87.9014 68.025 98.7859 68.9126C98.7859 68.9126 114.605 55.7571 131.471 67.1532C131.471 67.1532 149.385 64.3319 162.665 69.5941C171.519 73.1128 174.438 76.79 174.438 76.79L83.3318 75.9183Z" fill="#F8FCFF"/>
<path d="M229.004 211.626H225.323L226.116 107.333H227.988L229.004 211.626Z" fill="#739AF0"/>
<path d="M226.83 107.888L200.047 130.791L189.638 139.683L188.845 138.89L198.063 128.683L213.169 111.961L225.084 105.716L226.83 107.888Z" fill="#7FAAF7"/>
<path d="M200.047 130.791L189.638 139.683L188.845 138.89L198.063 128.683L200.047 130.791Z" fill="#F99746"/>
<path d="M228.639 106.334L226.037 107.269L212.899 73.8259L208.155 61.7323L209.17 61.2568L215.533 72.8273L226.655 93.0361L228.639 106.334Z" fill="#7FAAF7"/>
<path d="M215.533 72.8273L212.899 73.8259L208.155 61.7323L209.17 61.2568L215.533 72.8273Z" fill="#F99746"/>
<path d="M275.985 108.141L258.516 109.362L239.777 110.645L226.846 106.857L227.1 104.099L257.722 105.938L275.969 107.032L275.985 108.141Z" fill="#7FAAF7"/>
<path d="M275.985 108.141L257.897 109.393L257.722 105.938L275.969 107.032L275.985 108.141Z" fill="#F99746"/>
<path d="M226.988 103.751C225.671 103.671 224.529 104.686 224.45 106.001C224.37 107.333 225.386 108.474 226.703 108.553C228.036 108.632 229.162 107.618 229.241 106.287C229.321 104.971 228.321 103.83 226.988 103.751Z" fill="#2B478B"/>
<path d="M103.768 237.335H194.874L232.843 237.319H301.53C301.53 237.319 301.567 237.25 301.641 237.113C301.694 237.007 301.768 236.875 301.863 236.716L301.911 236.653C301.911 236.653 301.911 236.653 301.911 236.637C301.911 236.637 301.943 236.605 301.943 236.59C302.101 236.384 302.212 236.162 302.355 235.876C302.434 235.75 302.514 235.607 302.625 235.448C302.625 235.433 302.625 235.433 302.625 235.401C302.657 235.369 302.657 235.369 302.657 235.369C303.18 234.482 303.831 233.309 304.576 231.898C304.64 231.771 304.709 231.639 304.783 231.502C305.148 230.44 305.56 229.235 305.989 227.92C307.02 224.734 308.21 220.819 309.368 216.413C309.828 214.685 310.273 212.862 310.701 210.976C310.955 209.882 311.209 208.757 311.447 207.6C311.521 207.272 311.595 206.94 311.669 206.601C312.113 204.446 312.526 202.243 312.906 199.976C313.652 195.554 314.239 190.942 314.557 186.266C285.06 187.787 228.194 191.782 185.434 201.323C125.077 214.796 110.162 216.967 84.5851 219.392C70.2892 220.74 86.616 229.711 103.768 237.335Z" fill="#D4DFFF"/>
<path d="M142.134 222.753C142.134 222.753 239.888 193.018 264.497 190.862C289.106 188.707 265.529 193.747 265.529 193.747C265.529 193.747 198.635 211.134 183.085 218.536C150.194 234.212 142.134 222.753 142.134 222.753Z" fill="#D4DFFF"/>
<path d="M171.661 236.494C171.661 236.494 253.121 199.104 275.16 193.034C297.214 186.963 276.588 195.459 276.588 195.459C276.588 195.459 212.264 228.966 198.793 237.414C196.842 238.65 171.661 236.494 171.661 236.494Z" fill="#D4DFFF"/>
<path opacity="0.5" d="M192.986 117.54L179.896 119.22L166.806 120.932L158.746 119.078C158.556 119.442 158.206 119.696 157.826 119.839L158.413 194.286C157.572 194.698 156.747 195.253 156.001 195.966L156.461 120.282L138.849 137.274L131.677 144.168L131.074 143.645L137.326 135.831L147.56 123.04L155.493 118.254C155.477 118.238 155.477 118.238 155.477 118.206C155.477 117.826 155.62 117.493 155.811 117.192L145.704 95.3503L141.737 86.7913L142.435 86.3792L147.56 94.5102L156.509 108.696L158.206 116.716H192.939L192.986 117.54Z" fill="#AEC3FF"/>
<path d="M341.102 207.331H336.405L337.42 61.2095H339.8L341.102 207.331Z" fill="#739AF0"/>
<path d="M337.817 56.5495L357.936 16.4648L365.758 0.884277L367.075 1.43903L361.3 17.9547L351.843 45.0265L340.911 58.2454L337.817 56.5495Z" fill="#83AFFC"/>
<path d="M357.936 16.4648L365.758 0.884277L367.075 1.43903L361.3 17.9547L357.936 16.4648Z" fill="#F99746"/>
<path d="M336.437 59.2598L339.055 56.8823L370.978 89.676L382.514 101.532L381.562 102.594L368.376 92.1486L345.354 73.9052L336.437 59.2598Z" fill="#83AFFC"/>
<path d="M368.376 92.1486L370.979 89.676L382.514 101.532L381.562 102.594L368.376 92.1486Z" fill="#F99746"/>
<path d="M279.967 80.4672L299.88 70.4342L321.236 59.6879L338.293 57.77L339.34 61.1302L302.514 74.0638L280.523 81.7669L279.967 80.4672Z" fill="#83AFFC"/>
<path d="M279.967 80.4672L300.594 70.0854L302.514 74.0638L280.523 81.7669L279.967 80.4672Z" fill="#F99746"/>
<path d="M339.658 61.4788C341.244 60.9241 342.085 59.1806 341.53 57.5956C340.974 55.9947 339.213 55.1547 337.627 55.7094C336.024 56.28 335.199 58.0235 335.754 59.6085C336.31 61.2094 338.055 62.0494 339.658 61.4788Z" fill="#2B478B"/>
<path d="M269.591 215.351C269.591 215.351 249.916 209.518 238.397 216.666C226.877 223.83 233.7 232.072 220.071 231.359C206.441 230.63 199.634 229.948 198.905 238H259.15L269.591 215.351Z" fill="#A8D29F"/>
<path d="M352.795 145.246V237.858H286.663V145.246H352.795Z" fill="#F9DDBF"/>
<path d="M404.172 147.703V237.842H352.795V145.23H401.935C402.696 146.039 403.442 146.863 404.172 147.703Z" fill="#FFF3E9"/>
<path d="M365.6 114.988L360.364 125.735L358.063 130.474L357.984 130.664L357.889 130.823L357.825 130.965L357.698 131.219L357.651 131.33L355.366 136.021L355.239 136.259L354.953 136.893L350.891 145.23L349.955 147.18L348.622 149.874L347.924 151.317H282.109L286.663 145.42L286.806 145.23L316.413 106.952L316.429 106.937H319.031L359.174 106.794C360.586 109.504 362.823 112.246 365.6 114.988Z" fill="#ED9F4A"/>
<path d="M352.795 150.873V158.576L286.663 161.365V151.317H284.711L319.031 106.921L352.795 150.873Z" fill="#F9DDBF"/>
<path d="M319.618 129.047H318.238C313.541 129.047 309.733 132.851 309.733 137.543V159.115H327.853V137.258C327.853 132.725 324.156 129.047 319.618 129.047Z" fill="#EFCDAF"/>
<path d="M410.201 153.789H351.574L348.622 149.874L345.132 145.23L317.667 108.664L316.397 106.952L316.254 106.762H374.866L375.009 106.952L376.294 108.664L403.743 145.23L407.234 149.874L410.201 153.789Z" fill="#F99746"/>
<path d="M311.859 163.759L296.421 195.49H249.567L274.002 163.886L311.859 163.759Z" fill="#ED9F4A"/>
<path d="M313.256 163.759L297.833 195.49H250.979L275.398 163.886L313.256 163.759Z" fill="#F9DDBF"/>
<path d="M297.738 195.49V237.762L250.979 237.858V195.49H297.738Z" fill="#F9DDBF"/>
<path d="M337.325 195.49V237.762H297.738V195.49H337.325Z" fill="#FFF3E9"/>
<path d="M341.673 197.361H299.134L274.001 163.885H286.663H315.794L341.673 197.361Z" fill="#F99746"/>
<path d="M271.796 181.495C271.796 180.274 272.78 179.276 274.002 179.276C275.223 179.276 276.207 180.274 276.207 181.495C276.207 182.715 275.223 183.698 274.002 183.698C272.78 183.698 271.796 182.715 271.796 181.495Z" fill="#EFCDAF"/>
<path d="M341.673 197.361H333.597L286.663 163.885H315.794L341.673 197.361Z" fill="#E88338"/>
<path d="M362.823 146.546H395.001L378.024 125.735H345.846L362.823 146.546Z" fill="#2B478B"/>
<path d="M350.225 131.219H382.403L382.212 130.981H350.035L350.225 131.219Z" fill="#AEC3FF"/>
<path d="M370.471 125.735L387.432 146.546H387.686L370.709 125.735H370.471Z" fill="#AEC3FF"/>
<path d="M361.935 125.735L378.912 146.546H379.15L362.188 125.735H361.935Z" fill="#AEC3FF"/>
<path d="M353.732 125.735L370.709 146.546H370.947L353.97 125.735H353.732Z" fill="#AEC3FF"/>
<path d="M354.43 136.259H386.623L386.417 136.021H354.239L354.43 136.259Z" fill="#AEC3FF"/>
<path d="M358.872 141.696H391.05L390.859 141.458H358.682L358.872 141.696Z" fill="#AEC3FF"/>
<path d="M375.818 132.122L376.008 131.108L374.184 130.109L373.993 131.108L375.818 132.122Z" fill="#AEC3FF"/>
<path d="M367.377 132.122L367.567 131.108L365.743 130.109L365.568 131.108L367.377 132.122Z" fill="#AEC3FF"/>
<path d="M359.063 132.122L359.237 131.108L357.428 130.109L357.238 131.108L359.063 132.122Z" fill="#AEC3FF"/>
<path d="M379.927 137.147L380.102 136.132L378.293 135.134L378.103 136.132L379.927 137.147Z" fill="#AEC3FF"/>
<path d="M371.487 137.147L371.677 136.132L369.852 135.134L369.662 136.132L371.487 137.147Z" fill="#AEC3FF"/>
<path d="M363.156 137.147L363.347 136.132L361.522 135.134L361.348 136.132L363.156 137.147Z" fill="#AEC3FF"/>
<path d="M384.37 142.583L384.545 141.585L382.72 140.57L382.545 141.585L384.37 142.583Z" fill="#AEC3FF"/>
<path d="M375.929 142.583L376.12 141.585L374.295 140.57L374.104 141.585L375.929 142.583Z" fill="#AEC3FF"/>
<path d="M367.599 142.583L367.789 141.585L365.965 140.57L365.774 141.585L367.599 142.583Z" fill="#AEC3FF"/>
<path d="M302.085 190.91H331.233L315.858 172.064H286.695L302.085 190.91Z" fill="#2B478B"/>
<path d="M290.662 177.025H319.825L319.65 176.803H290.487L290.662 177.025Z" fill="#AEC3FF"/>
<path d="M309.003 172.064L324.378 190.91H324.6L309.226 172.064H309.003Z" fill="#AEC3FF"/>
<path d="M301.276 172.064L316.651 190.91H316.873L301.499 172.064H301.276Z" fill="#AEC3FF"/>
<path d="M293.835 172.064L309.226 190.91H309.448L294.057 172.064H293.835Z" fill="#AEC3FF"/>
<path d="M294.486 181.606H323.633L323.458 181.384H294.295L294.486 181.606Z" fill="#AEC3FF"/>
<path d="M298.5 186.535H327.663L327.488 186.313H298.325L298.5 186.535Z" fill="#AEC3FF"/>
<path d="M313.859 177.849L314.017 176.93L312.367 176.027L312.208 176.93L313.859 177.849Z" fill="#AEC3FF"/>
<path d="M306.211 177.849L306.385 176.93L304.735 176.027L304.561 176.93L306.211 177.849Z" fill="#AEC3FF"/>
<path d="M298.674 177.849L298.833 176.93L297.183 176.027L297.024 176.93L298.674 177.849Z" fill="#AEC3FF"/>
<path d="M317.572 182.398L317.746 181.495L316.096 180.592L315.921 181.495L317.572 182.398Z" fill="#AEC3FF"/>
<path d="M309.924 182.398L310.098 181.495L308.448 180.592L308.274 181.495L309.924 182.398Z" fill="#AEC3FF"/>
<path d="M302.387 182.398L302.546 181.495L300.896 180.592L300.737 181.495L302.387 182.398Z" fill="#AEC3FF"/>
<path d="M321.602 187.328L321.76 186.424L320.11 185.521L319.951 186.424L321.602 187.328Z" fill="#AEC3FF"/>
<path d="M313.954 187.328L314.128 186.424L312.478 185.521L312.304 186.424L313.954 187.328Z" fill="#AEC3FF"/>
<path d="M306.401 187.328L306.576 186.424L304.926 185.521L304.767 186.424L306.401 187.328Z" fill="#AEC3FF"/>
<path d="M132.598 237.335C132.587 237.366 132.576 237.393 132.566 237.414H22.2132C22.2132 237.398 22.1815 237.366 22.1815 237.366C22.1339 237.224 9.40883 219.662 5.63257 195.57C8.39337 194.508 18.1514 191.227 31.876 191.576C32.4261 191.586 32.9814 191.607 33.542 191.639C38.6035 191.877 44.1727 192.622 50.091 194.143C50.3025 194.196 50.5141 194.249 50.7256 194.302C50.7785 194.323 50.8367 194.339 50.9002 194.349C51.3233 194.466 51.7411 194.582 52.1536 194.698C52.6296 194.835 53.1056 194.978 53.5816 195.126C53.7509 195.179 53.9201 195.232 54.0894 195.285C54.724 195.475 55.364 195.681 56.0092 195.903C63.4507 198.407 68.0838 201.101 71.3047 203.717C71.3682 203.77 71.4316 203.822 71.4951 203.875C73.05 205.143 74.2559 206.411 75.319 207.6C75.6046 207.928 75.8796 208.25 76.144 208.567C76.4719 208.958 76.7893 209.343 77.096 209.724C78.1432 210.992 79.1111 212.165 80.2376 213.195C83.3475 216.032 87.7426 217.744 98.5319 217.316C100.468 217.231 102.324 217.21 104.101 217.253C127.33 217.728 136.152 227.682 132.598 237.335Z" fill="#A8D29F"/>
<path d="M423.291 199.342C423.291 199.342 423.286 199.342 423.275 199.342C419.055 198.486 412.391 197.472 404.172 197.234C399.063 197.076 393.351 197.218 387.242 197.884C387.03 197.905 386.814 197.931 386.591 197.963C385.957 198.037 385.311 198.116 384.656 198.201C383.249 198.381 381.821 198.592 380.372 198.835C379.938 198.909 379.504 198.983 379.071 199.057C378.605 199.141 378.14 199.231 377.674 199.326C376.669 199.516 375.659 199.723 374.644 199.944C374.189 200.05 373.739 200.156 373.295 200.261C372.84 200.367 372.385 200.473 371.931 200.578C371.381 200.716 370.831 200.858 370.28 201.006C370.111 201.049 369.942 201.091 369.773 201.133H369.757C369.26 201.271 368.752 201.413 368.234 201.561C366.187 202.148 364.108 202.797 362.014 203.527C358.571 204.699 355.524 205.872 352.795 207.014C349.321 208.456 346.385 209.851 343.847 211.166C341.324 212.466 339.198 213.686 337.325 214.843C327.187 221.072 324.68 224.908 310.844 223.83C309.617 223.735 308.437 223.698 307.306 223.719C303.593 223.767 300.435 224.369 297.738 225.289C292.328 227.127 288.805 230.281 286.663 232.912C284.902 235.068 284.077 236.875 283.886 237.319C283.865 237.382 283.855 237.414 283.855 237.414H286.663H297.738H337.325H352.795H356.746H359.507H393.573H396.349H404.172H407.028C409.312 234.957 418.483 224.845 422.006 208.995C422.672 206.015 423.116 202.829 423.291 199.453V199.342Z" fill="#A8D29F"/>
<path d="M61.8008 133.612C61.8008 133.612 64.4664 128.635 70.813 129.19C70.813 129.19 80.0474 120.9 89.9006 128.08C89.9006 128.08 100.357 126.305 108.116 129.618C113.272 131.837 114.986 134.151 114.986 134.151L61.8008 133.612Z" fill="#F8FCFF"/>
<path d="M161.031 90.7854C161.031 90.7854 163.236 86.0621 168.504 86.5851C168.504 86.5851 176.152 78.7077 184.307 85.539C184.307 85.539 192.97 83.8431 199.38 86.9972C203.664 89.1053 205.077 91.3084 205.077 91.3084L161.031 90.7854Z" fill="#F8FCFF"/>
<path d="M68.3376 236.653L74.6209 236.574L89.2975 175.472L83.0143 175.551L68.3376 236.653Z" fill="#1D3F77"/>
<path d="M57.9609 238.016H86.1401C86.1401 236.368 84.8073 235.02 83.1572 235.02H60.9439C59.2937 235.02 57.9609 236.368 57.9609 238.016Z" fill="#1D3F77"/>
<path d="M123.062 209.724L120.349 196.156V196.14L111.336 151.015L23.7842 151.031L35.4938 209.74L52.122 209.724H52.2807H70.8923H70.9558H89.488H89.615H108.1H108.274H123.062Z" fill="#1D3F77"/>
<path d="M124.553 208.567H37.0011L25.2756 151.031L112.844 151.015L124.553 208.567Z" fill="#2A4E96"/>
<path d="M53.8038 208.567H53.6293L41.9355 151.174H42.1101L53.8038 208.567Z" fill="#C0D8FB"/>
<path d="M72.463 208.567H72.2885L60.5947 151.174H60.7693L72.463 208.567Z" fill="#C0D8FB"/>
<path d="M91.1222 208.567H90.9476L79.2539 151.174H79.4284L91.1222 208.567Z" fill="#C0D8FB"/>
<path d="M109.781 208.567H109.607L97.9131 151.174H98.0876L109.781 208.567Z" fill="#C0D8FB"/>
<path d="M115.62 164.678H28.0522L28.0205 164.535L115.589 164.52L115.62 164.678Z" fill="#C0D8FB"/>
<path d="M118.73 179.973L31.178 179.989L31.1462 179.831L118.699 179.815L118.73 179.973Z" fill="#C0D8FB"/>
<path d="M121.856 195.269L34.2878 195.284L34.2561 195.126L121.824 195.11L121.856 195.269Z" fill="#C0D8FB"/>
<path d="M45.109 166.295L42.9512 164.599L44.4109 162.919L46.5529 164.599L45.109 166.295Z" fill="#C0D8FB"/>
<path d="M48.2348 181.669L46.0928 179.989L47.5525 178.293L49.6945 179.973L48.2348 181.669Z" fill="#C0D8FB"/>
<path d="M63.8476 166.295L61.7056 164.599L63.1494 162.903L65.3073 164.599L63.8476 166.295Z" fill="#C0D8FB"/>
<path d="M66.9733 181.669L64.8313 179.973L66.291 178.293L68.433 179.973L66.9733 181.669Z" fill="#C0D8FB"/>
<path d="M82.5067 166.295L80.3647 164.599L81.8086 162.903L83.9665 164.599L82.5067 166.295Z" fill="#C0D8FB"/>
<path d="M100.991 166.295L98.8494 164.599L100.309 162.903L102.451 164.599L100.991 166.295Z" fill="#C0D8FB"/>
<path d="M51.3288 196.885L49.1868 195.205L50.6465 193.509L52.7885 195.205L51.3288 196.885Z" fill="#C0D8FB"/>
<path d="M70.0832 196.885L67.9253 195.205L69.385 193.509L71.5429 195.205L70.0832 196.885Z" fill="#C0D8FB"/>
<path d="M88.7423 196.885L86.5845 195.189L88.0442 193.509L90.2021 195.189L88.7423 196.885Z" fill="#C0D8FB"/>
<path d="M107.227 196.885L105.085 195.189L106.545 193.509L108.687 195.189L107.227 196.885Z" fill="#C0D8FB"/>
<path d="M104.133 181.669L101.975 179.973L103.435 178.277L105.593 179.973L104.133 181.669Z" fill="#C0D8FB"/>
<path d="M85.6325 181.669L83.4905 179.973L84.9502 178.277L87.0922 179.973L85.6325 181.669Z" fill="#C0D8FB"/>
<path d="M159.492 237.081L163.792 237.017L173.883 195.078L169.567 195.126L159.492 237.081Z" fill="#1D3F77"/>
<path d="M152.352 238.016H171.709C171.709 236.875 170.789 235.956 169.662 235.956H154.399C153.272 235.956 152.352 236.875 152.352 238.016Z" fill="#1D3F77"/>
<path d="M197.048 218.584L195.192 209.28V209.264L189.004 178.277L128.885 178.293L136.945 218.6H148.353H148.464L161.237 218.584H161.285H174.01H174.089H186.782H186.909H197.048Z" fill="#1D3F77"/>
<path d="M198.079 217.791H137.961L129.916 178.293L190.035 178.277L198.079 217.791Z" fill="#2A4E96"/>
<path d="M149.496 217.791H149.385L141.356 178.388H141.483L149.496 217.791Z" fill="#C0D8FB"/>
<path d="M162.316 217.791H162.205L154.177 178.388H154.288L162.316 217.791Z" fill="#C0D8FB"/>
<path d="M175.121 217.791H175.009L166.981 178.388H167.092L175.121 217.791Z" fill="#C0D8FB"/>
<path d="M187.941 217.791H187.814L179.785 178.388H179.912L187.941 217.791Z" fill="#C0D8FB"/>
<path d="M191.955 187.661H131.836L131.804 187.565L191.923 187.55L191.955 187.661Z" fill="#C0D8FB"/>
<path d="M194.081 198.169H133.962L133.947 198.058H194.065L194.081 198.169Z" fill="#C0D8FB"/>
<path d="M196.223 208.662L136.104 208.678L136.088 208.567L196.207 208.551L196.223 208.662Z" fill="#C0D8FB"/>
<path d="M143.53 188.77L142.054 187.613L143.054 186.456L144.529 187.613L143.53 188.77Z" fill="#C0D8FB"/>
<path d="M145.688 199.326L144.212 198.169L145.212 197.012L146.687 198.169L145.688 199.326Z" fill="#C0D8FB"/>
<path d="M156.398 188.77L154.922 187.613L155.922 186.44L157.397 187.613L156.398 188.77Z" fill="#C0D8FB"/>
<path d="M158.555 199.326L157.08 198.169L158.079 197.012L159.555 198.169L158.555 199.326Z" fill="#C0D8FB"/>
<path d="M169.218 188.77L167.742 187.613L168.742 186.44L170.218 187.613L169.218 188.77Z" fill="#C0D8FB"/>
<path d="M181.911 188.77L180.436 187.613L181.435 186.44L182.911 187.613L181.911 188.77Z" fill="#C0D8FB"/>
<path d="M147.814 209.787L146.338 208.614L147.338 207.457L148.813 208.614L147.814 209.787Z" fill="#C0D8FB"/>
<path d="M160.682 209.771L159.206 208.614L160.206 207.457L161.681 208.614L160.682 209.771Z" fill="#C0D8FB"/>
<path d="M173.486 209.771L172.01 208.614L173.01 207.457L174.486 208.614L173.486 209.771Z" fill="#C0D8FB"/>
<path d="M186.179 209.771L184.72 208.614L185.719 207.457L187.195 208.614L186.179 209.771Z" fill="#C0D8FB"/>
<path d="M184.053 199.326L182.578 198.169L183.577 196.996L185.053 198.169L184.053 199.326Z" fill="#C0D8FB"/>
<path d="M171.36 199.326L169.884 198.169L170.884 196.996L172.359 198.169L171.36 199.326Z" fill="#C0D8FB"/>
<path d="M251.074 222.975L252.502 222.705C252.502 222.705 249.075 209.185 249.551 208.076C249.932 207.156 253.867 206.475 255.802 204.858C256.215 204.525 256.532 204.145 256.707 203.701C257.738 201.197 256.056 199.326 256.056 199.326C256.056 199.326 252.55 200.135 249.376 201.498C247.107 202.465 245.013 203.733 244.426 205.191C243.03 208.725 251.074 222.975 251.074 222.975Z" fill="#E8945B"/>
<path d="M247.171 225.067C247.203 224.924 247.298 224.797 247.425 224.718C247.774 224.528 248.472 224.258 248.996 223.561C249.281 223.181 250.503 222.024 250.503 222.024C250.535 222.008 250.693 222.008 251.455 222.325C251.852 222.483 252.264 221.738 252.264 221.738C252.264 221.738 252.391 221.786 252.518 221.913C252.613 222.008 252.692 222.166 252.708 222.356C252.724 222.658 253.026 223.117 253.248 223.418C253.375 223.609 253.486 223.735 253.486 223.735C253.486 223.735 253.565 223.91 252.899 224.163L252.09 224.369C251.804 224.401 251.582 224.385 251.296 224.417C250.868 224.48 250.709 224.686 250.677 224.734L247.234 225.622C247.123 225.542 247.139 225.273 247.171 225.067Z" fill="#415DA5"/>
<path d="M240.443 225.606C240.793 225.606 241.078 225.32 241.078 224.956C241.078 217.047 234.636 210.612 226.719 210.612C224.894 210.612 223.117 210.96 221.435 211.626C221.102 211.753 220.943 212.117 221.07 212.45C221.197 212.767 221.578 212.942 221.895 212.799C223.434 212.197 225.053 211.895 226.719 211.895C233.938 211.895 239.809 217.76 239.809 224.956C239.809 225.32 240.094 225.606 240.443 225.606Z" fill="#2C3A64"/>
<path d="M228.892 224.956C228.892 223.783 227.94 222.832 226.766 222.832C225.592 222.832 224.64 223.783 224.64 224.956C224.64 226.129 225.592 227.08 226.766 227.08C227.94 227.08 228.892 226.129 228.892 224.956Z" fill="#415DA5"/>
<path d="M226.988 224.861L230.59 214.828L230.32 214.733L226.719 224.766L226.988 224.861Z" fill="#415DA5"/>
<path d="M236.937 229.489L237.048 229.22L226.861 224.845L220.15 215.272L219.912 215.446L226.671 225.083L226.703 225.099L236.937 229.489Z" fill="#415DA5"/>
<path d="M230.812 236.019L231.082 235.94C231.003 235.718 227.068 225.352 226.893 224.908L226.798 224.639L220.436 234.672L220.689 234.83L226.735 225.289C228.178 229.077 230.749 235.861 230.812 236.019Z" fill="#415DA5"/>
<path d="M226.782 224.385L238.095 222.436L238.048 222.151L226.735 224.1L226.782 224.385Z" fill="#415DA5"/>
<path d="M225.91 224.211L226.179 224.116L222.863 214.178L222.594 214.273L225.91 224.211Z" fill="#415DA5"/>
<path d="M226.782 225.114L226.83 225.083L237.207 219.836L237.08 219.583L226.735 224.813L215.612 222.943L215.564 223.228L226.782 225.114Z" fill="#415DA5"/>
<path d="M222.578 235.671C222.641 235.48 225.291 228.934 226.782 225.273L232.558 234.323L232.796 234.181L226.735 224.655L226.624 224.908C226.449 225.336 222.371 235.354 222.292 235.575L222.578 235.671Z" fill="#415DA5"/>
<path d="M237.921 226.763L237.952 226.477L226.782 224.813L226.735 225.099L237.921 226.763Z" fill="#415DA5"/>
<path d="M227.449 223.466L233.653 216.349L233.43 216.159L227.227 223.276L227.449 223.466Z" fill="#415DA5"/>
<path d="M227.115 236.21L227.417 236.178L226.544 225.749L226.259 225.764L227.115 236.21Z" fill="#415DA5"/>
<path d="M217.468 231.344L227.353 224.496L227.179 224.274L217.31 231.106L217.468 231.344Z" fill="#415DA5"/>
<path d="M234.954 232.691L235.16 232.501L226.909 224.179V213.37H226.624V224.306L234.954 232.691Z" fill="#415DA5"/>
<path fill-rule="evenodd" clip-rule="evenodd" d="M239.238 224.956C239.238 231.296 234.493 236.526 228.369 237.319H228.353C227.835 237.382 227.306 237.414 226.766 237.414C226.243 237.414 225.703 237.382 225.196 237.319C225.185 237.319 225.18 237.319 225.18 237.319C223.514 237.113 221.895 236.558 220.451 235.702C218.595 234.624 217.056 233.071 215.977 231.217C215.956 231.196 215.94 231.169 215.929 231.137C215.422 230.25 215.025 229.299 214.755 228.316C214.454 227.238 214.295 226.097 214.295 224.956C214.295 221.199 215.977 217.808 218.627 215.525C220.499 213.908 222.863 212.847 225.449 212.577C225.883 212.524 226.322 212.498 226.766 212.498C228.194 212.498 229.575 212.751 230.844 213.195C231.479 213.407 232.082 213.671 232.653 213.988C233.986 214.701 235.16 215.652 236.144 216.777C236.408 217.073 236.657 217.38 236.889 217.697C238.365 219.741 239.238 222.246 239.238 224.956ZM237.365 226.684C237.376 226.588 237.392 226.493 237.413 226.398C237.476 225.923 237.508 225.442 237.508 224.956C237.508 224.148 237.413 223.355 237.238 222.594C237.217 222.499 237.196 222.404 237.175 222.309C236.984 221.58 236.731 220.898 236.397 220.233C236.366 220.148 236.323 220.064 236.271 219.979C236.048 219.556 235.8 219.155 235.525 218.774C235.239 218.362 234.922 217.977 234.573 217.617C234.224 217.237 233.848 216.888 233.446 216.571C233.372 216.508 233.298 216.45 233.224 216.397C232.812 216.08 232.378 215.8 231.923 215.557C231.489 215.314 231.035 215.102 230.559 214.923C230.474 214.891 230.384 214.859 230.289 214.828C230.268 214.817 230.241 214.807 230.209 214.796C229.178 214.447 228.067 214.241 226.909 214.225C226.856 214.225 226.809 214.225 226.766 214.225C226.713 214.225 226.666 214.225 226.624 214.225C225.386 214.241 224.196 214.479 223.085 214.875C223.001 214.907 222.911 214.939 222.816 214.97C222.07 215.272 221.372 215.652 220.721 216.096C220.647 216.149 220.568 216.201 220.483 216.254C218.278 217.855 216.691 220.264 216.183 223.038C216.173 223.133 216.157 223.228 216.136 223.323C216.062 223.862 216.025 224.406 216.025 224.956C216.025 225.812 216.12 226.652 216.31 227.46C216.564 228.475 216.945 229.457 217.468 230.345C217.553 230.503 217.648 230.657 217.754 230.805C217.807 230.879 217.86 230.958 217.913 231.042C217.955 231.116 218.003 231.185 218.056 231.248C218.833 232.31 219.801 233.23 220.896 233.959C220.98 234.012 221.065 234.059 221.15 234.101C221.202 234.144 221.261 234.181 221.324 234.212C221.737 234.455 222.16 234.667 222.593 234.846C222.678 234.889 222.763 234.926 222.847 234.957C224.085 235.449 225.418 235.686 226.766 235.686C226.872 235.686 226.978 235.686 227.084 235.686C227.179 235.686 227.274 235.681 227.369 235.67C228.432 235.623 229.464 235.401 230.432 235.052C230.527 235.01 230.617 234.973 230.701 234.941C231.294 234.709 231.86 234.424 232.399 234.085C232.484 234.043 232.563 233.996 232.637 233.943C233.351 233.467 234.002 232.928 234.573 232.326C234.636 232.252 234.7 232.178 234.763 232.104C235.509 231.28 236.112 230.345 236.572 229.33C236.614 229.246 236.651 229.156 236.683 229.061C237 228.316 237.238 227.508 237.365 226.684Z" fill="#202E51"/>
<path d="M250.852 226.89L258.182 203.986L256.945 203.59L249.614 226.493L250.852 226.89Z" fill="#739CF3"/>
<path d="M251.471 226.953L268.766 225.447L236.683 203.78L238.524 207.537L265.005 224.48L251.36 225.653L251.471 226.953Z" fill="#739CF3"/>
<path d="M249.138 225.939L250.233 225.241L236.921 203.939L235.366 205.54L249.138 225.939Z" fill="#739CF3"/>
<path d="M227.798 224.385L235.207 208.535L234.208 208.139C233.573 207.886 232.843 208.203 232.574 208.852L226.592 223.894L227.798 224.385Z" fill="#415DA5"/>
<path d="M235.207 208.535C236.286 205.761 238.063 201.387 238.047 201.434L236.969 200.721C236.905 200.8 236.873 200.848 234.065 208.139L235.207 208.535Z" fill="#415DA5"/>
<path d="M241.427 202.956C241.856 202.37 241.713 201.545 241.126 201.117C240.539 200.69 239.714 200.832 239.301 201.419C238.873 202.005 239 202.829 239.587 203.257C240.19 203.685 240.999 203.543 241.427 202.956Z" fill="#415DA5"/>
<path d="M236.445 199.517C236.873 198.93 236.731 198.106 236.144 197.678C235.556 197.25 234.731 197.393 234.303 197.979C233.89 198.566 234.017 199.39 234.604 199.818C235.207 200.23 236.017 200.103 236.445 199.517Z" fill="#415DA5"/>
<path d="M235.16 199.976L240.19 203.178L240.888 201.799L235.858 198.613L235.16 199.976Z" fill="#415DA5"/>
<path d="M243.442 229.996H246.251C246.584 229.996 246.854 229.727 246.854 229.41C246.854 229.077 246.584 228.807 246.251 228.807H243.442C243.109 228.807 242.839 229.077 242.839 229.41C242.839 229.727 243.109 229.996 243.442 229.996Z" fill="#415DA5"/>
<path d="M244.823 229.267L250.503 226.684L250.297 226.224L244.601 228.807L244.823 229.267Z" fill="#415DA5"/>
<path d="M269.019 224.956C269.019 223.783 268.067 222.832 266.893 222.832C265.719 222.832 264.767 223.783 264.767 224.956C264.767 226.129 265.719 227.08 266.893 227.08C268.067 227.08 269.019 226.129 269.019 224.956Z" fill="#415DA5"/>
<path d="M267.115 224.861L270.733 214.828L270.463 214.733L266.845 224.766L267.115 224.861Z" fill="#415DA5"/>
<path d="M277.063 229.489L277.19 229.22L266.988 224.845L260.277 215.272L260.039 215.446L266.798 225.083L266.829 225.099L277.063 229.489Z" fill="#415DA5"/>
<path d="M270.939 236.019L271.209 235.94C271.129 235.718 267.195 225.352 267.02 224.908L266.925 224.639L260.562 234.672L260.816 234.83L266.861 225.289C268.305 229.077 270.876 235.861 270.939 236.019Z" fill="#415DA5"/>
<path d="M266.909 224.385L278.238 222.436L278.19 222.151L266.861 224.1L266.909 224.385Z" fill="#415DA5"/>
<path d="M266.036 224.211L266.306 224.116L262.99 214.178L262.72 214.273L266.036 224.211Z" fill="#415DA5"/>
<path d="M266.909 225.114L266.956 225.083L277.333 219.836L277.206 219.583L266.861 224.813L255.739 222.943L255.691 223.228L266.909 225.114Z" fill="#415DA5"/>
<path d="M262.704 235.671C262.768 235.48 265.433 228.934 266.925 225.273L272.684 234.323L272.922 234.181L266.861 224.655L266.75 224.908C266.576 225.336 262.498 235.354 262.435 235.575L262.704 235.671Z" fill="#415DA5"/>
<path d="M278.047 226.763L278.079 226.477L266.909 224.813L266.861 225.099L278.047 226.763Z" fill="#415DA5"/>
<path d="M267.575 223.466L273.779 216.349L273.557 216.159L267.353 223.276L267.575 223.466Z" fill="#415DA5"/>
<path d="M267.258 236.21L267.544 236.178L266.671 225.749L266.385 225.764L267.258 236.21Z" fill="#415DA5"/>
<path d="M257.595 231.344L267.48 224.496L267.306 224.274L257.437 231.106L257.595 231.344Z" fill="#415DA5"/>
<path d="M275.08 232.691L275.287 232.501L267.036 224.179V213.37H266.75V224.306L275.08 232.691Z" fill="#415DA5"/>
<path fill-rule="evenodd" clip-rule="evenodd" d="M279.364 224.956C279.364 231.28 274.62 236.526 268.511 237.319C267.983 237.382 267.443 237.414 266.893 237.414C266.343 237.414 265.804 237.382 265.275 237.319C263.625 237.097 262.022 236.558 260.578 235.702C260.483 235.649 260.388 235.591 260.293 235.528C258.563 234.466 257.119 232.976 256.104 231.217C255.295 229.822 254.755 228.284 254.533 226.684C254.48 226.261 254.443 225.833 254.422 225.4C254.422 225.252 254.422 225.104 254.422 224.956C254.422 222.705 255.025 220.581 256.072 218.759C256.336 218.304 256.627 217.871 256.945 217.459C258.151 215.858 259.721 214.574 261.546 213.702C263.164 212.942 264.989 212.498 266.893 212.498C273.763 212.498 279.364 218.093 279.364 224.956ZM277.492 226.684C277.513 226.588 277.529 226.493 277.54 226.398C277.603 225.923 277.635 225.442 277.635 224.956C277.635 224.148 277.54 223.355 277.365 222.594C277.344 222.499 277.323 222.404 277.302 222.309C277.111 221.58 276.857 220.898 276.54 220.233C276.498 220.148 276.45 220.064 276.397 219.979C275.699 218.663 274.747 217.491 273.573 216.571C273.499 216.508 273.425 216.45 273.351 216.397C272.542 215.779 271.653 215.287 270.701 214.923C270.606 214.891 270.511 214.859 270.415 214.828C269.352 214.463 268.226 214.241 267.036 214.225C266.983 214.225 266.935 214.225 266.893 214.225C266.84 214.225 266.793 214.225 266.75 214.225C266.264 214.236 265.788 214.278 265.322 214.352C264.592 214.458 263.894 214.632 263.228 214.875C263.133 214.907 263.037 214.939 262.942 214.97C262.212 215.272 261.498 215.652 260.848 216.096C260.774 216.149 260.694 216.201 260.61 216.254C259.769 216.872 259.007 217.602 258.373 218.426C258.066 218.827 257.786 219.25 257.532 219.694C256.961 220.724 256.532 221.849 256.326 223.038C256.305 223.133 256.289 223.228 256.278 223.323C256.194 223.862 256.151 224.406 256.151 224.956C256.151 225.051 256.151 225.146 256.151 225.241C256.162 225.674 256.199 226.108 256.262 226.541C256.469 227.872 256.913 229.172 257.595 230.345C257.69 230.503 257.786 230.657 257.881 230.805C257.934 230.879 257.987 230.958 258.039 231.042C258.833 232.199 259.848 233.182 261.022 233.943C261.022 233.953 261.022 233.959 261.022 233.959C261.107 234.012 261.192 234.059 261.276 234.101C261.34 234.144 261.398 234.181 261.451 234.212C261.863 234.455 262.286 234.667 262.72 234.846C262.805 234.889 262.895 234.926 262.99 234.957C264.227 235.449 265.544 235.686 266.893 235.686C266.999 235.686 267.105 235.686 267.21 235.686C267.306 235.686 267.401 235.681 267.496 235.67C268.575 235.623 269.606 235.401 270.574 235.052C270.659 235.01 270.749 234.973 270.844 234.941C271.436 234.709 271.997 234.424 272.526 234.085C272.61 234.043 272.695 233.996 272.78 233.943C273.478 233.467 274.128 232.928 274.699 232.326C274.774 232.252 274.842 232.178 274.906 232.104C275.636 231.28 276.239 230.345 276.699 229.33C276.741 229.246 276.778 229.156 276.81 229.061C277.127 228.316 277.365 227.508 277.492 226.684Z" fill="#202E51"/>
<path d="M256.723 212.181C256.913 212.244 257.119 212.228 257.278 212.117C263.117 208.599 271.193 209.93 273.525 210.406C273.652 210.437 273.779 210.342 273.779 210.215V209.756C273.779 209.407 273.525 209.106 273.176 209.058C271.907 208.868 268.956 208.472 267.306 208.456C267.263 208.456 267.221 208.456 267.179 208.456C263.482 208.456 260.293 209.122 257.675 210.421C257.135 210.691 256.516 210.723 255.945 210.532L255.231 210.279C254.819 210.136 254.374 210.358 254.232 210.754C254.136 211.024 254.279 211.325 254.533 211.404L256.723 212.181Z" fill="#F99746"/>
<path d="M262.149 203.305C262.149 203.305 262.387 202.243 261.721 202.164C261.054 202.1 258.611 202.623 257.976 202.544C257.325 202.481 253.93 201.91 253.343 202.496C252.74 203.067 252.994 203.574 254.184 203.685C255.374 203.796 256.961 203.986 257.405 204.367C257.865 204.747 261.118 205.857 262.149 203.305Z" fill="#F99746"/>
<path d="M253.486 226.684C253.486 224.893 252.026 223.45 250.233 223.45C248.44 223.45 246.996 224.893 246.996 226.684C246.996 228.475 248.44 229.933 250.233 229.933C252.026 229.933 253.486 228.475 253.486 226.684Z" fill="#2C3A64"/>
<path d="M238.936 199.215C238.936 199.215 237.873 197.868 237.286 198.042C236.286 198.328 236.207 199.247 236.223 199.437C236.255 199.627 236.239 200.357 236.683 200.515C237.127 200.674 237.587 200.483 237.794 200.309C238 200.135 238.936 199.215 238.936 199.215Z" fill="#E8945B"/>
<path d="M237.127 198.138C237.127 198.138 237.286 198.978 238.301 199.247C239.317 199.516 245.6 196.87 247.091 196.14C247.901 195.744 249.059 193.509 249.947 191.56C250.154 191.084 250.36 190.625 250.535 190.213C250.979 189.166 251.28 188.421 251.28 188.421C251.28 187.391 250.138 187.803 249.122 188.263C248.805 188.406 247.171 187.724 246.727 188.548C246.536 188.945 246.266 188.897 246.06 189.341C245.267 191.084 244.537 193.066 244.394 193.525C244.109 194.365 237.127 198.138 237.127 198.138Z" fill="#E8945B"/>
<path d="M239.714 200.008C239.714 200.008 238.666 198.676 238.079 198.819C236.699 199.168 236.873 200.166 236.905 200.357C236.937 200.547 237.032 201.133 237.476 201.292C237.921 201.45 238.381 201.26 238.587 201.086C238.793 200.911 239.714 200.008 239.714 200.008Z" fill="#FFB27D"/>
<path d="M251.868 186.741L248.282 188.057C247.822 187.613 247.361 186.9 246.996 186.266C246.536 185.458 246.219 184.744 246.219 184.744L248.726 183.001L249.519 182.446C249.567 184.047 251.868 186.741 251.868 186.741Z" fill="#FFB27D"/>
<path d="M249.694 183.302C249.694 183.302 248.996 185.521 246.996 186.266C246.536 185.457 246.219 184.744 246.219 184.744L248.726 183.001L249.694 183.302Z" fill="#E8945B"/>
<path d="M245.092 184.697C245.092 184.697 249.519 185.394 249.916 182.62C250.297 179.863 251.138 178.087 248.313 177.533C245.505 176.962 244.807 177.945 244.458 178.832C244.093 179.72 243.95 184.443 245.092 184.697Z" fill="#FFB27D"/>
<path d="M250.9 177.025C250.9 177.025 250.709 177.057 250.535 177.231C250.535 176.629 249.948 176.027 249.948 176.027C250.217 176.376 250.138 177.041 250.138 177.041C249.297 175.615 245.235 176.74 244.854 176.835C244.474 176.914 244.204 176.344 244.204 176.344C243.601 176.867 243.363 178.151 243.871 178.975C244.363 179.815 245.981 181.035 246.457 180.798C246.917 180.576 246.917 181.051 246.885 181.733C246.869 182.399 248.044 183.54 248.869 183.714C249.535 183.841 249.583 183.381 249.773 183.096C249.815 183.022 249.868 182.959 249.932 182.906C250.836 182.082 251.344 180.449 251.138 178.832C251.058 178.198 250.789 177.659 250.646 177.39C250.693 177.295 250.82 177.105 250.9 177.025Z" fill="#2C3A64"/>
<path d="M249.376 201.498C249.408 201.704 249.9 203.352 251.185 203.764C252.01 204.05 254.01 204.731 255.802 204.858C256.215 204.525 256.532 204.145 256.707 203.701C257.738 201.197 256.056 199.326 256.056 199.326C256.056 199.326 252.55 200.135 249.376 201.498Z" fill="#2C3A64"/>
<path d="M259.436 195.681C259.436 195.681 263.038 199.802 259.737 204.462C256.437 209.106 251.058 212.846 250.773 214.511C250.201 217.712 246.774 224.338 245.156 227.619L243.76 227.08C243.76 227.08 246.378 211.547 247.298 209.692C248.234 207.838 253.057 199.136 253.057 199.136L259.436 195.681Z" fill="#FFB27D"/>
<path d="M246.029 189.135C246.362 189.246 247.203 189.547 247.425 189.927C247.663 190.308 250.122 189.246 250.408 188.263C249.71 187.486 248.504 186.837 247.79 187.058C247.377 187.169 246.711 188.057 246.029 189.135Z" fill="#5885D6"/>
<path d="M260.166 196.949C260.166 196.949 255.501 200.262 252.391 200.087C252.391 200.087 250.344 203.558 249.884 204.715C249.884 204.715 255.183 207.362 257.944 206.871C257.944 206.871 261.53 203.384 261.324 200.959C261.118 198.518 260.166 196.949 260.166 196.949Z" fill="#35488B"/>
<path d="M247.377 190.704L248.488 192.289L248.583 192.495L250.9 197.789L252.09 200.499C252.883 200.689 254.343 200.547 255.009 200.309C258.611 199.089 260.166 196.949 260.166 196.949C258.071 191.496 255.184 187.772 254.597 187.106C253.565 185.996 250.884 185.077 250.884 185.077C250.138 185.838 247.504 187.169 247.504 187.169C246.933 187.629 247.377 190.704 247.377 190.704Z" fill="#739AF0"/>
<path d="M248.583 192.495L250.9 197.789C252.661 194.238 251.55 189.071 251.55 189.071C251.55 189.071 248.71 191.528 248.615 191.718C248.599 191.75 248.583 192.035 248.583 192.495Z" fill="#5885D6"/>
<path d="M237.921 198.914C237.921 198.914 238.063 199.754 239.079 200.04C240.094 200.309 246.378 197.662 247.869 196.917C248.678 196.521 249.837 194.286 250.725 192.337C250.947 191.861 251.153 191.401 251.328 190.989C251.772 189.959 252.058 189.214 252.058 189.214C252.058 188.184 249.646 186.789 248.615 187.249C248.297 187.407 247.885 188.041 247.457 188.865C247.25 189.262 247.044 189.69 246.854 190.118C246.06 191.877 245.33 193.842 245.172 194.318C244.886 195.158 237.921 198.914 237.921 198.914Z" fill="#FFB27D"/>
<path d="M246.854 190.118C247.79 190.545 249.472 191.37 250.725 192.337C250.947 191.861 251.153 191.401 251.328 190.989C251.772 189.959 252.058 189.214 252.058 189.214C252.058 188.184 249.646 186.789 248.615 187.249C248.297 187.407 247.885 188.041 247.456 188.865C247.25 189.262 247.044 189.69 246.854 190.118Z" fill="#739AF0"/>
<path d="M245.695 228.887H244.87C244.585 228.839 244.378 228.776 244.093 228.744C243.648 228.696 243.458 228.855 243.41 228.887H239.856C239.777 228.776 239.856 228.522 239.936 228.332C239.999 228.189 240.126 228.094 240.269 228.062C240.65 227.967 241.395 227.872 242.062 227.333C242.458 227.032 243.918 226.208 243.918 226.208C243.95 226.208 244.109 226.256 244.775 226.747C245.108 227.001 245.695 226.382 245.695 226.382C245.695 226.382 245.806 226.462 245.902 226.62C245.965 226.731 246.013 226.905 245.965 227.096C245.917 227.381 246.092 227.904 246.219 228.253C246.314 228.475 246.378 228.633 246.378 228.633C246.378 228.633 246.409 228.807 245.695 228.887Z" fill="#739CF3"/>
<path d="M245.902 226.62C245.695 226.747 245.267 226.985 244.997 227.016C244.616 227.064 243.918 226.208 243.918 226.208C243.95 226.208 244.109 226.256 244.775 226.747C245.108 227.001 245.695 226.382 245.695 226.382C245.695 226.382 245.806 226.462 245.902 226.62Z" fill="#415DA5"/>
<path d="M245.695 228.887H244.87C244.585 228.839 244.378 228.776 244.093 228.744C243.648 228.696 243.458 228.855 243.41 228.887H239.856C239.777 228.776 239.856 228.522 239.936 228.332C240.047 228.237 240.078 228.696 240.142 228.76C240.19 228.839 243.03 228.792 243.188 228.681C243.363 228.586 243.855 228.395 244.537 228.538C245.124 228.665 246.013 228.348 246.219 228.253C246.314 228.475 246.378 228.633 246.378 228.633C246.378 228.633 246.409 228.807 245.695 228.887Z" fill="#415DA5"/>
<path d="M370.455 226.509C370.756 226.509 371.01 226.255 371.01 225.954C371.01 219.091 365.425 213.512 358.555 213.512C356.968 213.512 355.429 213.797 353.97 214.384C353.684 214.495 353.541 214.812 353.652 215.097C353.763 215.382 354.081 215.525 354.366 215.414C355.699 214.891 357.111 214.621 358.555 214.621C364.806 214.621 369.9 219.709 369.9 225.954C369.9 226.255 370.154 226.509 370.455 226.509Z" fill="#2C3A64"/>
<path d="M380.451 199.675C380.451 199.675 379.594 201.434 378.531 203.859C377.341 206.586 375.865 210.168 374.977 213.068C374.517 214.606 374.215 215.969 374.215 216.904C374.215 217.221 375.453 218.537 375.818 219.028C378.087 222.182 381.181 226.398 381.181 226.398L382.022 226.176C382.022 226.176 380.848 220.914 379.118 218.283C378.785 217.776 377.817 217.142 377.865 217.094C377.865 217.084 377.865 217.078 377.865 217.078C378.023 216.904 378.388 216.428 378.896 215.763C380.292 213.924 382.72 210.58 384.354 207.457C384.449 207.267 384.545 207.077 384.64 206.887C385.497 205.143 386.068 203.511 386.02 202.306L380.451 199.675Z" fill="#E8945B"/>
<path d="M382.784 226.382L382.196 226.747C381.99 226.842 381.8 226.874 381.594 226.984C381.26 227.127 381.197 227.349 381.181 227.397L378.722 228.966C378.595 228.918 378.531 228.665 378.484 228.49C378.468 228.348 378.5 228.221 378.579 228.126C378.801 227.888 379.277 227.492 379.483 226.763C379.594 226.35 380.197 225.067 380.197 225.067H380.213C380.229 225.051 380.356 225.019 381.07 225.114C381.435 225.162 381.53 224.417 381.53 224.417C381.53 224.417 381.657 224.433 381.784 224.512C381.895 224.575 382.006 224.686 382.07 224.861C382.181 225.098 382.561 225.447 382.831 225.669C383.006 225.796 383.117 225.891 383.117 225.891C383.117 225.891 383.244 226.002 382.784 226.382Z" fill="#B84C42"/>
<path d="M381.784 224.512C381.705 224.702 381.53 225.082 381.356 225.225C381.118 225.431 380.197 225.067 380.197 225.067H380.213C380.229 225.051 380.356 225.019 381.07 225.114C381.435 225.162 381.53 224.417 381.53 224.417C381.53 224.417 381.657 224.433 381.784 224.512Z" fill="#AA3E39"/>
<path d="M382.783 226.382L382.196 226.747C381.99 226.842 381.8 226.874 381.593 226.985C381.26 227.127 381.197 227.349 381.181 227.397L378.722 228.966C378.595 228.918 378.531 228.665 378.484 228.49C378.515 228.363 378.769 228.712 378.849 228.744C378.928 228.776 380.88 227.492 380.943 227.333C380.991 227.175 381.244 226.81 381.8 226.636C382.276 226.461 382.72 225.827 382.831 225.669C383.006 225.796 383.117 225.891 383.117 225.891C383.117 225.891 383.244 226.002 382.783 226.382Z" fill="#AA3E39"/>
<path d="M379.737 227.935L386.369 207.204L385.243 206.839L378.611 227.587L379.737 227.935Z" fill="#F99746"/>
<path d="M380.292 227.999L395.953 226.636L366.901 207.013L368.567 210.421L392.557 225.748L380.181 226.826L380.292 227.999Z" fill="#F99746"/>
<path d="M378.182 227.08L379.166 226.446L367.107 207.156L365.711 208.599L378.182 227.08Z" fill="#F99746"/>
<path d="M376.532 224.322L374.327 225.605C374.073 225.748 373.977 226.081 374.12 226.35C374.279 226.604 374.612 226.699 374.866 226.541L377.071 225.273C377.341 225.114 377.421 224.781 377.278 224.528C377.119 224.274 376.786 224.179 376.532 224.322Z" fill="#415DA5"/>
<path d="M376.088 225.146L378.88 228.221L379.134 227.999L376.357 224.924L376.088 225.146Z" fill="#415DA5"/>
<path d="M385.052 214.621C385.211 214.685 385.401 214.653 385.544 214.574C390.828 211.372 398.142 212.577 400.253 213.021H400.268C400.38 213.052 400.491 212.957 400.491 212.846V212.418C400.491 212.117 400.253 211.848 399.951 211.8C398.793 211.626 396.127 211.261 394.636 211.261C394.593 211.261 394.551 211.261 394.509 211.261C391.161 211.261 388.273 211.848 385.909 213.036C385.417 213.274 384.862 213.306 384.354 213.132L383.704 212.894C383.323 212.767 382.91 212.973 382.783 213.338C382.704 213.575 382.831 213.845 383.069 213.924L385.052 214.621Z" fill="#35488B"/>
<path d="M389.955 206.586C389.955 206.586 390.177 205.619 389.574 205.555C388.971 205.492 386.766 205.968 386.179 205.904C385.592 205.841 382.514 205.333 381.974 205.857C381.435 206.364 381.673 206.823 382.752 206.919C383.831 207.029 385.259 207.204 385.671 207.553C386.084 207.885 389.035 208.9 389.955 206.586Z" fill="#415DA5"/>
<path d="M382.117 227.761C382.117 226.144 380.8 224.829 379.166 224.829C377.547 224.829 376.23 226.144 376.23 227.761C376.23 229.378 377.547 230.693 379.166 230.693C380.8 230.693 382.117 229.378 382.117 227.761Z" fill="#415DA5"/>
<path d="M395.159 226.129L398.428 217.047L398.174 216.951L394.921 226.049L395.159 226.129Z" fill="#415DA5"/>
<path d="M404.172 230.313L404.267 230.075L395.032 226.113L388.971 217.443L388.749 217.601L394.858 226.319L394.906 226.334L404.172 230.313Z" fill="#415DA5"/>
<path d="M398.618 236.241L398.856 236.161C398.793 235.955 395.223 226.572 395.064 226.176L394.985 225.922L389.225 235.02L389.447 235.163L394.921 226.509C396.222 229.948 398.555 236.082 398.618 236.241Z" fill="#415DA5"/>
<path d="M394.969 225.701L405.219 223.941L405.171 223.672L394.921 225.431L394.969 225.701Z" fill="#415DA5"/>
<path d="M394.176 225.542L394.414 225.463L391.415 216.46L391.177 216.539L394.176 225.542Z" fill="#415DA5"/>
<path d="M394.969 226.35L395.016 226.335L404.41 221.58L404.298 221.342L394.921 226.081L384.846 224.401L384.814 224.654L394.969 226.35Z" fill="#415DA5"/>
<path d="M391.161 235.908C391.208 235.749 393.62 229.821 394.969 226.509L400.189 234.703L400.411 234.561L394.921 225.938L394.826 226.176C394.667 226.556 390.97 235.638 390.907 235.829L391.161 235.908Z" fill="#415DA5"/>
<path d="M405.044 227.84L405.092 227.587L394.969 226.097L394.937 226.351L405.044 227.84Z" fill="#415DA5"/>
<path d="M395.572 224.876L401.189 218.409L400.982 218.235L395.365 224.702L395.572 224.876Z" fill="#415DA5"/>
<path d="M395.27 236.399L395.54 236.384L394.747 226.921L394.493 226.953L395.27 236.399Z" fill="#415DA5"/>
<path d="M386.544 231.993L395.477 225.812L395.334 225.59L386.385 231.787L386.544 231.993Z" fill="#415DA5"/>
<path d="M402.363 233.229L402.553 233.039L395.08 225.51V215.715H394.826V225.621L402.363 233.229Z" fill="#415DA5"/>
<path d="M396.873 226.224C396.873 225.162 396.016 224.29 394.953 224.29C393.89 224.29 393.017 225.162 393.017 226.224C393.017 227.286 393.89 228.142 394.953 228.142C396.016 228.142 396.873 227.286 396.873 226.224Z" fill="#2C3A64"/>
<path fill-rule="evenodd" clip-rule="evenodd" d="M406.25 226.224C406.25 228.649 405.473 230.884 404.172 232.738C402.379 235.258 399.57 237.018 396.349 237.414C396.328 237.414 396.312 237.414 396.302 237.414C395.858 237.467 395.408 237.493 394.953 237.493C394.498 237.493 394.049 237.467 393.604 237.414C393.594 237.414 393.583 237.414 393.573 237.414C392.049 237.224 390.558 236.732 389.241 235.956C387.559 234.973 386.163 233.562 385.179 231.882C384.433 230.598 383.942 229.172 383.751 227.698C383.698 227.307 383.667 226.916 383.656 226.525C383.656 226.419 383.656 226.319 383.656 226.224C383.656 224.306 384.132 222.499 384.989 220.914C385.211 220.502 385.454 220.106 385.719 219.725C387.765 216.825 391.145 214.938 394.953 214.938C398.745 214.938 402.125 216.825 404.172 219.709C405.473 221.548 406.25 223.799 406.25 226.224ZM404.584 227.508C404.648 227.085 404.679 226.657 404.679 226.224C404.679 225.479 404.6 224.765 404.441 224.068C404.42 223.984 404.399 223.899 404.378 223.814C404.314 223.571 404.246 223.339 404.172 223.117C404.034 222.716 403.87 222.325 403.68 221.944C403.648 221.86 403.611 221.78 403.569 221.706C402.934 220.518 402.061 219.456 400.998 218.616C400.935 218.563 400.866 218.51 400.792 218.457C400.062 217.902 399.269 217.459 398.396 217.126C398.312 217.094 398.227 217.068 398.142 217.047C397.19 216.714 396.159 216.523 395.08 216.508C395.038 216.508 394.995 216.508 394.953 216.508C394.911 216.508 394.868 216.508 394.826 216.508C393.7 216.523 392.621 216.73 391.621 217.078C391.536 217.11 391.457 217.142 391.383 217.173C390.701 217.443 390.066 217.791 389.479 218.188C389.405 218.241 389.336 218.288 389.273 218.33C388.4 218.964 387.639 219.725 387.02 220.597C386.755 220.967 386.517 221.358 386.306 221.77C385.877 222.61 385.56 223.513 385.385 224.48C385.364 224.565 385.348 224.649 385.338 224.734C385.264 225.22 385.227 225.716 385.227 226.224C385.227 226.277 385.227 226.335 385.227 226.398C385.227 226.789 385.259 227.175 385.322 227.555C385.497 228.807 385.909 230.012 386.544 231.105C386.618 231.243 386.702 231.375 386.798 231.502C386.84 231.576 386.888 231.65 386.94 231.724C387.654 232.77 388.575 233.673 389.638 234.355C389.712 234.408 389.786 234.455 389.86 234.497C389.913 234.54 389.971 234.577 390.034 234.608C390.394 234.82 390.775 235.01 391.177 235.179C391.251 235.211 391.33 235.242 391.415 235.274C392.541 235.702 393.731 235.94 394.953 235.94C395.048 235.94 395.143 235.934 395.239 235.924C395.323 235.924 395.408 235.924 395.493 235.924C396.476 235.86 397.397 235.67 398.285 235.353C398.359 235.322 398.438 235.29 398.523 235.258C399.063 235.047 399.576 234.788 400.062 234.482C400.136 234.439 400.205 234.392 400.268 234.339C400.919 233.927 401.506 233.435 402.03 232.881C402.083 232.817 402.141 232.754 402.204 232.69C402.871 231.946 403.426 231.09 403.838 230.17C403.87 230.096 403.902 230.017 403.934 229.933C404.018 229.732 404.098 229.531 404.172 229.33C404.341 228.823 404.468 228.305 404.552 227.777C404.563 227.692 404.574 227.603 404.584 227.508Z" fill="#202E51"/>
<path fill-rule="evenodd" clip-rule="evenodd" d="M404.806 226.287C404.806 226.71 404.78 227.127 404.727 227.539C404.716 227.624 404.706 227.708 404.695 227.793C404.589 228.49 404.415 229.161 404.172 229.806C404.14 229.869 404.113 229.933 404.092 229.996C404.06 230.081 404.023 230.16 403.981 230.234C403.569 231.185 403.013 232.056 402.347 232.833C402.283 232.897 402.225 232.96 402.172 233.023C401.649 233.594 401.046 234.101 400.395 234.545C400.321 234.587 400.247 234.635 400.173 234.688C399.687 234.994 399.168 235.263 398.618 235.496C398.534 235.528 398.449 235.559 398.364 235.591C397.476 235.924 396.524 236.13 395.524 236.193C395.44 236.204 395.35 236.209 395.254 236.209C395.128 236.22 394.995 236.225 394.858 236.225C393.604 236.225 392.398 235.987 391.304 235.559C391.219 235.528 391.134 235.496 391.05 235.464C390.574 235.263 390.119 235.031 389.685 234.767C389.611 234.725 389.537 234.677 389.463 234.624C388.368 233.911 387.416 232.992 386.671 231.914C386.618 231.84 386.57 231.766 386.528 231.692C385.734 230.487 385.195 229.093 385.005 227.587C384.952 227.206 384.92 226.815 384.909 226.414C384.909 226.372 384.909 226.329 384.909 226.287C384.909 225.738 384.952 225.204 385.036 224.686C385.058 224.602 385.073 224.517 385.084 224.433C385.274 223.434 385.623 222.483 386.084 221.611C386.295 221.21 386.538 220.824 386.813 220.454C387.448 219.567 388.241 218.79 389.146 218.156C389.22 218.103 389.289 218.056 389.352 218.013C389.971 217.601 390.621 217.268 391.32 216.999C391.404 216.967 391.489 216.936 391.573 216.904C392.589 216.555 393.684 216.349 394.826 216.349H394.858C394.932 216.349 395.006 216.349 395.08 216.349C397.254 216.397 399.253 217.142 400.871 218.378C400.945 218.431 401.014 218.484 401.078 218.536C402.141 219.376 403.029 220.454 403.664 221.659C403.706 221.733 403.748 221.812 403.791 221.897C403.928 222.171 404.055 222.462 404.172 222.768C404.298 223.096 404.404 223.439 404.489 223.799C404.51 223.883 404.531 223.968 404.552 224.052C404.727 224.765 404.806 225.51 404.806 226.287ZM404.33 227.476C404.383 227.085 404.41 226.689 404.41 226.287C404.41 225.542 404.33 224.829 404.172 224.131C404.161 224.121 404.156 224.116 404.156 224.116C404.135 224.031 404.113 223.947 404.092 223.862C403.934 223.244 403.711 222.642 403.426 222.071C403.384 221.997 403.346 221.918 403.315 221.833C402.696 220.676 401.839 219.646 400.824 218.838C400.75 218.785 400.681 218.732 400.617 218.679C399.903 218.14 399.126 217.712 398.301 217.395C398.216 217.353 398.137 217.321 398.063 217.3C397.127 216.967 396.127 216.777 395.08 216.745C395.006 216.745 394.932 216.745 394.858 216.745H394.826C393.731 216.761 392.668 216.951 391.7 217.284C391.616 217.316 391.531 217.348 391.446 217.379C390.796 217.633 390.161 217.95 389.59 218.346C389.516 218.388 389.442 218.436 389.368 218.489C388.511 219.091 387.765 219.836 387.147 220.692C386.872 221.051 386.628 221.432 386.417 221.833C385.988 222.657 385.671 223.561 385.481 224.496C385.47 224.581 385.454 224.67 385.433 224.765C385.359 225.262 385.322 225.769 385.322 226.287C385.322 226.319 385.322 226.35 385.322 226.382C385.322 226.784 385.348 227.175 385.401 227.555C385.592 228.982 386.099 230.313 386.845 231.47C386.898 231.544 386.951 231.613 387.004 231.676C387.718 232.722 388.622 233.61 389.685 234.291C389.759 234.334 389.833 234.381 389.907 234.434C390.32 234.688 390.754 234.909 391.208 235.1C391.283 235.131 391.362 235.163 391.446 235.195C392.51 235.591 393.652 235.829 394.858 235.829C394.985 235.829 395.106 235.823 395.223 235.813C395.318 235.813 395.408 235.808 395.492 235.797C396.444 235.734 397.365 235.528 398.222 235.211C398.306 235.179 398.391 235.147 398.475 235.116C398.994 234.904 399.491 234.645 399.967 234.339C400.041 234.297 400.115 234.249 400.189 234.196C400.808 233.784 401.379 233.293 401.887 232.738C401.95 232.675 402.008 232.611 402.061 232.548C402.696 231.819 403.235 230.979 403.616 230.075C403.659 230.001 403.696 229.922 403.727 229.837C403.907 229.383 404.055 228.918 404.172 228.443C404.224 228.21 404.267 227.972 404.298 227.729C404.309 227.645 404.32 227.56 404.33 227.476Z" fill="#B84C42"/>
<path d="M358.333 226.129L361.586 217.047L361.348 216.951L358.079 226.049L358.333 226.129Z" fill="#415DA5"/>
<path d="M367.345 230.313L367.44 230.075L358.206 226.113L352.129 217.443L351.923 217.601L358.031 226.319L358.063 226.334L367.345 230.313Z" fill="#415DA5"/>
<path d="M361.776 236.241L362.03 236.161C361.966 235.955 358.396 226.572 358.238 226.176L358.142 225.922L352.399 235.02L352.621 235.163L358.095 226.509C359.396 229.948 361.728 236.082 361.776 236.241Z" fill="#415DA5"/>
<path d="M358.143 225.701L368.392 223.941L368.345 223.672L358.095 225.431L358.143 225.701Z" fill="#415DA5"/>
<path d="M357.349 225.542L357.587 225.463L354.588 216.46L354.334 216.539L357.349 225.542Z" fill="#415DA5"/>
<path d="M358.142 226.35L358.174 226.335L367.583 221.58L367.456 221.342L358.095 226.081L348.02 224.401L347.972 224.654L358.142 226.35Z" fill="#415DA5"/>
<path d="M354.319 235.908C354.382 235.749 356.794 229.821 358.142 226.509L363.363 234.703L363.585 234.561L358.095 225.938L358 226.176C357.841 226.556 354.144 235.638 354.081 235.829L354.319 235.908Z" fill="#415DA5"/>
<path d="M368.218 227.84L368.25 227.587L358.143 226.097L358.095 226.351L368.218 227.84Z" fill="#415DA5"/>
<path d="M358.745 224.876L364.346 218.409L364.156 218.235L358.539 224.702L358.745 224.876Z" fill="#415DA5"/>
<path d="M358.444 236.399L358.714 236.384L357.92 226.921L357.667 226.953L358.444 236.399Z" fill="#415DA5"/>
<path d="M349.701 231.993L358.65 225.812L358.507 225.59L349.559 231.787L349.701 231.993Z" fill="#415DA5"/>
<path d="M365.536 233.229L365.727 233.039L358.254 225.51V215.715H357.984V225.621L365.536 233.229Z" fill="#415DA5"/>
<path d="M360.047 226.224C360.047 225.162 359.19 224.29 358.127 224.29C357.048 224.29 356.191 225.162 356.191 226.224C356.191 227.286 357.048 228.142 358.127 228.142C359.19 228.142 360.047 227.286 360.047 226.224Z" fill="#2C3A64"/>
<path fill-rule="evenodd" clip-rule="evenodd" d="M369.408 226.224C369.408 231.961 365.092 236.732 359.507 237.414C359.496 237.414 359.486 237.414 359.475 237.414C359.031 237.467 358.581 237.493 358.127 237.493C357.672 237.493 357.222 237.467 356.778 237.414C356.767 237.414 356.757 237.414 356.746 237.414C355.366 237.239 354.017 236.827 352.795 236.162C352.658 236.098 352.526 236.03 352.399 235.956C350.733 234.973 349.336 233.562 348.353 231.882C347.353 230.17 346.83 228.221 346.83 226.224C346.83 221.928 349.241 218.172 352.795 216.27C352.996 216.164 353.197 216.064 353.398 215.969C354.842 215.303 356.429 214.938 358.127 214.938C359.348 214.938 360.523 215.129 361.633 215.493C362.141 215.662 362.633 215.863 363.109 216.096C363.426 216.254 363.733 216.423 364.029 216.603C367.25 218.584 369.408 222.15 369.408 226.224ZM367.758 227.508C367.811 227.085 367.842 226.657 367.853 226.224C367.853 225.479 367.758 224.765 367.599 224.068C367.588 223.984 367.573 223.899 367.551 223.814C367.382 223.159 367.149 222.536 366.853 221.944C366.811 221.86 366.769 221.78 366.726 221.706C366.108 220.518 365.235 219.456 364.172 218.616C364.108 218.563 364.04 218.51 363.966 218.457C363.5 218.108 363.003 217.802 362.474 217.538C362.178 217.379 361.876 217.242 361.57 217.126C361.485 217.094 361.4 217.068 361.316 217.047C361.231 217.015 361.141 216.983 361.046 216.951C360.173 216.666 359.221 216.523 358.254 216.508C358.211 216.508 358.169 216.508 358.127 216.508C358.074 216.508 358.026 216.508 357.984 216.508C356.873 216.523 355.794 216.73 354.795 217.078C354.71 217.11 354.631 217.142 354.557 217.173C353.933 217.427 353.345 217.733 352.795 218.093C352.743 218.124 352.695 218.156 352.653 218.188C352.579 218.241 352.505 218.288 352.431 218.33C350.431 219.773 349.003 221.96 348.543 224.48C348.533 224.565 348.522 224.649 348.511 224.734C348.427 225.22 348.385 225.716 348.385 226.224C348.385 227.935 348.845 229.631 349.701 231.105C349.786 231.243 349.871 231.375 349.955 231.502C349.998 231.576 350.045 231.65 350.098 231.724C350.812 232.77 351.732 233.657 352.795 234.355C352.795 234.355 352.801 234.355 352.811 234.355C352.885 234.408 352.959 234.455 353.033 234.497C353.086 234.54 353.139 234.577 353.192 234.608C353.562 234.82 353.943 235.01 354.335 235.179C354.419 235.211 354.504 235.242 354.588 235.274C355.699 235.702 356.905 235.94 358.127 235.94C358.222 235.94 358.317 235.934 358.412 235.924C358.497 235.924 358.581 235.924 358.666 235.924C359.634 235.86 360.57 235.67 361.443 235.353C361.527 235.322 361.612 235.29 361.697 235.258C362.226 235.047 362.733 234.788 363.22 234.482C363.294 234.439 363.368 234.392 363.442 234.339C364.077 233.927 364.664 233.435 365.187 232.881C365.251 232.817 365.309 232.754 365.362 232.69C366.044 231.946 366.584 231.09 366.996 230.17C367.038 230.096 367.075 230.017 367.107 229.933C367.393 229.251 367.599 228.522 367.726 227.777C367.737 227.692 367.747 227.603 367.758 227.508Z" fill="#1D2A4C"/>
<path fill-rule="evenodd" clip-rule="evenodd" d="M367.98 226.287C367.98 226.71 367.953 227.127 367.9 227.539C367.89 227.624 367.879 227.708 367.869 227.793C367.742 228.569 367.536 229.299 367.266 229.996C367.234 230.081 367.197 230.16 367.155 230.234C366.742 231.185 366.187 232.056 365.505 232.833C365.452 232.897 365.394 232.96 365.33 233.023C364.806 233.594 364.219 234.101 363.569 234.545C363.495 234.587 363.421 234.635 363.347 234.688C362.85 234.994 362.326 235.263 361.776 235.496C361.702 235.528 361.623 235.559 361.538 235.591C360.649 235.924 359.682 236.13 358.698 236.193C358.603 236.204 358.513 236.209 358.428 236.209C358.301 236.22 358.169 236.225 358.031 236.225C356.778 236.225 355.572 235.987 354.461 235.559C354.377 235.528 354.297 235.496 354.223 235.464C353.747 235.263 353.293 235.031 352.859 234.767C352.838 234.756 352.817 234.746 352.795 234.735C352.743 234.703 352.69 234.666 352.637 234.624C351.542 233.911 350.574 232.992 349.828 231.914C349.786 231.84 349.738 231.766 349.686 231.692C348.67 230.139 348.083 228.284 348.083 226.287C348.083 225.738 348.125 225.204 348.21 224.686C348.221 224.602 348.236 224.517 348.258 224.433C348.749 221.849 350.241 219.614 352.319 218.156C352.383 218.103 352.452 218.056 352.526 218.013C352.61 217.95 352.7 217.892 352.795 217.839C353.324 217.511 353.89 217.231 354.493 216.999C354.578 216.967 354.657 216.936 354.731 216.904C355.509 216.634 356.334 216.46 357.19 216.381C357.455 216.36 357.719 216.349 357.984 216.349H358.031C358.105 216.349 358.18 216.349 358.254 216.349C358.835 216.36 359.407 216.423 359.967 216.539C360.359 216.613 360.734 216.708 361.094 216.825H361.11C361.596 216.994 362.067 217.194 362.522 217.427C363.061 217.691 363.569 218.008 364.045 218.378C364.108 218.431 364.177 218.484 364.251 218.536C365.314 219.376 366.187 220.454 366.837 221.659C366.88 221.733 366.917 221.812 366.948 221.897C367.255 222.499 367.493 223.133 367.662 223.799C367.684 223.883 367.705 223.968 367.726 224.052C367.9 224.765 367.98 225.51 367.98 226.287ZM367.504 227.476C367.557 227.085 367.583 226.689 367.583 226.287C367.583 225.542 367.488 224.813 367.329 224.116C367.308 224.031 367.287 223.947 367.266 223.862C367.107 223.244 366.869 222.642 366.599 222.071C366.557 221.997 366.515 221.918 366.472 221.833C365.854 220.676 365.013 219.646 363.981 218.838C363.918 218.785 363.849 218.732 363.775 218.679C363.331 218.341 362.86 218.045 362.363 217.791C362.067 217.644 361.771 217.511 361.474 217.395C361.39 217.353 361.305 217.321 361.221 217.3C361.136 217.268 361.046 217.237 360.951 217.205C360.094 216.936 359.19 216.777 358.254 216.745C358.18 216.745 358.105 216.745 358.031 216.745H357.984C356.889 216.761 355.842 216.951 354.858 217.284C354.784 217.316 354.705 217.348 354.62 217.379C353.975 217.633 353.367 217.945 352.795 218.315C352.785 218.325 352.774 218.336 352.764 218.346C352.69 218.388 352.616 218.436 352.542 218.489C350.558 219.884 349.13 222.023 348.654 224.496C348.633 224.581 348.617 224.67 348.607 224.765C348.522 225.262 348.48 225.769 348.48 226.287C348.48 228.189 349.051 229.964 350.019 231.47C350.072 231.544 350.119 231.613 350.162 231.676C350.86 232.69 351.764 233.578 352.795 234.244C352.817 234.265 352.838 234.281 352.859 234.291C352.933 234.334 353.007 234.381 353.081 234.434C353.494 234.688 353.922 234.909 354.366 235.1C354.451 235.131 354.535 235.163 354.62 235.195C355.683 235.591 356.826 235.829 358.031 235.829C358.158 235.829 358.28 235.823 358.396 235.813C358.481 235.813 358.571 235.808 358.666 235.797C359.618 235.734 360.538 235.528 361.395 235.211C361.48 235.179 361.559 235.147 361.633 235.116C362.162 234.904 362.664 234.645 363.14 234.339C363.204 234.297 363.273 234.249 363.347 234.196C363.981 233.784 364.553 233.293 365.06 232.738C365.113 232.675 365.171 232.611 365.235 232.548C365.87 231.819 366.393 230.979 366.79 230.075C366.822 230.001 366.853 229.922 366.885 229.837C367.155 229.172 367.361 228.474 367.472 227.729C367.483 227.645 367.493 227.56 367.504 227.476Z" fill="#B84C42"/>
<path d="M387.353 199.707C387.353 199.707 389.749 203.495 386.798 205.571C383.846 207.663 373.898 208.646 374.39 209.058C375.881 210.295 377.23 212.181 377.167 223.561L376.421 223.941C376.421 223.941 369.344 208.535 369.82 206.697C370.122 205.476 380.467 198.898 387.353 199.707Z" fill="#FFB27D"/>
<path d="M381.625 207.584C381.625 207.584 387.654 206.585 388.273 204.462C388.733 202.877 388.876 202.227 386.147 197.107C386.147 197.107 385.005 199.263 379.055 198.771C379.055 198.771 379.086 199.041 379.086 199.421C379.071 200.055 378.975 200.959 378.484 201.212C378.468 201.212 378.452 201.212 378.452 201.228C377.658 201.577 376.453 202.306 376.262 202.369C376.262 202.369 379.927 203.067 381.625 207.584Z" fill="#35488B"/>
<path d="M378.484 201.213C381.133 200.436 383.72 200.515 385.259 199.089C383.006 198.502 380.292 199.421 379.087 199.421C379.071 200.055 378.976 200.959 378.484 201.213Z" fill="#2C3A64"/>
<path d="M378.166 224.1L377.547 224.401C377.309 224.464 377.135 224.48 376.913 224.559C376.564 224.67 376.484 224.876 376.468 224.924L373.819 226.192C373.708 226.129 373.676 225.875 373.66 225.685C373.644 225.558 373.692 225.431 373.787 225.352C374.041 225.13 374.549 224.797 374.834 224.1C374.993 223.704 375.754 222.499 375.754 222.499C375.786 222.483 375.913 222.467 376.611 222.642C376.976 222.737 377.151 222.008 377.151 222.008C377.151 222.008 377.262 222.039 377.389 222.134C377.484 222.214 377.595 222.325 377.643 222.515C377.722 222.768 378.055 223.149 378.293 223.387C378.452 223.545 378.563 223.656 378.563 223.656C378.563 223.656 378.658 223.783 378.166 224.1Z" fill="#B84C42"/>
<path d="M377.389 222.134C377.293 222.309 377.071 222.657 376.881 222.784C376.627 222.959 375.754 222.499 375.754 222.499C375.786 222.483 375.913 222.467 376.611 222.642C376.976 222.737 377.151 222.008 377.151 222.008C377.151 222.008 377.262 222.039 377.389 222.134Z" fill="#AA3E39"/>
<path d="M378.166 224.1L377.547 224.401C377.309 224.464 377.135 224.48 376.913 224.559C376.564 224.67 376.484 224.876 376.468 224.924L373.819 226.192C373.708 226.129 373.676 225.875 373.66 225.685C373.708 225.574 373.914 225.954 373.977 225.986C374.057 226.033 376.135 224.987 376.214 224.829C376.294 224.686 376.595 224.353 377.151 224.227C377.658 224.131 378.166 223.545 378.293 223.386C378.452 223.545 378.563 223.656 378.563 223.656C378.563 223.656 378.658 223.783 378.166 224.1Z" fill="#AA3E39"/>
<path d="M363.188 211.61C363.347 211.182 363.743 210.913 364.172 210.897C369.043 199.707 369.091 199.612 369.17 199.501L369.868 200.896C369.916 200.832 358.841 225.685 358.841 225.685L357.762 225.241L363.188 211.61Z" fill="#35488B"/>
<path d="M374.803 201.165C375.041 200.388 374.596 199.564 373.819 199.326C373.041 199.105 372.216 199.548 371.978 200.325C371.756 201.102 372.2 201.926 372.978 202.148C373.755 202.385 374.58 201.942 374.803 201.165Z" fill="#415DA5"/>
<path d="M365.695 198.581C365.933 197.805 365.489 196.996 364.711 196.759C363.934 196.537 363.109 196.98 362.871 197.757C362.649 198.534 363.093 199.342 363.87 199.58C364.648 199.818 365.473 199.374 365.695 198.581Z" fill="#415DA5"/>
<path d="M364.6 199.58L373.168 201.72L373.311 199.992L364.743 197.852L364.6 199.58Z" fill="#415DA5"/>
<path d="M372.962 197.868C372.962 197.868 372.169 198.407 371.597 198.375C371.026 198.36 370.296 198.581 370.296 198.581C370.296 198.581 369.535 198.819 369.471 199.723C369.471 199.723 369.471 199.976 370.661 199.612C370.931 199.532 371.55 199.675 371.772 199.612C371.978 199.532 372.629 198.835 373.2 198.851L372.962 197.868Z" fill="#FFB27D"/>
<path d="M368.662 196.854C368.662 196.854 367.853 197.377 367.282 197.361C366.71 197.329 365.981 197.567 365.981 197.567C365.981 197.567 365.219 197.789 365.156 198.692C365.156 198.692 365.171 199.073 366.346 198.581C366.679 198.455 367.234 198.661 367.456 198.581C367.662 198.518 368.456 197.916 368.995 197.773L368.662 196.854Z" fill="#E8945B"/>
<path d="M378.817 175.218C379.991 175.424 380.546 176.058 381.292 177.881C382.069 179.767 381.117 181.511 380.372 181.273C379.896 181.13 379.721 181.955 379.721 181.955L375.136 177.96C375.136 177.96 375.802 175.028 378.817 175.218Z" fill="#2C3A64"/>
<path d="M376.135 186.123C376.135 186.123 377.738 187.011 377.547 189.293C377.357 191.56 375.263 195.142 373.676 196.029C372.423 196.743 368.789 197.836 368.789 197.836L368.662 196.854C368.662 196.854 371.613 194.92 372.248 194.254C373.628 192.844 374.929 185.568 376.135 186.123Z" fill="#E8945B"/>
<path d="M376.294 191.227C376.358 191.75 376.5 192.178 376.675 192.606C376.802 192.955 376.96 193.288 377.135 193.636C377.611 194.666 378.753 195.174 378.801 197.139C378.817 197.821 384.545 194.952 384.592 192.574C384.592 192.574 384.592 192.569 384.592 192.558C384.592 192.447 384.608 192.13 384.624 191.734C384.672 190.736 384.735 189.135 384.751 188.342C384.751 188.321 384.751 188.3 384.751 188.279C384.767 187.946 384.767 187.692 384.783 187.629C384.021 184.364 382.244 184.348 381.641 184.348C381.567 184.359 381.488 184.364 381.403 184.364C381.07 184.38 380.753 184.221 380.562 183.952C380.229 183.476 379.848 182.636 379.61 181.511L379.483 181.574L377.167 182.557C377.167 182.557 377.373 183.302 377.532 184.031C377.595 184.332 377.643 184.633 377.674 184.855C377.69 185.093 377.563 185.299 377.341 185.378C377.31 185.473 375.929 188.628 376.294 191.227Z" fill="#FFB27D"/>
<path d="M376.675 192.606C376.802 192.955 376.96 193.287 377.135 193.636C377.611 194.666 378.753 195.174 378.801 197.139C378.833 197.139 378.87 197.144 378.912 197.155C383.148 197.472 384.592 192.558 384.592 192.558C384.592 192.447 384.608 192.13 384.624 191.734H376.976C376.976 191.734 376.818 192.083 376.675 192.606Z" fill="#E8945B"/>
<path d="M375.596 190.276C375.617 190.339 375.638 190.403 375.659 190.466C376.405 192.21 378.023 201.212 378.023 201.212C378.039 201.197 384.656 201.64 387.274 198.027C387.401 198.423 386.782 196.22 385.814 193.256C385.084 191.037 384.719 189.468 384.751 188.342C384.751 188.321 384.751 188.3 384.751 188.279C384.582 188.152 384.418 188.025 384.259 187.898C383.783 187.518 383.418 187.201 383.402 186.789C383.402 186.63 383.413 186.472 383.434 186.313C383.445 186.239 383.46 186.165 383.482 186.091C383.624 185.299 383.989 184.586 383.989 184.586C383.164 184.205 381.641 184.348 381.641 184.348C381.641 184.348 381.07 185.616 379.864 186.377C379.531 186.583 378.325 187.122 377.722 186.567C377.325 186.202 377.325 185.457 377.341 185.378C375.977 185.854 375.469 186.282 375.469 186.282C376.262 186.836 375.025 188.58 375.596 190.276Z" fill="#739AF0"/>
<path d="M377.167 182.557C377.167 182.557 377.373 183.302 377.532 184.031C378.88 183.698 379.325 182.319 379.483 181.574L377.167 182.557Z" fill="#E8945B"/>
<path d="M376.849 183.334C376.849 183.334 380.07 182.716 379.642 180.718C379.229 178.737 379.372 177.311 377.294 177.628C375.231 177.929 374.993 178.769 374.977 179.466C374.945 180.164 376.008 183.445 376.849 183.334Z" fill="#FFB27D"/>
<path d="M374.834 178.341C375.199 177.644 375.596 177.691 375.85 177.834C377.405 176.502 378.817 177.691 378.817 177.691C379.34 179.07 380.546 179.672 380.546 179.672C380.546 179.672 380.038 180.164 378.61 180.1C378.182 180.069 377.754 179.863 377.373 179.577C378.103 180.37 378.975 180.877 378.975 180.877C377.214 180.465 376.104 178.373 375.992 178.151C375.834 178.357 375.532 178.816 375.485 179.213C375.437 179.767 375.58 180.814 375.278 180.845C375.278 180.845 374.279 179.403 374.834 178.341Z" fill="#2C3A64"/>
<path d="M372.962 197.868L373.2 198.851C373.2 198.851 378.595 198.122 380.356 197.091C382.117 196.077 384.783 190.054 384.989 187.502C384.999 187.375 385.005 187.249 385.005 187.122C385.068 184.919 383.989 184.586 383.989 184.586C383.561 184.38 383.021 185.125 382.45 186.282C381.244 188.723 379.912 192.986 379.118 194.254C378.499 195.237 372.962 197.868 372.962 197.868Z" fill="#FFB27D"/>
<path d="M382.45 186.282C383.926 185.933 385.005 187.122 385.005 187.122C385.068 184.919 383.989 184.586 383.989 184.586C383.561 184.38 383.021 185.125 382.45 186.282Z" fill="#739AF0"/>
<path d="M375.469 186.282C375.469 186.282 374.929 186.789 374.723 187.914C374.723 187.914 375.532 187.93 375.897 188.707C375.897 188.707 376.199 186.409 375.469 186.282Z" fill="#739AF0"/>
<path d="M378.595 175.932C378.595 175.932 380.372 173.729 382.609 174.347C384.846 174.965 386.115 177.548 387.163 177.12C388.908 176.407 389.4 178.753 388.702 180.449C388.083 181.939 385.449 182.509 383.862 180.877C382.704 179.688 381.102 174.616 379.134 176.312C377.167 178.008 378.595 175.932 378.595 175.932Z" fill="#2C3A64"/>
<path d="M431.605 237.905V238.08C431.605 238.349 431.383 238.571 431.113 238.571H0.491868C0.222134 238.571 0 238.349 0 238.08V237.905C0 237.636 0.222134 237.414 0.491868 237.414H431.113C431.383 237.414 431.605 237.636 431.605 237.905Z" fill="#233862"/>
<path d="M132.566 209.724L134.073 208.567L131.36 208.551L132.566 209.724Z" fill="#1D3F77"/>
<path d="M206.568 218.584L207.6 217.792H204.172L206.568 218.584Z" fill="#1D3F77"/>
</svg>
