<svg width="226" height="58" viewBox="0 0 226 58" fill="none" xmlns="http://www.w3.org/2000/svg">
<path d="M224.68 1H1V57H224.68V1Z" stroke="#50CD89" stroke-width="2"/>
<path d="M57 1H1V57H57V1Z" fill="#50CD89"/>
<g clip-path="url(#clip0_57_1276)">
<path d="M23.5455 15.8005C20.1924 13.5336 16.6505 13.0614 14.856 14.856C12.5891 17.1228 13.9115 22.0815 17.8312 26.0012C21.7509 29.9209 26.7568 31.2432 28.9764 28.9764C28.9764 25.8123 33.4628 23.2149 38.9882 23.2149C44.5136 23.2149 49 25.8123 49 28.9764C49 31.5266 46.1665 33.6989 42.1995 34.4545M15.8005 23.5455C11.8335 24.3011 9 26.4734 9 28.9764C9 32.1405 13.4864 34.7379 19.0118 34.7379C24.5372 34.7379 29.0236 32.1405 29.0236 28.9764M29.0236 28.9764C32.1877 28.9764 34.7851 33.4628 34.7851 38.9882C34.7851 44.5136 32.1877 49 29.0236 49C26.4734 49 24.3011 46.1665 23.5455 42.1995M29.0236 28.9764C26.7568 26.7096 28.0791 21.7037 31.9988 17.8312C35.9185 13.9587 40.8772 12.5891 43.144 14.856C44.9386 16.6505 44.4664 20.1924 42.1995 23.5455M15.8005 34.4545C13.5336 37.8076 13.0614 41.3495 14.856 43.144C17.1228 45.4109 22.0815 44.0413 26.0012 40.1688C29.9209 36.2491 31.2432 31.2904 28.9764 29.0236C25.8123 29.0236 23.2149 24.5372 23.2149 19.0118C23.2149 13.4864 25.8123 9 28.9764 9C31.5266 9 33.6989 11.8335 34.4545 15.8005M34.4545 42.1995C37.8076 44.4664 41.3495 44.9386 43.144 43.144C45.4109 40.8772 44.0413 35.9185 40.1688 31.9988C36.2491 28.0791 31.2904 26.7568 29.0236 29.0236" stroke="white" stroke-width="4" stroke-miterlimit="10"/>
</g>
<path d="M62 37.1099V20.9599H74.73V24.3299H66.21V27.3399H73.91V30.6799L66.21 30.7099V33.7499H74.96V37.1099H62ZM85.58 29.1899C85 28.3299 84.1867 27.8999 83.14 27.8999C82.4067 27.8999 81.81 28.1799 81.35 28.7399C80.8833 29.2999 80.65 30.0232 80.65 30.9099C80.65 31.8166 80.8833 32.5466 81.35 33.0999C81.81 33.6532 82.4067 33.9299 83.14 33.9299C84.28 33.9299 85.0933 33.4632 85.58 32.5299L88.6 34.2499C88.1067 35.2032 87.37 35.9432 86.39 36.4699C85.41 36.9899 84.26 37.2499 82.94 37.2499C81.66 37.2499 80.5367 36.9899 79.57 36.4699C78.6033 35.9432 77.8567 35.2032 77.33 34.2499C76.7967 33.3032 76.53 32.1999 76.53 30.9399C76.53 29.6599 76.8 28.5332 77.34 27.5599C77.8733 26.5866 78.63 25.8332 79.61 25.2999C80.5833 24.7732 81.7067 24.5099 82.98 24.5099C84.2267 24.5099 85.3333 24.7666 86.3 25.2799C87.2667 25.7932 88.02 26.5199 88.56 27.4599L85.58 29.1899ZM95.93 24.5099C97.2767 24.5099 98.4667 24.7732 99.5 25.2999C100.527 25.8332 101.323 26.5799 101.89 27.5399C102.463 28.4999 102.75 29.6099 102.75 30.8699C102.75 32.1432 102.463 33.2599 101.89 34.2199C101.323 35.1799 100.527 35.9232 99.5 36.4499C98.4667 36.9832 97.2767 37.2499 95.93 37.2499C94.5767 37.2499 93.3867 36.9832 92.36 36.4499C91.3267 35.9232 90.53 35.1799 89.97 34.2199C89.41 33.2599 89.13 32.1432 89.13 30.8699C89.13 29.6099 89.41 28.4999 89.97 27.5399C90.53 26.5799 91.3267 25.8332 92.36 25.2999C93.3867 24.7732 94.5767 24.5099 95.93 24.5099ZM95.93 27.8299C95.13 27.8299 94.4833 28.1132 93.99 28.6799C93.4967 29.2466 93.25 29.9899 93.25 30.9099C93.25 31.8499 93.4967 32.6032 93.99 33.1699C94.4833 33.7366 95.13 34.0199 95.93 34.0199C96.7433 34.0199 97.3933 33.7366 97.88 33.1699C98.3733 32.6032 98.62 31.8499 98.62 30.9099C98.62 29.9899 98.37 29.2466 97.87 28.6799C97.37 28.1132 96.7233 27.8299 95.93 27.8299ZM115.97 25.8199C115.11 25.3132 114.19 24.8999 113.21 24.5799C112.237 24.2599 111.42 24.0999 110.76 24.0999C110.24 24.0999 109.83 24.1932 109.53 24.3799C109.23 24.5732 109.08 24.8532 109.08 25.2199C109.08 25.5732 109.21 25.8699 109.47 26.1099C109.73 26.3499 110.053 26.5432 110.44 26.6899C110.82 26.8366 111.387 27.0232 112.14 27.2499C113.26 27.5699 114.187 27.8932 114.92 28.2199C115.647 28.5399 116.273 29.0332 116.8 29.6999C117.32 30.3732 117.58 31.2466 117.58 32.3199C117.58 33.3932 117.297 34.3099 116.73 35.0699C116.157 35.8299 115.377 36.4032 114.39 36.7899C113.397 37.1699 112.293 37.3599 111.08 37.3599C109.747 37.3599 108.417 37.1266 107.09 36.6599C105.757 36.1932 104.607 35.5532 103.64 34.7399L105.28 31.4399C106.093 32.1666 107.057 32.7599 108.17 33.2199C109.283 33.6799 110.27 33.9099 111.13 33.9099C111.757 33.9099 112.253 33.7932 112.62 33.5599C112.98 33.3332 113.16 32.9966 113.16 32.5499C113.16 32.1832 113.023 31.8766 112.75 31.6299C112.483 31.3832 112.147 31.1866 111.74 31.0399C111.333 30.8932 110.76 30.7199 110.02 30.5199C108.92 30.2132 108.007 29.9032 107.28 29.5899C106.56 29.2766 105.943 28.7999 105.43 28.1599C104.917 27.5266 104.66 26.6799 104.66 25.6199C104.66 24.6199 104.923 23.7432 105.45 22.9899C105.983 22.2366 106.737 21.6566 107.71 21.2499C108.683 20.8432 109.817 20.6399 111.11 20.6399C112.277 20.6399 113.427 20.8066 114.56 21.1399C115.7 21.4666 116.7 21.9066 117.56 22.4599L115.97 25.8199ZM127.78 24.6499H131.88V37.1099H127.78V35.0799C126.94 36.5266 125.613 37.2632 123.8 37.2899C122.447 37.2899 121.367 36.8566 120.56 35.9899C119.753 35.1232 119.35 33.9699 119.35 32.5299V24.6499H123.45V31.3499C123.45 32.0566 123.63 32.6099 123.99 33.0099C124.357 33.4099 124.847 33.6099 125.46 33.6099C126.18 33.5966 126.747 33.3299 127.16 32.8099C127.573 32.2966 127.78 31.6266 127.78 30.7999V24.6499ZM143.24 24.4899C144.607 24.4899 145.7 24.9199 146.52 25.7799C147.347 26.6399 147.76 27.7999 147.76 29.2599V37.1099H143.68V30.4299C143.68 29.7232 143.487 29.1666 143.1 28.7599C142.72 28.3532 142.207 28.1499 141.56 28.1499C140.887 28.1632 140.33 28.3866 139.89 28.8199C139.45 29.2466 139.193 29.8132 139.12 30.5199V37.1099H135.02V24.6499H139.12V26.6799C139.567 25.9532 140.137 25.4066 140.83 25.0399C141.53 24.6732 142.333 24.4899 143.24 24.4899Z" fill="#50CD89"/>
<path d="M156.98 20.99C158.993 20.99 160.55 21.4633 161.65 22.41C162.743 23.3633 163.29 24.7 163.29 26.42C163.29 28.22 162.74 29.6133 161.64 30.6C160.533 31.5933 158.98 32.09 156.98 32.09H152.97V37.11H150.76V20.99H156.98ZM156.89 30.08C158.27 30.08 159.33 29.7767 160.07 29.17C160.81 28.5633 161.18 27.67 161.18 26.49C161.18 25.3367 160.81 24.4667 160.07 23.88C159.33 23.2867 158.27 22.99 156.89 22.99L152.97 23.01V30.08H156.89ZM171.08 24.86C172.293 24.86 173.373 25.12 174.32 25.64C175.26 26.16 175.997 26.8867 176.53 27.82C177.057 28.7467 177.32 29.81 177.32 31.01C177.32 32.2033 177.057 33.27 176.53 34.21C175.997 35.1433 175.26 35.8733 174.32 36.4C173.373 36.92 172.293 37.18 171.08 37.18C169.853 37.18 168.767 36.92 167.82 36.4C166.873 35.8733 166.137 35.1467 165.61 34.22C165.077 33.2933 164.81 32.2233 164.81 31.01C164.81 29.81 165.077 28.7467 165.61 27.82C166.137 26.8867 166.873 26.16 167.82 25.64C168.767 25.12 169.853 24.86 171.08 24.86ZM171.08 26.72C170.28 26.72 169.57 26.9033 168.95 27.27C168.33 27.6433 167.847 28.1567 167.5 28.81C167.153 29.4567 166.98 30.1967 166.98 31.03C166.98 31.8767 167.153 32.63 167.5 33.29C167.847 33.95 168.33 34.46 168.95 34.82C169.57 35.18 170.28 35.36 171.08 35.36C171.86 35.36 172.563 35.18 173.19 34.82C173.81 34.46 174.293 33.95 174.64 33.29C174.987 32.63 175.16 31.8767 175.16 31.03C175.16 30.1967 174.987 29.4567 174.64 28.81C174.293 28.1567 173.81 27.6433 173.19 27.27C172.563 26.9033 171.86 26.72 171.08 26.72ZM182.39 37.11L177.88 24.92H180.11L183.52 34.99L186.88 24.92H189.12L192.5 34.99L195.87 24.92H198.08L193.59 37.11H191.35L187.99 27.53L184.62 37.11H182.39ZM204.55 24.86C206.437 24.86 207.863 25.4167 208.83 26.53C209.803 27.6433 210.29 29.19 210.29 31.17C210.29 31.4767 210.28 31.7067 210.26 31.86H200.63C200.803 32.9467 201.26 33.8133 202 34.46C202.747 35.1067 203.667 35.43 204.76 35.43C205.48 35.43 206.15 35.3 206.77 35.04C207.397 34.78 207.94 34.41 208.4 33.93L209.57 35.15C208.97 35.7967 208.25 36.2967 207.41 36.65C206.563 37.0033 205.627 37.18 204.6 37.18C203.4 37.18 202.337 36.9233 201.41 36.41C200.477 35.8967 199.753 35.17 199.24 34.23C198.727 33.2967 198.47 32.23 198.47 31.03C198.47 29.83 198.727 28.7667 199.24 27.84C199.753 26.9067 200.47 26.1767 201.39 25.65C202.317 25.1233 203.37 24.86 204.55 24.86ZM200.61 30.2H208.35C208.29 29.0933 207.92 28.2233 207.24 27.59C206.567 26.95 205.677 26.63 204.57 26.63C203.497 26.63 202.603 26.9533 201.89 27.6C201.177 28.24 200.75 29.1067 200.61 30.2ZM215.35 27.55C215.75 26.6767 216.32 26.0133 217.06 25.56C217.793 25.1067 218.667 24.8733 219.68 24.86V26.93C218.44 26.8833 217.437 27.2067 216.67 27.9C215.897 28.5867 215.457 29.5133 215.35 30.68V37.11H213.21V24.92H215.35V27.55Z" fill="#50CD89"/>
<defs>
<clipPath id="clip0_57_1276">
<rect width="46" height="46" fill="white" transform="translate(6 6)"/>
</clipPath>
</defs>
</svg>
