<svg width="244" height="359" viewBox="0 0 244 359" fill="none" xmlns="http://www.w3.org/2000/svg">
<g clip-path="url(#clip0_2_1376)">
<path fill-rule="evenodd" clip-rule="evenodd" d="M134.841 229.082C135.258 233.42 134.405 237.563 132.372 241.066L131.711 242.205L132.97 242.644C135.26 243.442 137.807 243.83 140.757 243.83C143.793 243.83 146.949 243.409 149.486 243.07L151.11 242.853L150.312 241.448C149.67 240.318 149.552 238.949 149.426 237.5C149.392 237.111 149.357 236.708 149.311 236.31C146.908 214.905 143.87 193.22 140.932 172.249C140.159 166.731 139.359 161.025 138.584 155.412L136.359 155.497C135.761 165.887 135.18 176.452 134.619 186.669C134.372 191.162 134.124 195.655 133.875 200.147C132.988 211.505 133.294 220.701 134.841 229.082ZM135.749 357.442C132.481 357.442 129.208 357.103 126.02 356.434C116.042 354.347 106.978 349.423 99.2646 344.972C98.8708 344.75 98.4712 344.527 98.061 344.299C95.0412 342.615 91.2833 340.521 88.9282 337.965C86.3446 335.162 85.8999 332.369 87.529 329.175L87.7868 328.67L87.5175 328.17C85.8306 325.041 85.956 321.171 87.8224 318.757L89.391 316.729L86.812 317.002C84.2117 317.277 81.5908 317.65 79.056 318.01C76.2438 318.41 73.3353 318.823 70.471 319.1L69.675 319.177L69.492 319.941C69.39 320.366 69.2642 320.625 68.3806 320.625C67.6144 320.625 66.5847 320.401 65.4949 320.164C64.1423 319.871 62.6092 319.538 61.1308 319.538C60.4806 319.538 59.8957 319.6 59.3425 319.727L59.0206 319.801L58.7916 320.035C58.6451 320.184 58.3957 320.277 58.1409 320.277C57.9482 320.277 57.7695 320.223 57.65 320.13L57.2888 319.849L56.8305 319.899C48.8455 320.773 41.96 322.306 35.7816 324.586L35.7536 324.596L35.6196 324.654C33.3855 325.615 31.0757 326.608 28.972 326.608C27.4342 326.608 26.1855 326.087 25.0418 324.968L24.7187 324.652L24.2628 324.647C19.6372 324.605 17.5237 319.23 17.2314 315.628L17.1947 315.174L16.8421 314.879C8.78081 308.139 4.0218 298.881 2.29257 286.577C0.717666 275.369 1.92689 263.553 3.31747 253.472C6.53419 227.346 9.88921 203.926 18.4175 181.713L18.816 180.675L17.7542 180.295C14.0708 178.976 11.2557 177.403 9.14797 175.484L9.00204 175.351L8.81827 175.276C5.79743 174.039 4.31795 169.474 3.93644 168.105L3.90587 167.994L3.85257 167.893C3.23621 166.714 3.094 165.076 3.46266 163.396L3.50217 163.215L3.47925 163.031C3.2802 161.437 3.94091 159.77 4.64039 158.005C4.96003 157.199 5.2903 156.365 5.53166 155.535C6.36142 153.163 7.19025 150.748 7.99205 148.413C9.79098 143.174 11.6509 137.757 13.6323 132.487L13.9033 131.766L13.3063 131.27C12.2872 130.421 12.6275 129.423 14.0971 127.036C14.4443 126.472 14.7727 125.938 15.0225 125.413C16.9062 122.169 18.9251 119.056 21.0241 116.157L21.0673 116.098L21.1018 116.034C31.8725 95.9899 50.9776 84.9515 74.8977 84.9515L75.3853 84.9524L75.6548 84.7909C80.138 82.1046 83.3383 77.4954 85.4386 70.7001L85.5057 70.4835L85.4798 70.2584C85.4079 69.6321 85.329 68.811 85.356 68.0142C85.4244 65.9963 86.2182 64.1955 87.5337 63.0736C90.0295 60.945 93.8184 60.7668 97.4854 60.7668H98.0119C102.7 60.7811 106.01 61.5921 108.429 63.3206C111.239 65.3288 112.791 68.5706 113.176 73.231C113.291 74.6256 113.287 76.0703 113.284 77.4674L113.283 77.8573L113.33 78.0121C113.667 79.1197 114.062 80.184 114.503 81.1757L114.957 82.1959L115.99 81.7359C116.658 81.4386 117.504 81.2857 118.578 81.2685C118.888 81.2613 119.19 81.258 119.495 81.258C121.989 81.258 124.657 81.4849 127.238 81.7043C129.182 81.8697 131.193 82.0407 133.139 82.1167L133.166 82.1178C133.166 82.1178 133.435 82.1161 133.555 82.1161C138.285 82.1161 141.714 82.8573 144.346 84.4489C147.18 86.1624 149.218 88.9125 150.759 93.1037C159.023 117.127 162.421 143.004 165.418 165.834C167.118 177.773 167.635 190.012 168.135 201.848C168.663 214.341 169.208 227.26 171.141 239.888L171.294 240.886L172.32 240.82C176.836 240.53 181.716 239.904 186.883 239.242C194.733 238.236 202.851 237.195 210.698 237.195C221.67 237.195 229.99 239.346 236.127 243.771C240.406 247.789 242.62 253.228 242.529 259.506C242.4 268.376 237.692 278.183 230.534 284.489L230.507 284.514C221.458 293.031 204.942 300.419 181.417 306.471C159.784 312.036 137.407 315.061 125.994 316.368L123.169 316.692L125.462 318.344C126.39 319.012 127.237 319.601 128.05 320.144L128.576 320.493L129.151 320.23C130.791 319.481 131.833 319.324 132.418 319.324C132.937 319.324 133.564 319.436 133.598 319.972C133.621 320.322 133.37 320.843 132.842 320.909L130.034 321.258L132.327 322.887C133.858 323.976 136.143 325.287 138.788 326.806C147.443 331.775 160.524 339.285 158.274 345.879L158.126 346.312L158.335 346.721C158.94 347.902 158.992 348.997 158.493 350.071C157.425 352.373 154.084 354.12 151.247 354.83L151.198 354.842L151.151 354.859C146.214 356.573 141.032 357.442 135.749 357.442Z" fill="white"/>
<mask id="mask0_2_1376" style="mask-type:luminance" maskUnits="userSpaceOnUse" x="0" y="65" width="244" height="294">
<path d="M0.244659 65.039H243.459V358.463H0.244659V65.039Z" fill="white"/>
</mask>
<g mask="url(#mask0_2_1376)">
<path fill-rule="evenodd" clip-rule="evenodd" d="M152.141 242.575C152.72 239.425 151.621 236.172 151.431 233C148.553 210.374 145.375 187.764 141.165 165.336C140.132 159.969 139.089 154.624 137.892 149.286C138.073 146.053 138.231 142.821 138.336 139.586C144.179 135.926 150.767 133.557 157.581 132.362C159.423 142.585 161.262 152.8 162.539 163.114C166.518 188.642 164.248 214.619 168.108 240.118C162.753 240.716 157.44 241.601 152.141 242.575ZM162.418 262.463C158.392 263.53 154.361 264.551 150.302 265.492C143.079 267.168 135.858 268.85 128.654 270.6C125.058 271.474 121.454 272.322 117.865 273.224C116.162 273.652 114.47 274.127 112.804 274.679C111.972 274.954 111.159 275.269 110.347 275.594C109.635 275.877 108.963 276.269 108.18 276.213C108.134 276.209 108.105 276.164 108.128 276.123C108.537 275.372 109.381 275.017 110.126 274.638C110.947 274.219 111.803 273.86 112.66 273.518C114.562 272.757 116.544 272.198 118.521 271.656C125.704 269.686 132.95 267.921 140.188 266.155C147.46 264.381 154.733 262.682 162.102 261.338C162.845 261.203 163.166 262.265 162.418 262.463ZM126.749 323.121C127.071 323.035 127.395 322.956 127.718 322.881C132.884 327.167 157.216 338.297 155.365 344.945C154.711 345.771 153.145 345.96 152.156 346.227C150.432 346.691 148.691 347.094 146.933 347.412C141.252 348.442 135.369 348.622 129.695 347.447C127.608 347.131 125.723 346.243 123.822 345.385C117.679 342.693 110.914 339.718 104.8 337.047C97.0339 333.979 83.4115 327.933 89.0142 317.731C94.3223 323.68 101.06 323.161 104.454 315.767C105.624 313.522 106.645 310.496 109.395 309.589C110.845 308.612 112.699 308.409 113.911 309.497C113.998 309.362 114.077 309.172 114.119 309.003C115.485 310.941 116.663 312.98 118.264 314.751C117.715 314.781 111.993 319.001 113.681 319.003C115.713 317.96 117.732 317.091 119.925 316.529C121.515 318.123 123.263 319.605 125.075 320.975C123.315 322.133 121.735 323.55 120.464 325.089C120.354 325.224 120.488 325.4 120.652 325.327C122.626 324.45 124.655 323.68 126.749 323.121ZM152.939 351.867C133.177 360.712 112.256 350.862 95.4031 340.362C91.5135 338.198 86.3974 335.13 87.1838 330.035C90.0486 334.212 94.7713 336.59 99.3042 338.652C106.92 342.082 114.585 345.402 122.22 348.79C122.941 351.173 126.389 351.265 128.473 351.794C137.749 353.586 147.72 352.695 156.45 349.121C155.945 350.612 154.292 351.296 152.939 351.867ZM74.0925 317.426C73.6044 317.488 73.1159 317.544 72.6277 317.6C72.6779 316.956 72.2885 316.312 71.6623 316.112C71.9437 314.747 72.0479 313.337 71.8971 311.952C72.7135 314.054 75.3487 313.416 77.0226 312.81C79.4138 312.163 81.7901 311.466 84.1534 310.723C85.0853 312.448 86.073 314.148 87.2865 315.71C82.8691 316.101 78.4931 316.879 74.0925 317.426ZM72.1487 310.814C72.0313 311.062 71.8636 311.323 71.8598 311.619C71.7406 310.597 71.5076 309.587 71.1535 308.619C71.485 309.351 71.817 310.083 72.1487 310.814ZM69.3605 305.332C67.1871 302.509 63.1708 300.203 59.4582 300.989C59.2194 301.04 59.2138 301.423 59.4582 301.47C64.4455 302.145 68.8254 306.087 68.9987 311.184C69.392 313.491 67.7819 315.756 68.3242 317.969C68.2161 317.976 68.108 317.982 68.0018 317.989C67.9627 318.137 67.9271 318.269 67.8805 318.384C68.4193 318.474 68.5775 319.337 67.942 319.491C67.5657 319.583 67.1722 319.63 66.7717 319.65C64.7383 319.103 62.5931 318.977 60.649 318.168C58.7257 317.322 59.2066 314.942 58.528 313.293C58.0305 311.392 57.4581 309.499 56.737 307.675C56.6848 307.529 56.4854 307.562 56.4687 307.71C55.9598 311.349 55.9766 315.049 56.0996 318.717C55.4324 318.785 54.7689 318.86 54.1033 318.942C54.1464 317.918 51.0618 305.436 49.4366 308.639C50.2548 312.161 50.3535 315.84 50.4411 319.464C45.6158 320.256 40.8611 321.436 36.2353 323.042C32.9756 324.026 29.0987 326.938 25.9341 324.306C23.4833 322.286 22.6576 318.763 22.8887 315.765C26.0756 298.026 51.2482 295.953 66.108 297.265C67.5116 300.492 68.9412 303.708 70.3893 306.916C70.0892 306.364 69.7463 305.833 69.3605 305.332ZM18.6784 315.419C18.4063 311.391 19.0864 306.377 22.0817 303.374C28.9367 297.599 38.5352 295.783 47.1012 293.692C51.0914 292.907 55.136 292.386 59.1971 292.126C60.638 292.013 62.4682 292.338 63.4856 291.164C64.0096 292.4 64.5406 293.635 65.0719 294.87C48.0182 292.644 12.4382 300.378 22.4021 323.656C20.2923 321.379 18.8944 318.606 18.6784 315.419ZM6.77249 240.855C7.24962 237.398 7.7713 233.944 8.32298 230.496C10.5784 214.002 15.2397 197.95 18.0186 181.568C22.8289 183.127 27.7551 184.314 32.6121 185.717C22.0873 203.158 13.4784 221.678 6.77249 240.855ZM46.2929 224.626C45.3675 220.243 44.3298 215.776 43.858 211.32C43.8368 211.12 44.146 211.099 44.2012 211.275C44.9741 213.742 45.5008 216.3 46.1527 218.802C46.8071 221.312 47.4155 223.834 48.0598 226.347C48.2655 227.149 48.4719 227.951 48.6784 228.754C48.8021 228.759 48.9255 228.763 49.0483 228.766C49.5202 228.777 49.6617 229.367 49.2821 229.613C49.1712 229.685 49.0601 229.747 48.9486 229.804C50.9216 237.451 52.9433 245.08 55.1496 252.669C57.7206 261.512 60.615 270.248 62.9284 279.163C62.9819 279.369 62.8861 279.513 62.7459 279.575C63.9492 283.632 64.9575 287.741 66.0575 291.829C66.2866 292.68 65.0251 293.231 64.5939 292.434C63.9298 291.207 63.7831 289.53 63.4581 288.181C63.0918 286.662 62.7439 285.14 62.3964 283.616C61.8438 281.194 61.3481 278.741 60.9393 276.284C59.4162 272.471 58.0523 268.612 56.8453 264.681C54.1423 255.876 51.6489 247.011 49.4295 238.076C48.7742 235.439 48.1319 232.798 47.5191 230.151C44.729 230.193 41.8137 227.048 39.01 228.723C38.8802 228.8 38.7488 228.624 38.851 228.521C39.9687 227.392 41.5136 227.294 43.0145 227.573C43.9898 227.754 44.9249 228.099 45.8797 228.358C46.3004 228.472 46.7322 228.556 47.1687 228.619C46.8677 227.29 46.5743 225.959 46.2929 224.626ZM106.403 307.619C104.978 308.548 103.815 309.922 102.994 311.398C97.7384 325.1 92.1174 317.761 85.1336 310.408C91.0437 308.186 98.8716 306.521 103.405 302.103C104.189 304.057 105.149 305.917 106.403 307.619ZM104.523 274.197C104.067 271.943 103.69 269.674 103.348 267.401C103.02 265.22 102.507 262.885 102.59 260.678C102.594 260.59 102.718 260.574 102.745 260.657C103.455 262.857 103.668 265.29 104.119 267.556C104.555 269.747 105.034 271.93 105.516 274.111C106.507 278.588 107.908 282.997 108.756 287.502C108.847 287.985 108.193 288.154 108.015 287.703C106.317 283.395 105.437 278.713 104.523 274.197ZM8.39567 172.623C6.09966 170.158 4.29532 167.012 4.64404 163.673C6.02325 161.84 6.47988 159.449 7.28317 157.331C10.4237 148.466 13.3386 139.533 16.7566 130.764C24.0275 132.992 31.1805 135.664 37.9276 139.175C39.1687 139.806 40.3972 140.461 41.6105 141.14C42.8816 141.849 44.2683 143.082 45.7927 142.729C44.1266 145.08 40.6954 147.526 40.1156 150.242C39.9909 151.102 40.6022 151.9 41.5415 151.708C56.2448 162.115 71.4293 172.302 85.3274 183.895C95.7348 192.105 103.725 198.764 107.294 212.085C109.7 220.714 109.708 229.733 109.354 238.605C109.285 240.33 109.283 242.095 109.143 243.831C109.352 245.13 108.955 247.774 107.49 247.821C107.523 248.136 107.628 248.427 107.794 248.683C107.747 248.745 107.699 248.804 107.648 248.864C107.576 248.509 107.505 248.156 107.438 247.801C106.297 242.767 106.144 236.926 106.334 231.566C106.414 230.029 104.049 230.066 103.917 231.566C103.561 235.618 103.205 239.67 102.849 243.72C102.422 246.345 103.095 249.779 100.989 251.774C98.8476 249.802 99.5556 245.913 99.6602 243.369C99.8277 239.218 100.009 235.069 100.163 230.918C100.212 229.603 98.0254 229.264 97.7776 230.602C97.0751 234.414 96.3147 238.215 95.4963 242.006C95.0026 243.471 94.6632 250.046 92.1957 248.904C90.725 247.904 91.7857 242.037 91.5918 240.094C91.6831 236.249 91.737 232.409 92.0205 228.573C92.136 227.025 89.6067 226.696 89.2602 228.207C88.6974 230.653 88.1587 233.099 87.6704 235.561C86.5987 239.712 86.9883 245.339 83.119 248.097C81.6038 237.315 83.7842 226.608 84.0901 215.864C83.9072 212.383 83.3073 208.937 82.7779 205.498C82.1927 201.694 81.8516 197.555 83.2215 193.887C82.8469 192.244 81.3745 196.687 81.2364 197.057C80.1276 194.88 77.427 194.712 75.2911 194.033C70.544 192.502 65.6812 191.348 60.8784 189.987C48.141 186.461 35.389 182.991 22.6334 179.528C17.5378 178.123 12.1738 176.46 8.39567 172.623ZM135.944 229.974C134.187 220.482 134.235 210.863 134.987 201.266C135.812 186.383 136.613 171.496 137.471 156.614C141.193 183.549 145.161 210.453 148.195 237.474C148.411 239.355 148.378 241.345 149.33 243.023C144.067 243.725 138.457 244.433 133.339 242.65C135.585 238.781 136.377 234.376 135.944 229.974ZM21.705 119.91C30.5768 101.761 48.6666 88.8771 68.9542 86.0673C68.9766 86.0892 69.0008 86.1112 69.0232 86.135C68.9561 86.1953 68.8946 86.2612 68.8386 86.3289C69.3845 85.9282 70.1338 86.4313 69.8917 86.9854C70.1918 87.6679 70.4134 88.3704 70.6911 89.0582C70.8087 89.0473 70.928 89.0363 71.0471 89.018C72.2511 91.3998 72.9034 94.1456 74.1614 96.5201C81.0465 108.407 98.0368 113.233 110.781 108.434C120.894 104.068 122.329 91.634 121.423 82.0756C121.377 81.4317 121.049 80.9762 120.611 80.7073C126.126 81.5872 131.641 82.4744 137.162 83.3105C139.821 83.7129 142.553 84.2946 144.607 86.1148C152.691 94.4036 154.133 116.709 156.853 128.305C150.346 128.984 143.074 132.679 138.41 137.159C138.63 132.066 138.315 126.999 137.726 121.942C137.717 121.695 137.303 121.611 137.264 121.882C136.099 127.008 135.203 132.178 134.834 137.429C133.3 158.564 132.388 179.74 131.074 200.889C130.625 208.673 130.064 216.525 131.177 224.281C134.759 240.25 128.443 248.086 111.49 245.432C113.549 225.196 112.056 202.042 95.0492 188.011C94.5308 187.55 93.9085 187.581 93.437 187.855C79.6095 176.148 65.016 165.303 49.4832 155.86C49.595 153.908 44.6951 152.183 43.3231 150.837C48.4169 145.579 52.2956 139.188 55.6782 132.759C55.9766 132.061 59.8662 125.029 58.6286 125.471C54.9327 130.928 51.2575 136.42 46.9055 141.414C47.1422 139.111 41.1539 137.567 39.3106 136.515C32.1888 133.526 24.7432 131.186 17.0699 129.975C18.451 126.549 19.9607 123.174 21.705 119.91ZM116.475 82.8934C116.242 82.4964 116.021 82.0903 115.808 81.6787C116.528 81.7061 117.228 81.7317 117.936 81.8488C117.905 82.9848 117.968 84.13 117.981 85.2752C117.627 84.4373 116.934 83.6727 116.475 82.8934ZM236.656 242.871C219.66 230.556 191.744 238.402 172.055 239.668C168.302 215.142 169.834 190.215 166.335 165.649C163.113 141.107 159.715 116.222 151.623 92.7078C148.283 83.616 142.505 80.9158 132.992 80.989C128.165 80.8006 123.06 80.0304 118.369 80.1402C117.34 80.1567 116.265 80.292 115.337 80.7055C114.032 77.7749 113.323 74.6284 112.966 71.4582C112.943 71.2569 112.686 71.2203 112.61 71.4124C111.506 74.1729 111.389 77.1858 111.989 80.0762C112.423 82.147 115.009 90.2967 118.011 87.1082C118.249 93.7944 116.775 101.779 110.202 105.25C98.7152 110.24 82.8374 105.696 76.1839 95.1042C74.8978 92.9877 73.7887 90.7356 72.3649 88.7034C82.2859 85.9045 87.8547 74.0595 85.5177 65.039C84.0733 72.0545 81.4396 79.8932 74.8811 83.8227C50.9982 83.7696 31.1416 94.6085 19.9215 115.485C17.726 118.516 15.6963 121.666 13.8361 124.871C12.8352 127.015 9.90366 129.997 12.3916 132.068C9.51786 139.711 6.96819 147.46 4.27314 155.163C3.53303 157.73 1.84071 160.423 2.17824 163.121C1.81294 164.784 1.82971 166.75 2.66656 168.349C3.46053 171.199 5.24213 175.034 8.19643 176.243C10.7032 178.524 13.8735 180.095 17.1799 181.279C8.36212 204.241 5.00562 229.005 2.01796 253.265C-0.910248 274.489 -2.4216 300.307 15.9254 315.646C16.2816 320.034 18.8944 325.627 24.061 325.674C27.6393 329.175 32.0006 327.255 35.9837 325.543C42.7064 323.062 49.7571 321.686 56.7631 320.92C57.5142 321.505 58.7369 321.408 59.4058 320.726C63.6498 319.751 69.5318 323.699 70.3893 320.122C75.8612 319.594 81.2737 318.602 86.7404 318.024C84.4365 321.002 84.6026 325.394 86.3376 328.612C81.9185 337.274 92.2125 342.29 98.5063 345.845C107.003 350.747 115.877 355.399 125.595 357.431C134.138 359.222 143.088 358.679 151.332 355.818C155.663 354.733 161.713 351.172 159.143 346.154C162.401 336.605 139.521 326.71 132.791 321.928C135.542 321.586 135.642 315.896 128.487 319.165C127.623 318.589 126.773 317.995 125.932 317.389C154.873 314.074 210.144 304.955 231.089 285.242C242.596 275.106 249.235 254.603 236.656 242.871Z" fill="black"/>
</g>
<path fill-rule="evenodd" clip-rule="evenodd" d="M103.338 5.74188C113.685 5.74188 127.041 12.2102 128.18 18.835C129.522 26.6421 136.709 56.5989 135.086 66.2056C133.463 75.8122 124.717 82.7279 110.723 82.7279C96.7286 82.7279 86.2834 75.1221 83.885 72.5106C82.2862 70.7697 80.0052 66.7913 77.0422 60.5755C72.0469 59.9134 69.5373 57.5533 69.5132 53.4952C69.4899 49.4371 71.1139 46.6699 74.3853 45.1934C73.2189 29.1785 74.1045 19.0863 77.0422 14.9168C81.4486 8.66257 92.9916 5.74188 103.338 5.74188Z" fill="white"/>
<path fill-rule="evenodd" clip-rule="evenodd" d="M127.546 17.766C127.539 17.6264 127.743 17.61 127.781 17.7335C130.013 25.083 131.389 30.8106 132.838 38.3455L133.266 40.562C134.409 46.4737 135.564 52.3941 136.539 58.3345L136.596 58.6892C137.085 61.7642 137.366 64.8691 136.754 67.9504C136.182 70.8307 134.618 73.4712 132.588 75.5741C128.665 79.6386 123.213 82.1772 117.728 83.3122C114.955 83.8861 112.094 84.1077 109.268 83.9079C107.859 83.8097 106.452 83.6117 105.073 83.3195L104.921 83.2871C103.53 82.9879 102.296 82.631 101.558 81.3271C101.372 80.9986 101.447 80.4357 101.837 80.2668C102.573 79.9506 103.114 79.8182 103.917 79.909C104.685 79.996 105.434 80.2268 106.192 80.3703C107.64 80.6445 109.113 80.7823 110.587 80.8152C113.482 80.8788 116.385 80.5174 119.153 79.6566C123.909 78.1765 128.742 75.3453 131.521 71.1103C134.789 66.1284 133.488 60.0821 132.622 54.5803L132.596 54.4137C131.719 48.7902 130.852 43.1666 130.01 37.5394L129.651 35.1275C128.707 28.755 127.816 24.2058 127.546 17.766ZM79.2594 2.16827C81.6331 0.609057 84.5827 0.22591 87.3707 0.247426L87.7198 0.251813C91.2898 0.306041 109.26 0.732231 115.276 0.863375L116.708 0.893419C118.602 0.929041 122.423 0.966236 124.391 1.00209L124.505 1.0042C125.471 1.02236 126.437 1.02962 127.402 1.06049L127.544 1.06558C128.267 1.09636 128.869 1.20424 129.436 1.71245C129.724 1.97002 129.836 2.36286 129.81 2.73704L129.806 2.78572L131.24 2.91103C132.214 2.99682 132.729 3.86722 132.342 4.748L132.322 4.79063C131.635 6.25071 131.111 10.5002 130.742 12.0711C130.549 12.8974 130.394 13.7364 130.303 14.5809C130.23 15.2457 130.223 15.912 129.851 16.4968C129.059 17.7444 126.828 17.7335 126.788 15.9665C126.786 15.9102 126.788 15.8557 126.794 15.803C121.181 15.5579 113.519 15.5815 107.914 15.9156C102.679 16.228 97.467 16.9362 92.3374 18.0204C91.0382 18.2946 89.7426 18.5943 88.4561 18.9194C87.401 19.1845 86.1054 19.3425 85.1615 19.9109C84.1046 20.5502 84.1247 21.6961 84.2395 22.7875C84.3627 23.9443 84.5682 23.3483 84.8593 24.4025L84.8773 24.4692C85.1779 25.6133 85.5497 26.7446 86.0417 27.8197C86.3223 28.4335 86.7744 29.0238 86.6029 29.7302C86.5063 30.1279 86.1909 30.5529 85.9014 30.8307C84.5819 32.0929 82.3517 31.2884 81.4551 33.0172C80.5169 34.825 80.4936 37.274 80.4139 39.2743L80.4092 39.3915C80.3511 40.7699 80.3673 42.1519 80.4584 43.5266C80.5404 44.7795 80.8755 46.02 80.4456 47.224C80.132 48.0994 79.1081 48.1811 78.5724 47.4692C78.5109 47.3875 78.4545 47.3037 78.4017 47.2194L78.3501 47.135L78.3466 47.1369C78.3975 47.2168 78.4448 47.2987 78.4904 47.382C78.5396 47.4746 78.4175 47.5763 78.3428 47.4964C77.0818 46.129 75.2396 46.4014 73.8128 47.3584C72.3677 48.3318 71.7974 50.1805 71.7227 51.8388C71.6389 53.678 71.8029 55.834 72.5718 57.5336C72.8962 58.2528 73.3589 58.9138 74.1262 59.1881C74.4744 59.3115 74.8059 59.2952 75.1685 59.3243C75.5455 59.3531 75.9994 59.5422 76.3655 59.5168C76.8415 59.483 77.2688 60.0245 77.1336 60.4782L77.1237 60.5083C77.1166 60.5301 77.1092 60.5519 77.102 60.5719C77.1201 60.5882 77.1383 60.6082 77.1511 60.6372C78.536 63.4575 80.4347 65.9673 82.5339 68.2955C83.5855 69.4595 84.7515 70.5292 85.9706 71.5189C86.5719 72.0074 87.2061 72.4961 87.8748 72.89C88.0971 73.0188 88.301 73.1061 88.551 73.1771C88.6675 73.2096 88.8005 73.226 88.9135 73.2641L89.0308 73.3042C89.0388 73.3068 89.0465 73.3092 89.0538 73.3113C89.3891 73.3495 89.6715 73.571 89.7827 73.9179C90.0724 74.8223 89.5458 75.6213 88.6456 75.8701C87.6703 76.1419 86.7512 75.6647 85.9782 75.1168L85.9269 75.0802C84.3506 73.949 82.8983 72.6794 81.641 71.1975C79.1537 68.2719 77.5955 64.885 76.8743 61.1385C76.6955 61.5217 76.455 61.8558 76.0377 62.0883C75.389 62.4515 74.6145 62.4515 73.9039 62.3298C72.4734 62.0883 71.2544 61.2184 70.4398 60.0416C69.5942 58.8212 69.2791 57.3393 69.0878 55.8956C68.8982 54.4498 68.8053 52.999 68.9948 51.5498C69.2665 49.4687 70.1428 47.4111 71.8466 46.2706C70.571 43.5012 70.3469 40.3958 70.438 37.363C70.5492 33.6292 71.1961 29.8537 71.6935 26.1544L73.1078 15.6378L73.1656 15.2138C73.5069 12.7398 73.9223 10.2526 74.8514 7.92146C75.768 5.62418 77.1602 3.54664 79.2594 2.16827ZM73.3081 51.9203C75.6441 50.7907 78.1679 51.8313 79.4252 54.0232C80.5185 55.929 77.2681 57.1886 76.7257 55.2242L76.7101 55.1637C76.353 53.6764 74.8987 52.3906 73.3809 52.1908C73.2552 52.1729 73.1621 51.9913 73.3081 51.9203Z" fill="black"/>
<path fill-rule="evenodd" clip-rule="evenodd" d="M119.332 52.0702C120.709 52.9038 122.805 54.8475 121.325 56.914C119.582 58.7361 117.074 56.6469 115.837 55.7021C114.691 54.9698 113.403 56.8532 114.467 57.7082C123.4 64.2995 127.025 52.2882 120.028 51.0901C119.258 50.9581 118.972 51.8123 119.332 52.0702ZM106.9 36.1733L107.242 36.1136L107.418 36.084C108.442 35.9151 109.657 35.8022 110.365 36.6038C110.762 37.0535 110.899 37.8892 110.365 38.3196C109.426 39.0769 108.388 38.7834 107.263 38.8476C106.336 38.9006 105.445 39.0535 104.552 39.3079C102.593 39.866 100.996 40.8848 99.323 42.0035C99.1035 42.1502 98.8793 41.8703 98.9841 41.6657C99.9501 39.7801 101.822 38.2312 103.697 37.287C104.698 36.7831 105.793 36.365 106.9 36.1733ZM115.963 62.2225C118.958 62.4392 125.447 61.0147 128.141 63.1514C138.296 75.7886 98.0373 79.0377 102.385 65.0566C105.154 60.536 111.524 62.3529 115.963 62.2225ZM115.45 69.8515C114.709 69.7914 113.811 70.3759 113.593 70.8276C113.376 71.2794 113.46 72.2341 113.467 72.3996C114.761 72.5296 116.067 72.5494 117.366 72.4646C117.028 71.3526 117.017 70.0198 115.45 69.8515ZM121.428 71.7169C121.22 70.3367 120.229 70.0098 119.428 70.217C118.607 70.4288 118.126 71.3697 118.178 72.2074C118.182 72.2652 118.148 72.3142 118.126 72.3607C119.241 72.2294 120.345 72.0133 121.428 71.7169ZM112.245 70.1014C111.778 69.3935 110.663 69.0519 109.948 69.1766C108.781 69.4214 108.643 70.899 108.643 71.2001C109.719 71.6087 110.861 71.88 111.953 72.0961C112.172 72.1393 112.392 72.178 112.612 72.2145L112.626 72.0351C112.653 71.6507 112.673 70.7493 112.245 70.1014ZM125.443 69.9846C124.247 68.14 121.675 69.4607 121.888 71.4757C122.116 71.404 122.344 71.329 122.57 71.2504C123.51 70.9238 124.541 70.5358 125.443 69.9846ZM116.025 63.6292C114.416 63.4848 113.096 63.5335 112.046 63.7275L112.014 64.0769C111.898 65.2884 111.748 66.4795 112.387 66.9669C112.905 67.3628 114.626 67.325 115.78 67.0384C116.064 66.9669 116.435 64.4542 116.025 63.6292ZM118.514 63.4848C118.256 64.6788 118.134 66.1286 118.652 66.5591C119.199 67.0138 120.96 66.9522 121.42 66.6493C121.823 66.3843 121.813 65.165 121.663 63.7961C120.772 63.5867 119.219 63.4848 118.514 63.4848ZM111.334 63.7394L110.807 63.7442L110.509 63.7481C109.755 63.7615 108.941 63.8048 108.172 63.9721C106.644 67.2633 112.224 67.8314 111.362 63.8611L111.334 63.7394ZM122.373 63.8188L122.363 64.0052C122.318 64.9298 122.348 66.1472 122.862 66.4758C123.618 66.9595 125.038 66.8662 125.807 64.6291C125.553 63.9617 122.853 63.8677 122.373 63.8188ZM107.563 44.1946C107.886 44.1946 108.195 44.3039 108.476 44.5062C108.753 44.7052 109.004 44.9957 109.213 45.3581C109.608 46.0438 109.855 46.9905 109.855 48.0374C109.855 49.0842 109.608 50.0309 109.213 50.7166C109.004 51.079 108.753 51.3695 108.476 51.5685C108.195 51.7708 107.886 51.8801 107.563 51.8801C107.24 51.8801 106.931 51.7708 106.649 51.5685C106.372 51.3695 106.121 51.079 105.912 50.7166C105.517 50.0309 105.27 49.0842 105.27 48.0374C105.27 46.9905 105.517 46.0438 105.912 45.3581C106.121 44.9957 106.372 44.7052 106.649 44.5062C106.931 44.3039 107.24 44.1946 107.563 44.1946ZM128.015 44.1946C128.338 44.1946 128.647 44.3039 128.929 44.5062C129.206 44.7052 129.457 44.9957 129.666 45.3581C130.061 46.0438 130.308 46.9905 130.308 48.0374C130.308 49.0842 130.061 50.0309 129.666 50.7166C129.457 51.079 129.206 51.3695 128.929 51.5685C128.647 51.7708 128.338 51.8801 128.015 51.8801C127.692 51.8801 127.383 51.7708 127.102 51.5685C126.825 51.3695 126.574 51.079 126.365 50.7166C125.97 50.0309 125.723 49.0842 125.723 48.0374C125.723 46.9905 125.97 46.0438 126.365 45.3581C126.574 44.9957 126.825 44.7052 127.102 44.5062C127.383 44.3039 127.692 44.1946 128.015 44.1946ZM125.233 35.3286L125.494 35.382L125.668 35.4187C128.492 36.0242 132.073 37.2177 133.395 39.9507C133.447 40.3451 133.392 40.4296 133.348 40.4849L133.334 40.5032C133.297 40.5504 133.268 40.6154 133.097 40.6691C133.049 40.6578 133.001 40.6458 132.952 40.6331C132.334 40.4716 131.844 40.249 131.371 40.0181L130.857 39.7659C130.261 39.4747 129.66 39.1941 129.023 38.9869C127.663 38.5449 126.264 38.2335 124.844 38.0673C124.536 38.0312 124.24 37.9277 124.006 37.7502C123.784 37.5818 123.614 37.3486 123.537 37.0386C123.437 36.6374 123.465 36.3337 123.681 35.9718C123.844 35.7 124.076 35.5116 124.343 35.4034C124.615 35.2932 124.925 35.2672 125.233 35.3286Z" fill="black"/>
</g>
<defs>
<clipPath id="clip0_2_1376">
<rect width="243.438" height="359" fill="white"/>
</clipPath>
</defs>
</svg>
